<?xml version="1.0" encoding="UTF-8"?>
<!DOCTYPE svg PUBLIC "-//W3C//DTD SVG 1.1//EN" "http://www.w3.org/Graphics/SVG/1.1/DTD/svg11.dtd">
<!-- Creator: CorelDRAW X7 -->
<svg xmlns="http://www.w3.org/2000/svg" xml:space="preserve" width="15mm" height="15mm" version="1.1" style="shape-rendering:geometricPrecision; text-rendering:geometricPrecision; image-rendering:optimizeQuality; fill-rule:evenodd; clip-rule:evenodd"
viewBox="0 0 1500 1500"
 xmlns:xlink="http://www.w3.org/1999/xlink">
 <defs>
  <style type="text/css">
   <![CDATA[
    .fil0 {fill:white;fill-rule:nonzero}
   ]]>
  </style>
 </defs>
 <g id="Layer_x0020_1">
  <metadata id="CorelCorpID_0Corel-Layer"/>
  <path class="fil0" d="M941 709c0,0 0,0 0,0 -2,-17 -8,-34 -20,-49 -16,-20 -42,-24 -65,-12 -22,11 -36,35 -43,59 -2,7 -3,15 -4,23 -2,-8 -3,-15 -5,-23 -6,-28 -8,-56 -8,-86 1,-23 12,-52 1,-74 1,-5 1,-9 2,-14 7,-31 26,-51 58,-56 24,-5 51,8 64,28 16,26 20,60 22,90 3,38 2,76 -2,114zm-37 75c-20,15 -48,21 -67,3 -4,-4 -7,-8 -10,-12 2,0 4,-2 3,-4 -1,-25 0,-49 12,-72 10,-18 35,-41 53,-18 17,23 9,56 13,82 1,5 3,10 6,13 -3,3 -6,6 -10,8zm-162 -181c-1,12 -2,23 -3,34 -7,-1 -14,0 -19,4 -10,1 -20,4 -29,7 -19,7 -37,12 -56,18 -13,4 -26,9 -39,13 0,-18 1,-35 2,-53 0,-23 -3,-46 0,-68 6,-38 35,-72 75,-74 36,-2 56,28 64,59 5,19 5,39 5,60zm-191 18c2,24 3,48 14,69 -15,5 -30,10 -45,16 -32,11 -63,25 -92,41 2,-26 1,-52 0,-79 -1,-41 -2,-82 -1,-123 2,-43 5,-85 5,-127 0,-40 -1,-80 -3,-121 -3,-37 -9,-75 -4,-112 4,-30 16,-64 42,-82 22,-15 52,-16 74,-2 25,16 32,49 34,78 3,49 -6,97 -6,146 0,26 1,52 1,78 1,13 1,26 0,38 0,13 4,24 9,35 -13,16 -23,35 -28,55 -7,30 -4,60 0,90zm628 468c-2,-19 -6,-38 -10,-57 -4,-20 -5,-41 -7,-62 -4,-42 -5,-83 -7,-125 -2,-42 -5,-84 -4,-127 0,-41 3,-82 3,-123 1,-41 -3,-83 -4,-124 -1,-37 2,-73 6,-109 2,-32 2,-65 -9,-95 -13,-31 -37,-56 -70,-67 -29,-9 -61,-3 -89,9 -30,13 -50,40 -61,70 -11,32 -7,66 -3,99 3,17 6,34 9,51 1,5 2,10 2,15 -45,-31 -113,-20 -149,20 -6,6 -10,13 -14,20 -21,-33 -57,-56 -99,-55 -18,0 -35,4 -51,12 1,-6 2,-12 2,-19 1,-21 1,-42 2,-64 0,-19 0,-38 1,-57 1,-21 4,-41 5,-62 5,-73 2,-164 -78,-194 -33,-12 -69,-8 -100,7 -30,16 -51,45 -63,76 -15,36 -17,75 -15,113 3,40 7,80 8,120 3,71 -4,142 -5,213 0,35 2,70 5,104 2,30 7,60 10,90 -24,16 -44,36 -57,62 -36,70 -11,156 2,229 6,40 18,78 35,114 16,32 39,59 59,88 16,23 32,46 44,71 12,28 16,56 14,86 0,14 13,25 26,25 16,0 24,-11 26,-25 10,-82 -33,-151 -82,-212 -21,-26 -39,-56 -50,-88 -14,-38 -19,-78 -27,-117 -8,-38 -18,-77 -15,-115 3,-32 22,-57 47,-76 64,-47 140,-65 212,-95 20,-8 39,-16 59,-25 8,-4 16,-9 25,-13 5,9 12,18 17,28 5,10 0,27 -1,38 -1,22 -7,42 -26,56 -18,14 -40,22 -62,28 -20,6 -43,7 -60,19 -25,17 -31,48 -14,72 16,22 39,32 60,47 22,16 40,39 58,60 9,12 18,23 27,35 4,6 9,12 13,18 3,3 9,9 10,13 2,11 19,8 19,-3 0,-5 2,-10 2,-15 -1,-7 -3,-14 -5,-20 -6,-14 -14,-27 -23,-39 -17,-24 -33,-48 -53,-70 -17,-19 -39,-31 -58,-47 -3,-3 -6,-5 -8,-8 5,-4 14,-5 22,-7 47,-10 97,-28 127,-67 7,-9 11,-19 15,-29 10,23 26,43 48,56 33,19 71,13 104,-2 71,-35 80,-123 80,-193 0,-57 -2,-121 -35,-168 1,-2 1,-4 1,-5 1,-10 1,-20 1,-30 1,-20 -1,-39 -3,-59 -3,-31 -6,-63 4,-94 15,-48 86,-67 116,-22 17,24 18,53 16,82 -1,14 -3,29 -4,44 -3,20 -2,40 -2,61 -1,41 3,83 2,125 -1,41 -3,82 -5,123 -2,68 2,138 5,206 1,34 4,67 7,100 3,34 11,67 17,100 8,52 -4,107 -38,147 -42,49 -110,53 -169,61 -12,1 -17,19 -3,23 18,5 37,8 56,11 21,2 42,-2 63,-7 2,-1 5,-1 7,-2 0,2 -1,3 -1,5 -4,15 -4,31 -4,46 -1,16 -2,31 1,47 3,26 49,26 53,0 4,-29 -3,-58 0,-86 1,-11 0,-21 2,-31 0,-2 0,-4 0,-5 13,-9 24,-19 34,-29 24,-27 41,-59 50,-94 9,-35 8,-71 4,-107zm-643 -1000c-2,2 -4,4 -6,6 -2,2 -3,6 -5,8 -3,5 -6,9 -5,14 0,3 3,3 4,2 4,-3 6,-8 9,-11 1,-2 3,-4 4,-7 0,-1 1,-2 2,-4 0,-2 0,-3 1,-5 2,-2 -2,-5 -4,-3zm18 15c-3,2 -5,4 -7,7 -2,2 -4,4 -6,6 -6,3 -11,9 -11,15 -1,3 2,5 4,3 5,-3 9,-8 14,-12 2,-1 3,-4 4,-6 2,-3 4,-6 7,-8 2,-4 -2,-8 -5,-5zm2 20c-9,8 -17,16 -25,25 -4,5 -10,13 -11,19 -1,1 0,3 2,3 7,2 12,-7 16,-11 7,-11 15,-20 24,-30 4,-4 -2,-10 -6,-6zm-2 29c-4,8 -9,14 -14,20 -5,5 -13,12 -13,19 0,2 1,3 3,4 8,0 15,-10 20,-16 6,-7 11,-14 14,-23 3,-6 -8,-10 -10,-4zm6 22c-7,7 -14,14 -21,21 -6,6 -16,14 -17,24 -1,2 1,5 4,4 9,-3 14,-11 20,-18 7,-8 14,-15 22,-23 5,-5 -3,-13 -8,-8zm2 25c-10,15 -24,26 -37,39 -8,8 -22,19 -20,32 1,2 3,4 6,3 6,-2 9,-7 13,-12 5,-7 11,-13 17,-18 12,-12 23,-24 31,-39 3,-6 -7,-12 -10,-5zm7 37c-14,11 -27,23 -40,35 -13,13 -32,27 -40,43 -2,3 1,6 4,4 14,-7 25,-22 36,-33 15,-14 29,-28 45,-40 5,-4 0,-12 -5,-9zm-7 34c-12,12 -25,23 -38,35 -11,10 -27,21 -33,35 -2,3 1,6 5,5 14,-7 26,-21 37,-31 13,-12 26,-23 38,-35 6,-6 -3,-15 -9,-9zm-27 48c-11,8 -21,18 -31,28 -8,8 -22,19 -24,31 -1,3 2,6 4,5 12,-4 19,-16 27,-25 9,-10 19,-19 30,-28 7,-5 0,-16 -6,-11zm8 26c-3,6 -10,10 -15,15 -7,5 -12,11 -18,17 -6,6 -27,17 -22,29 1,2 2,3 4,2 6,-2 10,-7 14,-10 6,-5 11,-10 16,-15 6,-5 11,-12 18,-17 5,-4 11,-8 14,-15 3,-7 -8,-14 -11,-6zm7 21c-8,6 -16,13 -23,20 -7,7 -14,13 -19,21 -1,2 -1,5 0,7 6,9 14,-4 18,-8 10,-10 20,-21 31,-29 7,-5 0,-17 -7,-11zm-1 35l-18 18c-4,4 -11,8 -12,14 -1,6 8,11 11,4 1,-2 2,-2 4,-3 2,-3 5,-5 7,-8 6,-5 11,-11 17,-17 6,-5 -3,-14 -9,-8zm6 29c-9,8 -19,16 -26,26 -3,4 3,10 8,7 9,-7 17,-17 26,-26 5,-5 -3,-12 -8,-7zm7 22c-8,8 -15,16 -22,24 -5,5 -11,14 -5,20 1,1 4,1 5,1 2,-2 3,-4 5,-7 3,-2 6,-5 8,-7 6,-7 12,-15 18,-21 7,-7 -3,-16 -9,-10zm505 -208c0,0 0,0 0,0 1,-6 -8,-6 -9,-1 -1,4 -5,7 -8,11 -3,5 -6,9 -5,15 0,4 6,6 9,2 1,-2 3,-4 4,-6 2,-3 3,-6 5,-8 4,-4 5,-8 4,-13zm9 16c-7,10 -16,19 -23,29 -3,4 -2,12 4,11 3,0 4,-1 6,-3 9,-8 16,-19 23,-29 4,-6 -5,-13 -10,-8zm10 20c-4,5 -8,10 -12,15 -3,4 -7,7 -8,12 -2,4 2,8 5,8 6,0 9,-6 12,-10 5,-6 9,-13 13,-19 5,-7 -6,-13 -10,-6zm20 25c-5,8 -12,12 -18,17 -7,6 -12,13 -17,20 -5,8 5,15 11,9 7,-6 12,-13 18,-19 7,-6 14,-11 18,-19 4,-9 -8,-16 -12,-8zm-11 40c-9,5 -17,14 -24,21 -5,5 -9,9 -13,13 -3,4 -7,6 -9,11 -2,2 -1,5 2,6 4,1 7,1 10,-1 -7,7 -15,14 -22,20 -6,6 -17,12 -17,21 0,2 2,4 4,4 9,0 16,-10 22,-16 8,-7 16,-15 24,-22 5,-5 -1,-12 -6,-11 3,-2 5,-6 7,-8 9,-9 19,-20 29,-27 7,-4 1,-16 -7,-11zm-32 68c-11,10 -22,20 -32,30 -7,6 3,16 9,9 11,-10 22,-19 33,-29 6,-6 -4,-16 -10,-10zm23 5c-12,12 -26,24 -35,38 -6,7 5,14 12,9 0,0 0,0 0,0 1,-1 1,-1 1,-1 11,-12 21,-24 32,-36 7,-6 -3,-17 -10,-10zm14 20c-12,9 -22,21 -33,32 -7,7 -22,20 -14,31 1,2 3,3 6,2 4,-1 5,-3 8,-7 3,-6 7,-11 11,-15 10,-11 20,-23 31,-32 6,-5 -2,-16 -9,-11zm7 32c-10,9 -19,18 -27,28 -6,7 -12,12 -12,21 1,4 2,6 6,7 8,3 9,-8 13,-12 10,-11 20,-23 30,-34 7,-7 -4,-17 -10,-10zm-10 40c-6,9 -13,17 -20,25 -6,8 -11,15 -9,25 1,6 10,8 13,4 0,0 0,0 0,-1 1,-1 2,-2 2,-3 0,0 0,0 0,0 2,-7 5,-11 9,-17 6,-9 13,-16 19,-25 5,-9 -8,-16 -14,-8zm-2 41c-10,10 -22,23 -25,37 -2,8 9,11 12,4 5,-12 12,-23 21,-32 5,-6 -3,-14 -8,-9zm-7 46c-10,22 -21,42 -24,68 0,3 4,4 6,2 8,-8 12,-21 15,-32 3,-11 10,-22 15,-34 2,-6 -9,-11 -12,-4zm-169 -120c-11,10 -24,24 -28,39 -1,3 3,4 5,3 11,-11 19,-24 29,-36 4,-4 -2,-9 -6,-6zm2 41c-6,6 -12,12 -17,18 -5,6 -12,13 -14,21 0,3 3,6 5,4 7,-4 11,-12 16,-17 6,-7 12,-13 18,-18 4,-5 -3,-13 -8,-8zm18 18c-13,12 -24,25 -36,37 -7,7 -20,18 -15,29 0,1 3,2 4,1 9,-3 15,-15 22,-22 11,-12 22,-25 33,-37 5,-5 -3,-13 -8,-8zm2 37c-8,11 -17,20 -27,29 -8,8 -19,16 -22,28 -2,5 4,7 8,4 9,-8 16,-18 25,-26 10,-9 19,-18 26,-29 4,-6 -6,-12 -10,-6zm8 45c-9,8 -18,15 -26,23 -7,7 -16,13 -19,22 -1,5 4,9 8,6 7,-5 14,-12 20,-18 9,-8 18,-15 26,-23 6,-6 -3,-16 -9,-10zm2 36c-9,9 -18,18 -26,28 -8,9 -16,17 -21,28 -1,4 4,8 8,6 9,-6 16,-15 24,-23 8,-10 17,-19 25,-28 7,-7 -3,-18 -10,-11zm-228 -177c-4,2 -7,4 -10,7 -4,3 -5,7 -9,10 -7,4 -14,14 -15,22 -1,2 1,4 3,3 9,-2 9,-13 16,-18 3,-1 6,-3 7,-6 4,-5 7,-8 12,-11 5,-3 1,-10 -4,-7zm5 22c-4,10 -14,17 -22,25 -3,4 -5,8 -8,12 -2,4 -5,7 -7,11 -1,2 1,4 3,4 10,1 14,-13 20,-19 8,-10 18,-17 23,-28 3,-6 -6,-11 -9,-5zm11 25c-6,11 -17,18 -25,27 -7,6 -18,16 -19,25 0,2 2,4 4,4 10,0 16,-14 23,-21 9,-9 19,-18 25,-29 4,-6 -5,-11 -8,-6zm-11 43c-8,5 -14,12 -20,19 -5,6 -14,11 -12,20 0,2 3,2 5,2 3,-2 4,-4 6,-6 2,-3 5,-6 8,-9 5,-6 11,-13 17,-18 5,-3 1,-11 -4,-8zm-3 32c-7,7 -14,14 -22,20 -6,6 -15,11 -19,18 -2,3 0,5 3,4 8,-1 15,-8 21,-13 8,-7 15,-15 23,-23 3,-4 -3,-10 -6,-6zm-84 246c-6,17 -27,43 -20,62 1,2 4,3 5,0 5,-9 6,-21 11,-31 4,-10 8,-19 11,-29 1,-4 -6,-6 -7,-2zm18 15c-7,11 -15,22 -21,34 -4,8 -10,21 -4,29 1,3 4,2 6,0 3,-4 2,-5 3,-11 1,-7 4,-13 7,-20 5,-9 11,-18 16,-28 3,-5 -4,-9 -7,-4zm34 -12c-6,7 -9,15 -14,21 -6,8 -11,16 -17,25 -8,11 -22,35 -17,50 1,3 5,4 8,2 11,-13 11,-32 21,-46 5,-7 10,-15 14,-23 5,-8 7,-16 12,-23 4,-4 -3,-9 -7,-6zm33 6c-11,18 -22,35 -33,53 -8,14 -20,33 -16,49 1,3 5,4 7,1 4,-6 6,-13 8,-20 4,-9 9,-18 14,-27 9,-17 19,-34 28,-51 4,-5 -5,-10 -8,-5zm22 7c-3,10 -12,16 -16,25 -5,13 -10,26 -18,38 -10,18 -28,37 -27,60 0,3 4,5 7,3 3,-3 4,-4 5,-9 2,-6 5,-11 8,-18 7,-11 14,-23 21,-34 5,-10 9,-21 14,-32 4,-11 13,-19 17,-31 2,-6 -9,-9 -11,-2zm22 37c-14,20 -25,40 -36,61 -8,17 -20,41 -15,60 1,3 5,3 7,1 5,-9 6,-19 9,-28 3,-11 7,-21 12,-30 10,-20 20,-40 32,-58 4,-6 -6,-11 -9,-6zm28 20c-4,11 -12,21 -18,30 -9,12 -15,24 -22,37 -9,18 -27,43 -21,65 1,3 5,4 7,1 5,-9 7,-20 10,-30 5,-13 12,-26 19,-39 10,-21 28,-39 35,-61 2,-7 -8,-10 -10,-3zm19 35c-16,23 -29,47 -40,73 -5,13 -11,25 -16,37 -5,12 -11,24 -8,36 1,3 5,3 6,1 6,-10 8,-22 13,-32 5,-11 10,-23 15,-35 9,-26 22,-52 38,-75 4,-5 -5,-11 -8,-5zm-29 104c-10,21 -19,42 -24,64 0,3 3,4 4,2 11,-20 18,-41 28,-61 3,-6 -5,-10 -8,-5zm78 -173c-5,16 -16,31 -19,47 -1,3 3,5 5,2 8,-15 16,-30 22,-47 2,-5 -6,-7 -8,-2zm45 -19c-12,18 -22,40 -31,61 -6,16 -22,40 -15,59 1,2 4,3 5,0 4,-7 5,-15 8,-23 3,-10 7,-19 11,-29 8,-21 17,-45 29,-64 3,-4 -4,-8 -7,-4zm20 19c-6,16 -15,29 -22,44 -5,9 -12,25 -6,35 2,1 5,2 6,0 4,-5 4,-6 5,-13 1,-8 4,-16 8,-23 6,-14 14,-26 18,-40 2,-6 -7,-9 -9,-3zm18 27c-6,8 -9,17 -13,26 -3,6 -6,12 -6,18 0,5 4,7 8,5 1,0 2,-1 2,-1 2,-2 2,-4 1,-5 1,-6 5,-12 7,-17 3,-7 6,-14 10,-20 4,-6 -6,-12 -9,-6zm33 0c-4,7 -36,48 -18,53 7,2 9,-14 12,-18 5,-10 11,-19 17,-29 4,-7 -7,-14 -11,-6zm25 11c-3,8 -10,15 -14,23 -3,5 -8,20 3,20 4,0 5,-3 6,-5 1,-4 2,-7 4,-11 4,-8 10,-15 14,-23 3,-8 -10,-12 -13,-4zm29 9c-7,13 -17,24 -23,37 -4,7 6,13 11,6 8,-11 16,-24 23,-36 5,-7 -7,-14 -11,-7zm27 7c-9,9 -15,20 -21,31 -4,8 -13,22 -7,31 1,2 4,3 7,1 8,-3 9,-16 12,-24 4,-11 10,-21 18,-30 6,-6 -3,-16 -9,-9zm9 29c-8,10 -21,24 -23,37 -1,8 -5,16 2,23 6,4 12,0 11,-7 0,-5 3,-14 5,-18 4,-10 11,-19 17,-27 6,-8 -7,-15 -12,-8zm26 8c-7,12 -15,23 -21,35 -5,9 -11,21 -5,31 1,2 4,3 7,1 7,-7 8,-20 12,-28 6,-11 13,-21 19,-32 5,-8 -7,-14 -12,-7zm6 45c-11,23 -24,44 -29,69 -2,8 9,11 12,3 7,-23 18,-44 28,-66 3,-7 -8,-14 -11,-6zm-256 276c-2,17 -15,31 -15,49 0,3 4,4 6,2 7,-6 7,-17 10,-25 3,-9 7,-17 8,-26 0,-6 -9,-6 -9,0zm22 19c-4,12 -10,23 -15,35 -4,10 -9,23 -3,33 2,2 4,1 5,0 6,-8 6,-20 9,-30 4,-12 10,-23 15,-35 2,-7 -8,-9 -11,-3zm29 10c-8,10 -9,25 -15,37 -5,10 -11,24 -7,36 1,3 4,4 7,2 7,-8 7,-22 12,-31 2,-4 3,-9 5,-13 3,-7 3,-16 8,-22 5,-7 -4,-16 -10,-9zm17 47c-4,11 -18,33 -10,45 2,1 4,2 6,0 4,-5 4,-13 7,-20 2,-7 6,-14 9,-22 3,-7 -9,-10 -12,-3zm34 -2c-5,10 -10,20 -15,30 -3,8 -8,17 -3,25 1,2 4,2 6,1 6,-5 7,-15 10,-22 4,-10 9,-18 14,-27 3,-8 -8,-14 -12,-7zm39 -18c-8,13 -15,27 -22,40 -8,14 -11,30 -18,45 -4,9 8,17 14,8 9,-14 10,-30 17,-45 7,-14 13,-28 21,-41 5,-8 -7,-15 -12,-7zm34 -13c-10,20 -21,40 -32,60 -6,12 -24,37 -14,50 2,3 5,4 8,2 7,-3 8,-8 9,-16 3,-11 8,-22 13,-32 8,-20 18,-38 27,-57 4,-8 -7,-14 -11,-7zm20 19c-1,10 -7,19 -12,27 -5,9 -9,18 -14,26 -5,7 -8,15 -11,22 -4,8 -9,15 -9,24 0,4 5,6 9,4 15,-7 19,-32 27,-46 5,-10 10,-21 15,-31 4,-8 7,-17 8,-26 0,-8 -12,-8 -13,0z"/>
 </g>
</svg>
