<?xml version="1.0" encoding="UTF-8"?>
<!DOCTYPE svg PUBLIC "-//W3C//DTD SVG 1.1//EN" "http://www.w3.org/Graphics/SVG/1.1/DTD/svg11.dtd">
<!-- Creator: CorelDRAW X7 -->
<svg xmlns="http://www.w3.org/2000/svg" xml:space="preserve" width="46mm" height="23mm" version="1.1" style="shape-rendering:geometricPrecision; text-rendering:geometricPrecision; image-rendering:optimizeQuality; fill-rule:evenodd; clip-rule:evenodd"
viewBox="0 0 4600 2300"
 xmlns:xlink="http://www.w3.org/1999/xlink">
 <defs>
  <style type="text/css">
   <![CDATA[
    .fil1 {fill:white}
    .fil2 {fill:black;fill-rule:nonzero}
    .fil0 {fill:black;fill-rule:nonzero}
   ]]>
  </style>
 </defs>
 <g id="Layer_x0020_1">
  <metadata id="CorelCorpID_0Corel-Layer"/>
  <g id="_1680716972672">
   <path class="fil0" d="M2366 777c0,0 0,0 0,1 -2,-17 -8,-33 -19,-48 -16,-20 -41,-23 -63,-12 -21,11 -35,35 -41,57 -2,7 -3,14 -4,23 -2,-8 -3,-15 -5,-22 -5,-28 -8,-55 -7,-83 0,-23 11,-51 0,-72 1,-4 2,-9 2,-13 7,-30 26,-49 56,-55 23,-4 49,8 62,28 16,25 19,58 21,86 3,37 2,73 -2,110zm-35 73c-20,14 -46,19 -65,2 -4,-3 -7,-7 -10,-11 2,0 4,-2 4,-4 -2,-24 -1,-48 11,-69 9,-17 33,-40 50,-18 18,22 9,54 13,80 1,5 3,9 6,12 -3,3 -6,6 -9,8zm-157 -174c-1,10 -1,21 -3,32 -6,-1 -13,0 -18,4 -10,0 -19,3 -28,7 -18,6 -36,11 -54,17 -13,4 -25,8 -38,12 1,-17 1,-34 2,-51 1,-22 -2,-44 1,-65 5,-37 33,-70 71,-72 36,-2 55,27 63,57 4,19 4,38 4,59zm-184 17c2,22 3,46 13,66 -14,5 -29,10 -43,15 -31,11 -60,25 -89,40 3,-25 1,-50 0,-76 -1,-40 -1,-80 0,-119 1,-41 4,-82 4,-122 1,-39 0,-78 -3,-117 -2,-35 -8,-72 -3,-108 4,-29 15,-62 40,-79 22,-14 50,-15 72,-2 24,15 30,48 32,75 3,47 -5,94 -5,141 0,25 1,50 1,75 0,13 0,25 0,37 0,12 4,23 8,33 -13,16 -22,34 -27,54 -7,29 -3,58 0,87zm605 451c-2,-19 -5,-37 -9,-55 -4,-20 -5,-40 -7,-60 -4,-40 -5,-81 -7,-121 -2,-40 -5,-81 -4,-122 1,-39 3,-79 4,-118 0,-41 -3,-81 -4,-121 -1,-35 2,-69 5,-104 3,-31 2,-63 -9,-91 -12,-31 -35,-54 -66,-65 -29,-9 -60,-4 -86,8 -29,13 -49,39 -59,68 -11,30 -7,64 -3,95 2,17 5,33 9,50 1,4 1,9 1,14 -43,-30 -109,-20 -144,19 -5,6 -9,13 -13,19 -20,-32 -55,-53 -96,-53 -17,0 -33,5 -48,12 1,-6 1,-12 1,-18 1,-21 2,-41 2,-62 1,-18 1,-37 1,-55 1,-20 4,-40 5,-60 5,-70 2,-158 -75,-187 -31,-12 -67,-7 -96,7 -29,15 -49,43 -61,73 -15,34 -17,72 -14,109 2,39 6,77 8,115 2,69 -5,138 -5,206 -1,34 2,67 4,101 2,29 7,57 10,86 -23,16 -43,35 -56,60 -34,68 -10,150 2,221 7,38 18,74 35,109 15,31 37,57 56,85 16,22 31,44 43,69 11,26 15,54 14,82 -1,14 11,25 25,25 14,0 23,-11 24,-25 10,-78 -31,-145 -78,-204 -21,-25 -38,-54 -49,-84 -13,-37 -18,-76 -26,-114 -8,-36 -17,-73 -14,-110 3,-31 21,-55 45,-73 61,-45 135,-63 204,-92 19,-8 38,-16 57,-24 8,-4 16,-9 24,-13 5,9 12,17 16,27 6,10 1,26 0,37 -1,22 -7,41 -25,54 -18,14 -39,21 -60,27 -20,5 -41,7 -58,19 -24,16 -30,45 -13,69 15,20 37,31 58,45 21,16 38,38 55,58 9,11 18,22 26,33 5,6 9,12 13,18 3,3 8,8 9,12 2,11 19,8 19,-3 0,-5 2,-9 1,-14 0,-6 -2,-13 -4,-19 -6,-13 -14,-27 -22,-38 -16,-23 -32,-46 -51,-67 -17,-18 -38,-30 -57,-46 -2,-2 -5,-5 -7,-8 5,-3 13,-5 21,-6 45,-9 94,-27 123,-65 6,-9 11,-18 14,-28 10,22 25,42 47,55 31,18 68,12 99,-3 69,-33 78,-118 77,-185 0,-55 -1,-117 -33,-162 1,-2 1,-4 1,-6 1,-9 1,-19 1,-28 1,-19 -1,-38 -3,-57 -3,-30 -6,-61 3,-90 16,-47 84,-65 113,-22 16,23 17,51 15,79 -1,14 -2,28 -4,42 -2,20 -2,39 -2,59 0,40 3,80 2,120 0,40 -3,80 -4,119 -3,66 2,133 4,199 1,32 4,65 7,97 3,32 11,64 16,96 9,50 -3,102 -36,141 -40,48 -106,51 -163,59 -12,1 -16,18 -3,22 18,5 36,9 54,11 21,2 41,-2 61,-7 2,0 4,-1 6,-2 0,2 0,4 -1,5 -3,14 -3,30 -3,45 -1,15 -2,30 0,44 4,26 48,26 52,0 4,-27 -3,-55 0,-82 1,-10 0,-20 1,-30 0,-2 1,-3 1,-5 12,-8 23,-18 32,-28 24,-26 40,-57 49,-91 8,-34 7,-68 3,-102zm-619 -964c-2,2 -4,4 -6,6 -2,2 -3,5 -5,7 -2,5 -6,9 -5,14 0,2 3,2 4,1 4,-2 6,-7 9,-10 1,-2 3,-4 3,-6 1,-2 2,-3 2,-5 1,-1 1,-3 2,-4 2,-3 -2,-5 -4,-3zm17 14c-3,2 -5,4 -7,6 -2,3 -3,5 -6,7 -5,3 -10,8 -11,14 0,3 3,5 5,3 5,-3 8,-8 13,-11 2,-2 3,-5 4,-7 2,-3 4,-5 6,-7 3,-3 -1,-8 -4,-5zm2 19c-9,8 -17,16 -24,25 -4,4 -10,12 -11,18 0,1 0,3 2,3 7,2 12,-7 15,-11 7,-10 15,-20 24,-29 3,-4 -2,-9 -6,-6zm-2 28c-4,8 -8,14 -14,20 -4,5 -12,11 -12,18 0,2 1,3 3,3 8,0 15,-9 19,-14 6,-7 11,-14 14,-23 2,-5 -8,-10 -10,-4zm6 22c-7,6 -14,13 -20,19 -7,7 -16,14 -17,24 -1,2 1,5 4,4 8,-3 13,-11 19,-17 7,-8 14,-15 21,-23 5,-5 -2,-12 -7,-7zm1 23c-9,15 -23,26 -35,38 -8,8 -21,19 -19,31 0,2 3,4 5,3 6,-2 9,-7 13,-12 5,-6 11,-12 17,-17 11,-11 22,-23 29,-37 3,-7 -6,-12 -10,-6zm8 37c-14,10 -27,21 -39,33 -13,12 -31,26 -39,42 -1,2 1,5 4,4 14,-7 25,-22 35,-33 14,-13 28,-27 43,-38 5,-4 1,-12 -4,-8zm-7 32c-12,11 -25,23 -37,34 -11,10 -26,20 -32,33 -1,4 2,7 5,5 13,-6 25,-20 36,-30 12,-11 25,-22 36,-34 6,-5 -3,-14 -8,-8zm-27 46c-10,8 -20,17 -29,27 -8,8 -21,19 -23,30 -1,3 1,6 4,5 11,-4 18,-16 25,-24 9,-10 19,-19 30,-27 6,-5 0,-16 -7,-11zm8 25c-3,7 -9,10 -14,15 -6,5 -12,11 -17,16 -6,6 -26,17 -22,28 1,2 3,3 4,2 6,-1 9,-6 14,-10 5,-4 10,-9 15,-14 6,-5 11,-11 17,-16 6,-4 11,-8 14,-15 3,-7 -7,-13 -11,-6zm7 20c-8,6 -15,13 -22,20 -7,7 -14,13 -19,20 -1,2 -1,5 0,7 6,9 14,-4 18,-8 9,-10 19,-20 30,-28 6,-5 0,-16 -7,-11zm-1 34l-17 18c-4,3 -11,7 -11,13 -1,6 7,11 10,4 1,-1 2,-2 3,-3 3,-2 5,-5 8,-7 5,-6 11,-11 16,-16 5,-6 -3,-15 -9,-9zm6 28c-8,8 -18,16 -25,25 -3,4 3,10 7,7 10,-7 17,-16 25,-25 5,-4 -2,-12 -7,-7zm6 22c-7,7 -13,15 -21,23 -4,5 -10,13 -4,19 1,1 3,1 4,0 3,-1 4,-3 6,-6 2,-2 5,-4 7,-7 6,-7 12,-14 18,-20 6,-6 -4,-16 -10,-9zm488 -201c0,0 0,0 0,0 0,-5 -8,-6 -9,-1 -2,4 -5,7 -7,11 -3,4 -6,8 -6,14 0,4 6,6 9,2 1,-2 3,-4 4,-6 2,-3 3,-5 5,-8 3,-3 4,-7 4,-12zm9 16c-8,9 -16,18 -23,27 -3,4 -2,12 4,11 3,0 4,-1 5,-3 9,-7 16,-19 23,-28 4,-5 -5,-12 -9,-7zm8 19c-3,5 -7,10 -11,15 -3,3 -6,6 -8,11 -1,3 2,7 6,7 5,0 8,-6 11,-9 5,-6 9,-12 13,-18 4,-7 -6,-13 -11,-6zm20 24c-4,7 -11,12 -17,17 -7,5 -12,12 -17,19 -4,7 6,13 11,8 7,-5 11,-13 18,-18 6,-6 13,-11 17,-19 4,-8 -8,-15 -12,-7zm-10 38c-9,6 -17,14 -24,21 -4,4 -8,8 -12,13 -3,3 -7,5 -9,10 -1,2 0,5 2,5 4,2 7,1 9,0 -6,6 -13,13 -20,19 -6,5 -17,12 -17,20 0,2 2,4 4,4 8,0 16,-10 21,-15 8,-7 16,-15 23,-22 5,-5 0,-12 -5,-10 2,-3 5,-6 7,-8 8,-9 17,-19 27,-26 7,-4 1,-15 -6,-11zm-32 66c-10,10 -20,19 -30,28 -7,6 3,16 9,10 10,-10 21,-19 31,-29 6,-6 -3,-15 -10,-9zm23 5c-12,11 -25,22 -34,36 -5,7 5,14 11,9 1,0 1,0 1,0 0,-1 0,-1 1,-1 10,-11 20,-23 31,-34 6,-7 -4,-17 -10,-10zm14 19c-12,9 -22,20 -32,31 -7,6 -21,19 -14,30 1,1 3,2 5,2 4,-2 6,-3 8,-7 3,-6 7,-10 11,-15 10,-10 19,-21 30,-30 6,-5 -2,-16 -8,-11zm6 31c-9,8 -18,17 -26,27 -5,6 -12,11 -11,20 0,4 2,6 5,7 8,2 9,-8 13,-12 10,-11 19,-22 29,-32 6,-7 -4,-17 -10,-10zm-9 39c-6,8 -13,16 -20,24 -6,7 -10,14 -9,24 1,5 10,8 13,3 0,0 0,0 0,0 1,-1 2,-2 2,-3 0,0 0,0 0,0 2,-7 5,-11 9,-17 5,-8 12,-15 18,-24 5,-8 -8,-15 -13,-7zm-3 39c-10,10 -21,22 -24,36 -2,8 9,11 12,3 4,-12 12,-21 20,-31 5,-5 -3,-13 -8,-8zm-6 44c-10,22 -21,41 -23,65 -1,4 4,5 6,3 7,-8 11,-20 14,-31 2,-11 10,-22 14,-32 2,-7 -8,-11 -11,-5zm-163 -115c-11,10 -23,22 -27,37 -1,3 2,4 4,3 11,-10 19,-23 29,-34 3,-4 -2,-9 -6,-6zm2 39c-6,6 -11,12 -17,18 -5,6 -11,12 -13,20 0,2 3,5 5,4 6,-5 10,-12 15,-17 6,-6 11,-12 17,-18 5,-4 -2,-11 -7,-7zm17 17c-12,12 -23,25 -35,37 -6,6 -19,16 -14,27 0,1 3,2 4,2 8,-4 15,-16 21,-22 11,-12 21,-24 32,-36 5,-5 -3,-13 -8,-8zm2 37c-7,10 -16,18 -26,27 -8,7 -18,16 -21,27 -2,4 4,7 7,4 9,-7 16,-17 25,-25 9,-9 17,-17 24,-28 4,-6 -5,-11 -9,-5zm7 43c-8,8 -16,14 -24,22 -7,6 -16,12 -18,21 -1,4 3,8 7,6 7,-5 14,-12 20,-18 8,-7 17,-14 25,-22 6,-6 -4,-15 -10,-9zm2 34c-8,9 -17,18 -25,27 -7,9 -15,17 -19,27 -2,4 4,8 7,6 9,-6 16,-14 23,-22 8,-10 16,-19 25,-27 7,-7 -4,-18 -11,-11zm-219 -171c-4,2 -7,4 -10,7 -3,3 -5,7 -9,10 -6,4 -13,14 -14,21 0,2 1,4 3,3 9,-2 9,-13 16,-17 2,-1 5,-3 7,-6 3,-5 6,-8 11,-11 4,-2 0,-9 -4,-7zm5 21c-5,11 -13,17 -21,25 -3,4 -5,8 -8,12 -2,3 -5,6 -7,10 -1,2 1,4 3,4 10,1 14,-12 19,-18 8,-10 17,-16 22,-28 3,-5 -5,-10 -8,-5zm10 25c-6,11 -16,18 -24,26 -6,6 -17,15 -18,24 0,2 2,4 4,4 10,0 16,-14 22,-20 9,-9 19,-17 25,-29 2,-5 -6,-10 -9,-5zm-10 42c-8,5 -14,11 -20,18 -4,5 -13,11 -11,19 0,2 3,2 4,2 3,-2 4,-4 6,-6 3,-3 6,-6 8,-9 5,-5 11,-12 17,-17 5,-3 0,-11 -4,-7zm-4 31c-6,6 -13,12 -20,19 -6,5 -15,10 -19,17 -1,2 1,4 3,4 8,-1 14,-8 20,-13 8,-7 15,-14 22,-22 4,-3 -2,-9 -6,-5zm-80 237c-6,16 -26,41 -19,59 0,2 3,3 4,1 5,-10 7,-21 11,-31 4,-9 8,-18 11,-27 1,-5 -6,-7 -7,-2zm17 14c-7,11 -14,21 -20,32 -4,9 -9,20 -4,29 1,2 4,2 5,0 3,-4 3,-6 4,-11 1,-7 4,-13 7,-19 4,-9 10,-18 15,-27 3,-5 -4,-9 -7,-4zm33 -11c-6,6 -8,13 -14,20 -5,7 -10,15 -16,23 -8,11 -21,34 -16,48 1,3 5,5 7,2 11,-11 12,-30 21,-43 5,-7 9,-15 13,-23 5,-7 7,-15 12,-22 3,-4 -3,-9 -7,-5zm32 5c-11,17 -22,34 -32,51 -8,13 -19,32 -15,48 1,3 4,3 6,0 4,-5 6,-12 8,-19 4,-9 9,-18 14,-26 9,-17 18,-33 27,-49 3,-5 -5,-10 -8,-5zm21 6c-3,10 -11,16 -15,25 -5,13 -11,25 -17,36 -11,18 -28,37 -27,58 1,4 4,6 7,3 3,-3 3,-4 5,-8 2,-7 4,-11 8,-17 6,-11 13,-23 19,-34 6,-10 10,-20 14,-31 4,-10 13,-18 16,-29 2,-6 -8,-9 -10,-3zm21 37c-13,19 -24,38 -34,59 -8,15 -20,39 -15,57 1,3 5,3 6,1 6,-8 7,-18 9,-27 3,-10 7,-20 12,-29 9,-19 19,-38 31,-56 3,-6 -5,-11 -9,-5zm27 18c-3,11 -11,21 -17,30 -8,11 -15,23 -21,35 -9,18 -26,42 -21,63 1,3 5,3 7,1 5,-9 7,-19 10,-29 5,-13 12,-25 18,-38 10,-20 27,-37 34,-59 2,-6 -8,-9 -10,-3zm18 34c-15,22 -28,46 -38,71 -5,12 -11,24 -16,36 -4,11 -10,22 -7,34 0,3 4,3 6,1 5,-10 8,-21 12,-31 5,-11 10,-22 14,-33 9,-26 22,-50 38,-73 3,-5 -5,-10 -9,-5zm-27 101c-10,19 -19,40 -23,61 -1,3 2,4 4,2 10,-19 17,-39 27,-59 2,-5 -5,-10 -8,-4zm75 -167c-5,16 -15,29 -19,46 0,2 4,4 5,2 8,-15 16,-30 22,-46 2,-5 -6,-7 -8,-2zm43 -18c-12,17 -22,38 -30,58 -6,16 -21,39 -14,57 0,2 4,3 5,1 3,-7 4,-15 7,-23 3,-9 8,-18 11,-28 8,-20 17,-43 28,-61 2,-5 -4,-8 -7,-4zm19 18c-5,15 -14,28 -21,42 -4,9 -12,24 -5,34 1,1 4,2 6,0 3,-4 3,-6 4,-12 1,-8 4,-16 8,-23 6,-13 13,-25 17,-39 2,-5 -7,-8 -9,-2zm17 26c-5,8 -8,17 -12,25 -3,6 -6,11 -6,18 0,4 5,6 8,4 1,0 2,-1 2,-1 2,-1 2,-4 1,-5 1,-5 4,-11 7,-16 3,-6 6,-13 10,-19 4,-6 -6,-12 -10,-6zm32 0c-4,7 -34,47 -17,51 7,2 9,-13 11,-18 5,-9 12,-18 17,-27 4,-7 -7,-13 -11,-6zm24 11c-3,7 -9,14 -13,21 -2,6 -7,20 4,20 3,0 4,-2 5,-5 1,-4 2,-7 4,-11 4,-7 10,-14 13,-21 3,-8 -10,-12 -13,-4zm29 9c-8,11 -17,22 -23,35 -3,7 6,12 11,6 8,-11 15,-23 23,-35 4,-7 -7,-13 -11,-6zm26 6c-9,9 -15,19 -20,30 -4,8 -13,21 -8,29 2,3 5,3 7,2 8,-3 9,-16 12,-23 4,-11 10,-21 18,-29 5,-6 -4,-15 -9,-9zm8 28c-7,10 -20,23 -21,35 -2,8 -6,16 2,22 5,5 11,0 10,-6 -1,-5 3,-13 5,-17 4,-10 10,-18 16,-27 6,-7 -7,-14 -12,-7zm25 8c-6,11 -14,22 -20,33 -5,9 -11,21 -5,30 1,2 5,3 7,1 7,-7 8,-19 12,-27 5,-11 12,-20 18,-30 4,-8 -7,-15 -12,-7zm6 43c-10,22 -23,42 -28,66 -2,8 9,11 12,4 7,-23 18,-43 27,-64 3,-7 -8,-14 -11,-6zm-247 266c-2,16 -14,30 -14,47 0,3 4,4 6,2 7,-6 6,-16 9,-24 3,-8 7,-17 8,-25 0,-6 -8,-6 -9,0zm22 18c-5,12 -10,23 -15,34 -3,10 -8,22 -2,32 1,1 3,1 4,0 6,-8 6,-20 9,-29 4,-11 9,-22 14,-34 2,-6 -8,-9 -10,-3zm28 10c-8,10 -9,24 -15,35 -4,11 -11,24 -7,35 1,3 4,4 7,2 7,-8 7,-21 11,-30 2,-4 4,-8 6,-12 2,-7 2,-16 7,-21 5,-7 -4,-16 -9,-9zm16 45c-4,11 -18,32 -9,43 1,2 3,3 5,1 4,-5 4,-13 6,-19 3,-8 7,-15 10,-22 3,-7 -9,-10 -12,-3zm33 -1c-5,9 -10,19 -14,28 -4,8 -8,17 -4,24 2,3 4,3 6,1 6,-5 7,-15 10,-21 3,-9 8,-18 13,-26 3,-7 -7,-13 -11,-6zm37 -18c-8,12 -14,26 -21,39 -8,13 -11,29 -17,43 -4,9 8,16 13,8 9,-14 9,-30 17,-44 6,-13 12,-27 20,-39 5,-8 -7,-15 -12,-7zm33 -12c-10,19 -21,38 -31,57 -6,11 -22,36 -13,49 2,2 4,3 7,2 7,-4 8,-9 9,-16 3,-11 8,-21 13,-31 8,-19 17,-37 26,-55 3,-7 -7,-13 -11,-6zm20 18c-1,9 -8,18 -12,26 -5,8 -9,17 -14,25 -4,7 -7,14 -11,21 -4,7 -8,15 -8,23 0,4 5,6 8,5 16,-8 19,-32 27,-46 5,-9 9,-19 14,-29 4,-8 7,-16 8,-25 0,-8 -12,-8 -12,0z"/>
   <ellipse class="fil1" cx="2222" cy="1438" rx="556" ry="511"/>
   <polygon class="fil2" points="974,1063 641,1850 380,1850 47,1063 333,1063 520,1523 713,1063 "/>
   <path id="1" class="fil2" d="M1508 1713l-299 0 -53 137 -270 0 344 -787 261 0 344 787 -274 0 -53 -137zm-73 -191l-77 -198 -76 198 153 0z"/>
   <path id="2" class="fil2" d="M2171 1868c-65,0 -128,-7 -190,-22 -62,-15 -113,-34 -153,-59l86 -193c37,21 79,39 126,52 46,13 91,20 134,20 36,0 62,-4 78,-11 16,-7 24,-18 24,-32 0,-17 -10,-29 -31,-37 -21,-8 -55,-17 -102,-27 -61,-13 -111,-27 -152,-41 -40,-15 -75,-39 -105,-72 -30,-34 -45,-79 -45,-136 0,-49 14,-94 41,-135 28,-40 69,-72 125,-95 55,-24 122,-35 200,-35 54,0 107,6 159,17 52,12 98,29 138,51l-80 193c-77,-39 -150,-59 -219,-59 -68,0 -102,17 -102,50 0,15 10,27 30,35 20,8 54,16 100,25 60,12 111,25 152,39 41,15 77,39 107,72 31,33 46,78 46,135 0,49 -14,94 -42,134 -27,40 -69,72 -124,96 -55,23 -122,35 -201,35z"/>
   <polygon id="3" class="fil2" points="3319,1850 3317,1491 3146,1779 3029,1779 2858,1504 2858,1850 2617,1850 2617,1063 2835,1063 3091,1482 3341,1063 3559,1063 3561,1850 "/>
   <path id="4" class="fil2" d="M4226 1713l-299 0 -53 137 -270 0 344 -787 261 0 344 787 -274 0 -53 -137zm-73 -191l-77 -198 -76 198 153 0z"/>
   <polygon class="fil1" points="1358,1324 1565,1850 1502,1850 1329,1399 "/>
   <polygon class="fil1" points="4076,1324 4283,1850 4219,1850 4047,1400 "/>
   <path class="fil2" d="M64 2019l75 0 0 20c0,3 0,5 -2,6 -1,2 -3,3 -5,3 -3,0 -4,-1 -6,-3 -1,-1 -2,-3 -2,-6l0 -4 -15 0 0 94c0,3 -1,5 -2,6 -1,2 -3,3 -5,3 -3,0 -5,-1 -6,-3 -1,-1 -2,-3 -2,-6l0 -94 -15 0 0 4c0,3 -1,5 -2,6 -1,2 -3,3 -6,3 -2,0 -4,-1 -5,-3 -2,-1 -2,-3 -2,-6l0 -20z"/>
   <path id="1" class="fil2" d="M192 2028l0 36 11 -7c0,0 1,-1 1,-1 4,-3 9,-5 14,-5l9 0c6,0 12,3 16,7 4,4 7,10 7,16l2 55 0 0c0,3 -1,5 -2,6 -2,2 -3,3 -5,3 -3,0 -5,-1 -6,-3 -2,-1 -2,-3 -2,-6l-2 -55c0,-2 -1,-4 -3,-5 -1,-2 -3,-2 -5,-2l-10 0c0,0 -1,0 -2,0 -1,1 -2,1 -3,2l-20 14 0 46c0,3 -1,5 -2,6 -2,2 -4,3 -6,3 -2,0 -4,-1 -5,-3 -2,-1 -2,-3 -2,-6l0 -101c0,-3 0,-5 2,-6 1,-2 3,-3 5,-3 2,0 4,1 6,3 1,1 2,3 2,6z"/>
   <path id="2" class="fil2" d="M319 2067c-1,0 -2,0 -3,0 -1,0 -1,1 -2,2l-7 5c-1,1 -1,1 -2,2 0,1 0,3 0,4l0 10 44 0 0 -10c0,-1 0,-3 0,-4 -1,-1 -1,-1 -2,-2l-7 -5c-1,-1 -1,-2 -2,-2 -1,0 -2,0 -3,0l-16 0zm-1 -16l17 0c3,0 5,1 8,2 3,1 5,2 7,4l7 5c2,2 4,5 6,8 1,3 2,6 2,10l0 18c0,2 -1,4 -3,5 -1,2 -3,2 -6,2l-51 0 0 4c0,2 0,3 0,4 1,1 1,1 2,2l7 6c1,0 1,1 2,1 1,0 2,0 3,0l37 0c3,0 5,1 6,2 2,2 3,4 3,6 0,2 -1,4 -3,5 -1,2 -3,3 -6,3l-38 0c-2,0 -5,-1 -7,-2 -2,-1 -5,-2 -7,-4l-7 -5c-2,-2 -4,-5 -6,-8 -1,-3 -2,-6 -2,-10l0 -29c0,-4 1,-7 2,-10 2,-3 4,-6 6,-8l7 -5c2,-2 5,-3 7,-4 2,-1 5,-2 7,-2z"/>
   <path id="3" class="fil2" d="M474 2028l0 23 22 59 23 -59 0 -23c0,-3 0,-5 2,-6 1,-2 3,-3 5,-3 2,0 4,1 6,3 1,1 2,3 2,6l0 26 -30 77c-1,3 -2,4 -3,5 -2,1 -3,2 -5,2 -2,0 -3,-1 -5,-2 -1,-1 -2,-3 -3,-5l-30 -77 0 -26c0,-3 1,-5 2,-6 2,-2 4,-3 6,-3 2,0 4,1 5,3 2,1 3,3 3,6z"/>
   <path id="4" class="fil2" d="M600 2067c0,0 -1,0 -2,0 -1,0 -2,1 -2,2l-7 5c-1,1 -1,1 -2,2 0,1 -1,3 -1,4l0 10 45 0 0 -10c0,-1 0,-3 -1,-4 0,-1 -1,-1 -1,-2l-7 -5c-1,-1 -2,-2 -2,-2 -1,0 -2,0 -3,0l-17 0zm0 -16l17 0c3,0 5,1 8,2 2,1 5,2 7,4l6 5c3,2 5,5 6,8 2,3 3,6 3,10l0 18c0,2 -1,4 -3,5 -1,2 -3,2 -6,2l-52 0 0 4c0,2 1,3 1,4 1,1 1,1 2,2l7 6c0,0 1,1 2,1 1,0 1,0 2,0l38 0c3,0 5,1 6,2 2,2 3,4 3,6 0,2 -1,4 -3,5 -1,2 -3,3 -6,3l-38 0c-2,0 -5,-1 -7,-2 -3,-1 -5,-2 -7,-4l-7 -5c-2,-2 -4,-5 -6,-8 -1,-3 -2,-6 -2,-10l0 -29c0,-4 1,-7 2,-10 2,-3 4,-6 6,-8l7 -5c2,-2 4,-3 7,-4 2,-1 5,-2 7,-2z"/>
   <path id="5" class="fil2" d="M699 2060l0 5 9 -6 1 -1c6,-4 12,-7 18,-7l7 0c8,0 14,3 17,8 4,4 6,11 7,21l1 49 0 0c0,3 0,5 -2,6 -1,2 -3,3 -5,3 -3,0 -4,-1 -6,-3 -1,-1 -2,-3 -2,-6l-2 -49c0,-5 -1,-8 -2,-10 -2,-2 -4,-3 -7,-3l-5 0c-3,0 -7,1 -11,4l0 0 -18 12 0 46c0,3 -1,5 -2,6 -1,2 -3,3 -6,3 -2,0 -4,-1 -5,-3 -2,-1 -2,-3 -2,-6l0 -69c0,-3 0,-5 2,-6 1,-2 3,-3 5,-3 3,0 4,1 6,3 1,1 2,4 2,6z"/>
   <path id="6" class="fil2" d="M812 2060l2 50c0,4 1,7 2,9 2,2 4,3 7,3l5 0c3,0 6,-1 10,-4 0,0 1,0 1,0l18 -12 0 -46c0,-3 0,-5 2,-6 1,-2 3,-3 5,-3 3,0 4,1 6,3 1,1 2,4 2,6l0 69c0,3 -1,5 -2,6 -2,2 -3,3 -6,3 -2,0 -4,-1 -5,-3 -2,-1 -2,-3 -2,-6l0 -5 -9 6 0 1c-7,4 -13,7 -19,7l-7 0c-8,0 -14,-3 -18,-7 -3,-5 -6,-12 -6,-22l-1 -49 0 0c0,-3 0,-5 2,-6 1,-2 3,-3 5,-3 2,0 4,1 6,3 1,1 2,3 2,6z"/>
   <path id="7" class="fil2" d="M939 2067c-1,0 -2,0 -3,0 -1,0 -1,1 -2,2l-7 5c-1,1 -1,1 -2,2 0,1 0,3 0,4l0 10 44 0 0 -10c0,-1 0,-3 0,-4 -1,-1 -1,-1 -2,-2l-7 -5c-1,-1 -1,-2 -2,-2 -1,0 -2,0 -3,0l-16 0zm-1 -16l17 0c3,0 5,1 8,2 3,1 5,2 7,4l7 5c2,2 4,5 6,8 1,3 2,6 2,10l0 18c0,2 -1,4 -3,5 -1,2 -3,2 -6,2l-51 0 0 4c0,2 0,3 0,4 1,1 1,1 2,2l7 6c1,0 1,1 2,1 1,0 2,0 3,0l37 0c3,0 5,1 6,2 2,2 3,4 3,6 0,2 -1,4 -3,5 -1,2 -3,3 -6,3l-38 0c-2,0 -5,-1 -7,-2 -2,-1 -5,-2 -7,-4l-7 -5c-2,-2 -4,-5 -6,-8 -1,-3 -2,-6 -2,-10l0 -29c0,-4 1,-7 2,-10 2,-3 4,-6 6,-8l7 -5c2,-2 5,-3 7,-4 2,-1 5,-2 7,-2z"/>
   <path id="8" class="fil2" d="M1045 2084l30 0c2,0 4,1 5,2 2,2 2,4 2,6l0 37c0,3 0,5 -2,6 -1,2 -3,3 -5,3 -3,0 -4,-1 -6,-3 -1,-1 -2,-3 -2,-6l0 -30 -22 0c-2,0 -4,-1 -6,-2 -1,-1 -2,-3 -2,-6 0,-2 1,-4 2,-5 2,-2 4,-2 6,-2z"/>
   <path id="9" class="fil2" d="M1229 2054l-13 43 25 0 -12 -43zm8 -26l29 99c0,1 0,1 0,2 0,0 0,1 0,1 0,2 0,4 -2,5 -1,2 -3,3 -5,3 -2,0 -3,-1 -5,-2 -1,-1 -2,-3 -3,-5l-5 -19 -34 0 -6 19c0,2 -1,4 -3,5 -1,1 -2,2 -4,2 -2,0 -4,-1 -6,-3 -1,-1 -2,-3 -2,-5 0,-1 0,-1 0,-2 0,0 0,-1 1,-1l28 -99c1,-3 2,-5 4,-7 1,-1 3,-2 5,-2 2,0 4,1 5,2 1,1 2,4 3,7z"/>
   <path id="10" class="fil2" d="M1319 2060l0 8 13 -11c2,-2 4,-3 7,-4 2,-1 5,-2 7,-2l10 0c7,0 12,3 17,7 4,5 6,10 6,16l0 4c0,2 0,4 -2,6 -1,1 -3,2 -5,2 -3,0 -4,-1 -6,-2 -1,-2 -2,-4 -2,-6l0 -4c0,-2 -1,-4 -2,-5 -2,-2 -4,-2 -6,-2l-10 0c0,0 -1,0 -2,0 -2,1 -2,1 -3,2l-22 19 0 41c0,3 -1,5 -2,6 -1,2 -3,3 -6,3 -2,0 -4,-1 -5,-3 -2,-1 -2,-3 -2,-6l0 -69c0,-3 0,-5 2,-6 1,-2 3,-3 5,-3 3,0 5,1 6,3 1,1 2,3 2,6z"/>
   <path id="11" class="fil2" d="M1447 2034l0 17 29 0c3,0 5,1 6,3 2,1 3,3 3,5 0,2 -1,4 -3,6 -1,1 -4,2 -6,2l-29 0 0 48c0,2 1,4 2,5 1,2 3,2 5,2l15 0c2,0 3,0 5,-1 1,-1 2,-2 3,-4 0,0 0,-1 0,-1 1,-5 4,-7 7,-7 2,0 4,1 6,2 1,2 2,4 2,6 0,5 -2,10 -7,14 -4,4 -10,7 -16,7l-15 0c-6,0 -11,-3 -16,-7 -4,-5 -7,-10 -7,-16l0 -48 -6 0c-3,0 -5,-1 -6,-2 -2,-2 -2,-4 -2,-6 0,-2 0,-4 2,-5 2,-2 4,-3 6,-3l6 0 0 -17c0,-2 1,-5 3,-6 1,-2 3,-2 5,-2 2,0 4,1 6,2 1,2 2,4 2,6z"/>
   <path id="12" class="fil2" d="M1545 2051l21 0c3,0 5,1 6,3 2,1 3,3 3,5l0 63 14 0c2,0 4,1 6,2 1,2 2,4 2,6 0,2 -1,4 -2,5 -2,2 -4,3 -6,3l-44 0c-2,0 -4,-1 -6,-3 -1,-1 -2,-3 -2,-5 0,-2 1,-4 2,-6 2,-1 4,-2 6,-2l14 0 0 -55 -14 0c-2,0 -4,-1 -6,-2 -2,-2 -2,-4 -2,-6 0,-2 1,-4 2,-5 2,-2 4,-3 6,-3zm15 -38l8 0c1,0 3,1 4,2 2,2 3,4 3,6l0 6c0,2 -1,4 -3,6 -1,1 -3,2 -6,2l-6 0c-2,0 -4,-1 -6,-2 -2,-2 -2,-4 -2,-6l0 -6c0,-3 0,-4 2,-6 2,-1 4,-2 6,-2z"/>
   <path id="13" class="fil2" d="M1663 2051l33 0c5,0 9,2 13,5 5,3 7,6 7,10 0,2 -1,3 -3,5 -1,1 -3,2 -5,2 -2,0 -4,-1 -6,-3 -2,-2 -4,-3 -6,-3l-33 0c-1,0 -2,0 -3,1 -1,1 -1,2 -1,4 0,0 0,1 1,2 0,0 1,1 2,1l41 18c4,2 8,5 10,9 3,3 4,8 4,12 0,7 -2,12 -7,17 -4,4 -10,7 -16,7l-30 0c-5,0 -10,-2 -15,-5 -5,-3 -7,-6 -7,-9 0,-3 1,-4 2,-6 2,-1 3,-2 5,-2 2,0 4,1 7,3 3,2 6,3 8,3l30 0c2,0 4,-1 6,-2 1,-2 2,-3 2,-6 0,-1 0,-3 -1,-4 -1,-1 -2,-2 -4,-3l-41 -18c-4,-1 -7,-4 -9,-7 -2,-3 -3,-7 -3,-11 0,-5 2,-10 5,-14 4,-4 9,-6 14,-6z"/>
   <path id="14" class="fil2" d="M1785 2034l0 17 29 0c3,0 5,1 6,3 2,1 3,3 3,5 0,2 -1,4 -3,6 -1,1 -3,2 -6,2l-29 0 0 48c0,2 1,4 2,5 2,2 3,2 5,2l16 0c1,0 3,0 4,-1 1,-1 2,-2 3,-4 0,0 0,-1 0,-1 2,-5 4,-7 8,-7 2,0 3,1 5,2 1,2 2,4 2,6 0,5 -2,10 -7,14 -4,4 -10,7 -16,7l-15 0c-6,0 -11,-3 -16,-7 -4,-5 -6,-10 -6,-16l0 -48 -7 0c-2,0 -4,-1 -6,-2 -2,-2 -2,-4 -2,-6 0,-2 0,-4 2,-5 2,-2 4,-3 6,-3l7 0 0 -17c0,-2 0,-5 2,-6 1,-2 3,-2 5,-2 3,0 4,1 6,2 1,2 2,4 2,6z"/>
   <path id="15" class="fil2" d="M1946 2099c-1,0 -3,1 -5,2 -1,2 -2,3 -2,5l0 9c0,2 1,4 2,5 2,2 4,2 6,2l20 0 16 -9 0 -7c0,-2 0,-4 -2,-5 -1,-1 -3,-2 -5,-2l-30 0zm1 -48l27 0c7,0 12,3 16,7 5,4 7,10 7,16l2 55 0 0c0,3 0,5 -2,6 -1,2 -3,3 -5,3 -2,0 -4,-1 -5,-2 -2,-2 -3,-4 -3,-6l-9 6c-1,0 -2,1 -3,1 -2,0 -3,1 -4,1l-21 0c-7,0 -12,-3 -17,-7 -4,-5 -6,-10 -6,-16l0 -9c0,-6 2,-11 7,-16 4,-4 9,-6 16,-6l29 0c1,0 2,0 3,0 1,0 2,0 3,1l0 -11c0,-2 -1,-4 -2,-5 -2,-2 -3,-2 -6,-2l-27 0c-2,0 -4,-1 -6,-2 -1,-2 -2,-3 -2,-6 0,-2 1,-4 2,-5 2,-2 4,-3 6,-3z"/>
   <path id="16" class="fil2" d="M2052 2060l0 5 9 -6 0 -1c7,-4 13,-7 19,-7l7 0c7,0 13,3 17,8 4,4 6,11 6,21l2 49 0 0c0,3 -1,5 -2,6 -2,2 -3,3 -6,3 -2,0 -4,-1 -5,-3 -1,-1 -2,-3 -2,-6l-2 -49c0,-5 -1,-8 -3,-10 -1,-2 -4,-3 -7,-3l-5 0c-2,0 -6,1 -10,4l0 0 -18 12 0 46c0,3 -1,5 -2,6 -2,2 -4,3 -6,3 -2,0 -4,-1 -5,-3 -2,-1 -2,-3 -2,-6l0 -69c0,-3 0,-5 2,-6 1,-2 3,-3 5,-3 2,0 4,1 6,3 1,1 2,4 2,6z"/>
   <path id="17" class="fil2" d="M2177 2067c-1,0 -3,0 -5,2 0,0 0,0 0,0l-5 4c-1,1 -1,1 -2,2 0,1 0,2 0,3l0 33c0,1 0,2 0,3 1,1 1,2 2,2l5 4c0,0 0,0 0,0 2,2 4,2 5,2l12 0c1,0 2,0 3,0 0,-1 1,-1 2,-2l13 -10c1,-1 1,-2 2,-3 0,-1 0,-2 0,-3l0 -19c0,-1 0,-2 0,-3 -1,-1 -1,-2 -2,-3l-13 -10c-1,-1 -1,-1 -2,-2 -1,0 -2,0 -3,0l-12 0zm48 -39l0 101c0,3 -1,5 -2,6 -2,2 -4,3 -6,3 -2,0 -4,-1 -6,-3 -1,-1 -2,-3 -2,-6l0 -2 -5 5c-2,2 -5,3 -7,4 -3,1 -5,2 -8,2l-12 0c-2,0 -5,-1 -7,-2 -3,-1 -5,-2 -7,-4l-6 -4c-2,-2 -4,-4 -6,-7 -1,-4 -2,-7 -2,-10l0 -33c0,-3 1,-6 2,-10 2,-3 4,-5 6,-7l6 -4c2,-2 4,-3 6,-4 3,-1 5,-2 8,-2l12 0c3,0 5,1 8,2 2,1 5,2 7,4l5 5 0 -34c0,-3 1,-5 2,-6 2,-2 4,-3 6,-3 2,0 4,1 6,3 1,1 2,3 2,6z"/>
   <path id="18" class="fil2" d="M2335 2019l38 0c6,0 11,2 15,6 4,4 6,9 6,14 0,3 -1,5 -2,6 -2,2 -4,3 -6,3 -2,0 -4,-1 -5,-2 -1,-1 -2,-4 -3,-7 0,-1 -1,-2 -2,-3 -1,-1 -2,-1 -3,-1l-38 0c0,0 0,0 -1,0 0,1 0,1 0,1 0,1 0,1 0,1 0,0 0,1 0,1l55 70c2,2 3,5 4,6 0,2 1,4 1,6 0,5 -2,9 -5,13 -4,3 -8,5 -12,5l-38 0c-6,0 -10,-2 -14,-7 -5,-4 -7,-8 -7,-13 0,-3 1,-5 2,-6 2,-2 4,-3 6,-3 2,0 4,1 5,2 1,1 2,4 3,7 0,1 1,2 2,3 1,1 2,1 3,1l38 0c0,0 1,0 1,0 0,-1 1,-1 1,-2 0,0 -1,0 -1,0 0,0 0,-1 0,-1l-55 -70c-2,-3 -3,-5 -4,-7 0,-1 -1,-3 -1,-6 0,-4 2,-8 5,-12 4,-3 8,-5 12,-5z"/>
   <path id="19" class="fil2" d="M2462 2034l0 17 29 0c2,0 4,1 6,3 1,1 2,3 2,5 0,2 -1,4 -2,6 -2,1 -4,2 -6,2l-29 0 0 48c0,2 0,4 2,5 1,2 3,2 5,2l15 0c2,0 3,0 4,-1 1,-1 2,-2 3,-4 0,0 0,-1 1,-1 1,-5 3,-7 7,-7 2,0 4,1 5,2 2,2 2,4 2,6 0,5 -2,10 -6,14 -5,4 -10,7 -16,7l-15 0c-6,0 -12,-3 -16,-7 -5,-5 -7,-10 -7,-16l0 -48 -6 0c-3,0 -5,-1 -7,-2 -1,-2 -2,-4 -2,-6 0,-2 1,-4 2,-5 2,-2 4,-3 7,-3l6 0 0 -17c0,-2 1,-5 2,-6 2,-2 3,-2 6,-2 2,0 4,1 5,2 2,2 3,4 3,6z"/>
   <path id="20" class="fil2" d="M2559 2060l2 50c0,4 1,7 3,9 1,2 4,3 7,3l5 0c2,0 5,-1 9,-4 1,0 1,0 1,0l18 -12 0 -46c0,-3 1,-5 2,-6 1,-2 3,-3 6,-3 2,0 4,1 5,3 2,1 2,4 2,6l0 69c0,3 0,5 -2,6 -1,2 -3,3 -5,3 -3,0 -4,-1 -6,-3 -1,-1 -2,-3 -2,-6l0 -5 -9 6 0 1c-7,4 -13,7 -19,7l-7 0c-8,0 -13,-3 -17,-7 -4,-5 -6,-12 -7,-22l-1 -49 0 0c0,-3 1,-5 2,-6 1,-2 3,-3 5,-3 3,0 5,1 6,3 1,1 2,3 2,6z"/>
   <path id="21" class="fil2" d="M2684 2067c-1,0 -3,0 -5,2 0,0 0,0 0,0l-5 4c-1,1 -1,1 -2,2 0,1 0,2 0,3l0 33c0,1 0,2 0,3 1,1 1,2 2,2l5 4c0,0 0,0 0,0 2,2 4,2 5,2l12 0c1,0 2,0 3,0 1,-1 2,-1 3,-2l12 -10c1,-1 2,-2 2,-3 0,-1 1,-2 1,-3l0 -19c0,-1 -1,-2 -1,-3 0,-1 -1,-2 -2,-3l-12 -10c-1,-1 -2,-1 -3,-2 -1,0 -2,0 -3,0l-12 0zm48 -39l0 101c0,3 -1,5 -2,6 -2,2 -4,3 -6,3 -2,0 -4,-1 -5,-3 -2,-1 -2,-3 -2,-6l0 -2 -6 5c-2,2 -4,3 -7,4 -2,1 -5,2 -8,2l-12 0c-2,0 -5,-1 -7,-2 -3,-1 -5,-2 -7,-4l-5 -4c-3,-2 -5,-4 -6,-7 -2,-4 -3,-7 -3,-10l0 -33c0,-3 1,-6 3,-10 1,-3 3,-5 6,-7l5 -4c2,-2 4,-3 7,-4 2,-1 5,-2 7,-2l12 0c3,0 6,1 8,2 3,1 5,2 7,4l6 5 0 -34c0,-3 0,-5 2,-6 1,-2 3,-3 5,-3 2,0 4,1 6,3 1,1 2,3 2,6z"/>
   <path id="22" class="fil2" d="M2785 2051l21 0c3,0 5,1 6,3 2,1 3,3 3,5l0 63 14 0c2,0 4,1 6,2 1,2 2,4 2,6 0,2 -1,4 -2,5 -2,2 -4,3 -6,3l-44 0c-2,0 -4,-1 -6,-3 -1,-1 -2,-3 -2,-5 0,-2 1,-4 2,-6 2,-1 4,-2 6,-2l14 0 0 -55 -14 0c-2,0 -4,-1 -6,-2 -2,-2 -2,-4 -2,-6 0,-2 1,-4 2,-5 2,-2 4,-3 6,-3zm15 -38l8 0c1,0 3,1 4,2 2,2 3,4 3,6l0 6c0,2 -1,4 -3,6 -1,1 -3,2 -6,2l-6 0c-2,0 -4,-1 -6,-2 -2,-2 -2,-4 -2,-6l0 -6c0,-3 0,-4 2,-6 2,-1 4,-2 6,-2z"/>
   <path id="23" class="fil2" d="M2911 2067c0,0 -1,0 -2,0 -1,0 -2,1 -2,1l-7 6c-1,1 -1,1 -2,2 0,1 -1,3 -1,4l0 30c0,1 1,2 1,3 1,1 1,1 2,2l7 6c0,0 1,1 2,1 1,0 2,0 2,0l17 0c1,0 2,0 3,0 0,0 1,-1 2,-1l6 -6c1,0 2,-1 2,-2 1,-1 1,-2 1,-3l0 -30c0,-1 0,-3 -1,-4 0,-1 -1,-1 -2,-2l-6 -6c-1,0 -2,-1 -3,-1 0,0 -1,0 -2,0l-17 0zm0 -16l17 0c3,0 5,1 8,2 2,1 5,2 7,4l6 5c3,2 5,5 6,8 2,3 2,6 2,10l0 30c0,3 0,6 -2,9 -1,3 -3,6 -6,8l-6 5c-2,2 -5,3 -7,4 -3,1 -5,2 -8,2l-17 0c-2,0 -5,-1 -7,-2 -3,-1 -5,-2 -7,-4l-7 -5c-2,-2 -4,-5 -6,-8 -1,-3 -2,-6 -2,-9l0 -30c0,-4 1,-7 2,-10 2,-3 4,-6 6,-8l7 -5c2,-2 4,-3 7,-4 2,-1 5,-2 7,-2z"/>
   <path id="24" class="fil2" d="M3051 2019l19 0 19 27 19 -27 19 0 0 110c0,3 -1,5 -3,6 -1,2 -3,3 -5,3 -2,0 -4,-1 -6,-3 -1,-1 -2,-3 -2,-6l0 -88 -15 21 0 3c0,2 0,4 -2,6 -1,2 -3,2 -5,2 -2,0 -4,0 -6,-2 -1,-2 -2,-4 -2,-6l0 -3 -15 -21 0 88c0,3 0,5 -2,6 -1,2 -3,3 -5,3 -3,0 -4,-1 -6,-3 -1,-1 -2,-3 -2,-6l0 -110z"/>
   <path id="25" class="fil2" d="M3186 2099c-1,0 -3,1 -5,2 -1,2 -2,3 -2,5l0 9c0,2 1,4 2,5 2,2 4,2 6,2l20 0 16 -9 0 -7c0,-2 0,-4 -2,-5 -1,-1 -3,-2 -5,-2l-30 0zm1 -48l27 0c7,0 12,3 16,7 5,4 7,10 7,16l2 55 0 0c0,3 0,5 -2,6 -1,2 -3,3 -5,3 -2,0 -4,-1 -5,-2 -2,-2 -3,-4 -3,-6l-9 6c-1,0 -2,1 -3,1 -2,0 -3,1 -4,1l-21 0c-7,0 -12,-3 -17,-7 -4,-5 -6,-10 -6,-16l0 -9c0,-6 2,-11 7,-16 4,-4 9,-6 16,-6l29 0c1,0 2,0 3,0 1,0 2,0 3,1l0 -11c0,-2 -1,-4 -2,-5 -2,-2 -3,-2 -6,-2l-27 0c-2,0 -4,-1 -6,-2 -1,-2 -2,-3 -2,-6 0,-2 1,-4 2,-5 2,-2 4,-3 6,-3z"/>
   <path id="26" class="fil2" d="M3292 2060l0 5 9 -6 0 -1c7,-4 13,-7 19,-7l7 0c7,0 13,3 17,8 4,4 6,11 6,21l2 49 0 0c0,3 -1,5 -2,6 -2,2 -3,3 -6,3 -2,0 -4,-1 -5,-3 -1,-1 -2,-3 -2,-6l-2 -49c0,-5 -1,-8 -3,-10 -1,-2 -4,-3 -7,-3l-5 0c-2,0 -6,1 -10,4l0 0 -18 12 0 46c0,3 -1,5 -2,6 -2,2 -4,3 -6,3 -2,0 -4,-1 -5,-3 -2,-1 -2,-3 -2,-6l0 -69c0,-3 0,-5 2,-6 1,-2 3,-3 5,-3 2,0 4,1 6,3 1,1 2,4 2,6z"/>
   <path id="27" class="fil2" d="M3412 2099c-2,0 -4,1 -5,2 -2,2 -2,3 -2,5l0 9c0,2 0,4 2,5 1,2 3,2 5,2l20 0 17 -9 0 -7c0,-2 -1,-4 -2,-5 -2,-1 -4,-2 -6,-2l-29 0zm1 -48l27 0c6,0 11,3 16,7 4,4 6,10 7,16l2 55 0 0c0,3 -1,5 -2,6 -2,2 -4,3 -6,3 -2,0 -4,-1 -5,-2 -1,-2 -2,-4 -3,-6l-8 6c-1,0 -3,1 -4,1 -1,0 -2,1 -3,1l-22 0c-6,0 -12,-3 -16,-7 -5,-5 -7,-10 -7,-16l0 -9c0,-6 2,-11 7,-16 5,-4 10,-6 16,-6l29 0c2,0 3,0 4,0 1,0 2,0 3,1l-1 -11c0,-2 0,-4 -2,-5 -1,-2 -3,-2 -5,-2l-27 0c-3,0 -5,-1 -6,-2 -2,-2 -2,-3 -2,-6 0,-2 0,-4 2,-5 1,-2 3,-3 6,-3z"/>
   <path id="28" class="fil2" d="M3562 2060c0,-3 1,-5 2,-6 1,-2 3,-3 6,-3 2,0 4,1 5,3 2,1 2,3 2,6l0 82c0,3 0,6 -2,9 -1,3 -3,6 -6,8l-6 5c-3,2 -5,3 -7,4 -3,1 -5,2 -8,2l-30 0c-2,0 -4,-1 -6,-2 -2,-2 -2,-4 -2,-6 0,-2 0,-4 2,-6 2,-1 4,-2 6,-2l30 0c1,0 2,0 3,0 0,0 1,-1 2,-1l6 -6c1,0 2,-1 2,-2 1,-1 1,-2 1,-3l0 -15 -6 5c-2,2 -4,3 -6,4 -3,1 -6,2 -8,2l-12 0c-3,0 -5,-1 -8,-2 -2,-1 -4,-2 -7,-4l-5 -4c-2,-2 -4,-4 -6,-7 -1,-3 -2,-7 -2,-10l0 -33c0,-3 1,-6 2,-9 2,-4 4,-6 6,-8l5 -4c3,-2 5,-3 7,-4 3,-1 5,-2 8,-2l12 0c2,0 5,1 8,2 2,1 4,2 6,4l6 5 0 -2zm0 44l0 -19c0,-1 0,-2 -1,-3 0,-1 0,-2 -1,-2l-13 -11c-1,-1 -2,-1 -3,-2 -1,0 -1,0 -2,0l-12 0c-1,0 -2,0 -3,0 -1,1 -2,1 -2,2l-5 4c-1,1 -2,1 -2,2 0,1 -1,2 -1,3l0 33c0,1 1,2 1,3 0,1 1,2 2,2l4 4 1 0c2,2 3,2 5,2l12 0c1,0 2,0 2,0 1,-1 2,-1 3,-2l13 -10c1,-1 1,-2 1,-3 1,-1 1,-2 1,-3z"/>
   <path id="29" class="fil2" d="M3644 2067c-1,0 -1,0 -2,0 -1,0 -2,1 -3,2l-6 5c-1,1 -2,1 -2,2 -1,1 -1,3 -1,4l0 10 45 0 0 -10c0,-1 0,-3 -1,-4 0,-1 -1,-1 -2,-2l-6 -5c-1,-1 -2,-2 -3,-2 -1,0 -1,0 -2,0l-17 0zm0 -16l17 0c2,0 5,1 7,2 3,1 5,2 7,4l7 5c2,2 4,5 6,8 1,3 2,6 2,10l0 18c0,2 -1,4 -2,5 -2,2 -4,2 -6,2l-52 0 0 4c0,2 0,3 1,4 0,1 1,1 2,2l6 6c1,0 2,1 2,1 1,0 2,0 3,0l38 0c2,0 4,1 6,2 1,2 2,4 2,6 0,2 -1,4 -2,5 -2,2 -4,3 -6,3l-38 0c-3,0 -5,-1 -8,-2 -2,-1 -4,-2 -7,-4l-6 -5c-3,-2 -5,-5 -6,-8 -2,-3 -2,-6 -2,-10l0 -29c0,-4 0,-7 2,-10 1,-3 3,-6 6,-8l6 -5c3,-2 5,-3 7,-4 3,-1 5,-2 8,-2z"/>
   <path id="30" class="fil2" d="M3803 2069l2 60 0 0c0,3 -1,5 -3,6 -1,2 -3,3 -5,3 -2,0 -4,-1 -5,-3 -2,-1 -3,-3 -3,-6l-2 -59c0,-1 0,-2 -1,-2 0,-1 -1,-1 -2,-1 0,0 0,0 -1,0 0,0 0,0 -1,1l-9 8 0 53c0,3 -1,5 -2,6 -2,2 -4,3 -6,3 -2,0 -4,-1 -5,-3 -2,-1 -2,-3 -2,-6l0 -59c0,-1 -1,-1 -2,-2 0,-1 -1,-1 -2,-1 0,0 -1,0 -1,0 -1,0 -1,0 -1,1l-11 8 0 53c0,3 -1,5 -2,6 -1,2 -3,3 -6,3 -2,0 -4,-1 -5,-3 -1,-1 -2,-3 -2,-6l0 -69c0,-3 0,-5 2,-6 1,-2 3,-3 5,-3 2,0 4,1 5,2 1,1 2,2 3,4l2 -2c2,-1 4,-2 5,-3 2,0 4,-1 6,-1 3,0 6,1 8,2 3,1 5,3 7,6l2 -2c3,-2 5,-4 7,-4 2,-1 4,-2 6,-2 5,0 9,2 13,5 3,4 5,8 6,13z"/>
   <path id="31" class="fil2" d="M3870 2067c-1,0 -2,0 -3,0 -1,0 -1,1 -2,2l-7 5c-1,1 -1,1 -2,2 0,1 -1,3 -1,4l0 10 45 0 0 -10c0,-1 0,-3 0,-4 -1,-1 -2,-1 -2,-2l-7 -5c-1,-1 -2,-2 -2,-2 -1,0 -2,0 -3,0l-16 0zm-1 -16l17 0c3,0 5,1 8,2 2,1 5,2 7,4l6 5c3,2 5,5 6,8 2,3 3,6 3,10l0 18c0,2 -1,4 -3,5 -1,2 -3,2 -6,2l-52 0 0 4c0,2 1,3 1,4 1,1 1,1 2,2l7 6c0,0 1,1 2,1 1,0 2,0 3,0l37 0c3,0 5,1 6,2 2,2 3,4 3,6 0,2 -1,4 -3,5 -1,2 -3,3 -6,3l-38 0c-2,0 -5,-1 -7,-2 -3,-1 -5,-2 -7,-4l-7 -5c-2,-2 -4,-5 -6,-8 -1,-3 -2,-6 -2,-10l0 -29c0,-4 1,-7 2,-10 2,-3 4,-6 6,-8l7 -5c2,-2 4,-3 7,-4 2,-1 5,-2 7,-2z"/>
   <path id="32" class="fil2" d="M3968 2060l0 5 9 -6 1 -1c6,-4 12,-7 18,-7l7 0c8,0 14,3 18,8 3,4 5,11 6,21l1 49 0 0c0,3 0,5 -2,6 -1,2 -3,3 -5,3 -3,0 -4,-1 -6,-3 -1,-1 -2,-3 -2,-6l-2 -49c0,-5 -1,-8 -2,-10 -2,-2 -4,-3 -7,-3l-5 0c-3,0 -6,1 -11,4l0 0 -18 12 0 46c0,3 0,5 -2,6 -1,2 -3,3 -5,3 -3,0 -5,-1 -6,-3 -1,-1 -2,-3 -2,-6l0 -69c0,-3 1,-5 2,-6 1,-2 3,-3 6,-3 2,0 4,1 5,3 1,1 2,4 2,6z"/>
   <path id="33" class="fil2" d="M4096 2034l0 17 29 0c3,0 5,1 6,3 2,1 3,3 3,5 0,2 -1,4 -3,6 -1,1 -3,2 -6,2l-29 0 0 48c0,2 1,4 2,5 2,2 3,2 5,2l16 0c1,0 3,0 4,-1 1,-1 2,-2 3,-4 0,0 0,-1 0,-1 1,-5 4,-7 7,-7 3,0 4,1 6,2 1,2 2,4 2,6 0,5 -2,10 -7,14 -4,4 -10,7 -16,7l-15 0c-6,0 -11,-3 -16,-7 -4,-5 -6,-10 -6,-16l0 -48 -7 0c-2,0 -5,-1 -6,-2 -2,-2 -2,-4 -2,-6 0,-2 0,-4 2,-5 2,-2 4,-3 6,-3l7 0 0 -17c0,-2 0,-5 2,-6 1,-2 3,-2 5,-2 2,0 4,1 6,2 1,2 2,4 2,6z"/>
   <path id="34" class="fil2" d="M4272 2054l-12 43 25 0 -13 -43zm9 -26l28 99c1,1 1,1 1,2 0,0 0,1 0,1 0,2 -1,4 -2,5 -2,2 -3,3 -5,3 -2,0 -4,-1 -5,-2 -2,-1 -3,-3 -3,-5l-6 -19 -33 0 -6 19c-1,2 -2,4 -3,5 -1,1 -3,2 -5,2 -2,0 -3,-1 -5,-3 -1,-1 -2,-3 -2,-5 0,-1 0,-1 0,-2 0,0 0,-1 0,-1l29 -99c1,-3 2,-5 3,-7 2,-1 3,-2 5,-2 3,0 4,1 5,2 2,1 3,4 4,7z"/>
   <path id="35" class="fil2" d="M4383 2064c0,0 -1,0 -2,0 -1,1 -2,1 -3,2l-13 13c-1,1 -1,2 -2,3 0,1 0,2 0,3l0 19c0,1 0,2 0,3 1,1 1,2 2,2l13 14c1,1 2,1 3,2 1,0 2,0 2,0l4 0c1,0 2,0 3,0 1,-1 2,-1 2,-2l13 -11c1,0 1,-1 2,-2 0,-1 0,-2 0,-3l0 -25c0,-1 0,-2 0,-3 -1,-1 -1,-2 -2,-3l-13 -11c0,0 -1,-1 -2,-1 -1,0 -2,0 -3,0l-4 0zm-20 -7l0 3 3 -4c3,-2 6,-4 9,-6 3,-1 5,-2 8,-2l4 0c3,0 5,1 8,2 3,1 5,2 7,4l13 10c2,2 4,5 6,8 1,3 2,6 2,10l0 25c0,3 -1,7 -2,10 -2,3 -4,5 -6,7l-13 11c-2,2 -5,3 -7,4 -3,1 -5,2 -8,2l-3 0c-3,0 -6,-1 -9,-2 -3,-2 -6,-4 -9,-6l-3 -4 0 32c0,3 -1,5 -2,6 -2,2 -4,3 -6,3 -2,0 -4,-1 -5,-3 -2,-1 -3,-3 -3,-6l0 -104c0,-3 1,-5 3,-6 1,-2 3,-3 5,-3 2,0 4,1 6,3 1,1 2,3 2,6z"/>
   <path id="36" class="fil2" d="M4496 2064c-1,0 -2,0 -2,0 -1,1 -2,1 -3,2l-14 13c0,1 -1,2 -1,3 0,1 -1,2 -1,3l0 19c0,1 1,2 1,3 0,1 1,2 1,2l14 14c1,1 2,1 3,2 1,0 1,0 2,0l4 0c1,0 2,0 3,0 1,-1 1,-1 2,-2l13 -11c1,0 1,-1 1,-2 1,-1 1,-2 1,-3l0 -25c0,-1 0,-2 -1,-3 0,-1 0,-2 -1,-3l-13 -11c0,0 -1,-1 -2,-1 -1,0 -2,0 -3,0l-4 0zm-21 -7l0 3 4 -4c3,-2 6,-4 8,-6 3,-1 6,-2 9,-2l4 0c3,0 5,1 8,2 2,1 5,2 7,4l12 10c3,2 5,5 6,8 2,3 3,6 3,10l0 25c0,3 -1,7 -3,10 -1,3 -3,5 -6,7l-13 11c-1,2 -4,3 -6,4 -3,1 -6,2 -8,2l-4 0c-3,0 -6,-1 -9,-2 -2,-2 -5,-4 -8,-6l-4 -4 0 32c0,3 0,5 -2,6 -1,2 -3,3 -5,3 -2,0 -4,-1 -6,-3 -1,-1 -2,-3 -2,-6l0 -104c0,-3 1,-5 2,-6 2,-2 4,-3 6,-3 2,0 4,1 5,3 2,1 2,3 2,6z"/>
  </g>
 </g>
</svg>
