<?xml version="1.0" encoding="UTF-8"?>
<!DOCTYPE svg PUBLIC "-//W3C//DTD SVG 1.1//EN" "http://www.w3.org/Graphics/SVG/1.1/DTD/svg11.dtd">
<!-- Creator: CorelDRAW X7 -->
<svg xmlns="http://www.w3.org/2000/svg" xml:space="preserve" width="1.9685in" height="0.393701in" version="1.1" style="shape-rendering:geometricPrecision; text-rendering:geometricPrecision; image-rendering:optimizeQuality; fill-rule:evenodd; clip-rule:evenodd"
viewBox="0 0 1969 394"
 xmlns:xlink="http://www.w3.org/1999/xlink">
 <defs>
  <style type="text/css">
   <![CDATA[
    .fil0 {fill:white;fill-rule:nonzero}
    .fil1 {fill:white;fill-rule:nonzero}
   ]]>
  </style>
 </defs>
 <g id="Layer_x0020_1">
  <metadata id="CorelCorpID_0Corel-Layer"/>
  <path class="fil0" d="M208 187c0,0 0,0 0,0 -1,-4 -2,-8 -5,-12 -4,-5 -10,-6 -16,-3 -5,3 -9,9 -10,14 -1,2 -1,4 -1,6 -1,-2 -1,-4 -1,-6 -2,-6 -2,-13 -2,-20 0,-6 3,-13 0,-19 0,-1 0,-2 0,-3 2,-8 7,-12 14,-14 6,-1 13,2 16,7 4,7 5,15 5,22 1,9 1,19 0,28zm-9 18c-5,4 -12,5 -16,1 -1,-1 -2,-2 -3,-3 1,0 1,0 1,-1 0,-6 0,-12 3,-17 2,-5 8,-11 13,-5 4,6 2,14 3,20 0,1 1,2 1,3 0,1 -1,2 -2,2zm-40 -44c0,3 0,6 0,8 -2,0 -4,0 -5,1 -2,0 -5,1 -7,2 -4,2 -9,3 -14,4 -3,1 -6,3 -9,4 0,-5 0,-9 0,-13 1,-6 0,-11 1,-17 1,-9 8,-17 18,-18 9,0 13,7 15,14 2,5 2,10 1,15zm-46 5c1,5 1,11 3,16 -3,2 -7,3 -11,4 -7,3 -15,6 -22,10 1,-6 0,-13 0,-19 0,-10 0,-20 0,-30 0,-10 1,-21 1,-31 0,-10 0,-19 -1,-29 0,-9 -2,-19 -1,-28 1,-7 4,-15 11,-20 5,-3 12,-4 18,0 6,4 7,12 8,19 1,12 -1,24 -2,35 0,7 1,13 1,19 0,4 0,7 0,10 0,3 1,5 2,8 -3,4 -6,9 -7,14 -2,7 -1,14 0,22zm153 113c-1,-4 -2,-9 -3,-14 -1,-4 -1,-10 -1,-15 -1,-10 -2,-20 -2,-30 -1,-10 -1,-21 -1,-31 0,-10 1,-20 1,-30 0,-10 -1,-20 -1,-30 0,-9 0,-18 1,-27 1,-7 1,-15 -2,-23 -3,-7 -9,-13 -17,-16 -7,-2 -15,-1 -22,2 -7,3 -12,10 -14,17 -3,8 -2,16 -1,24 0,4 1,9 2,13 0,1 0,2 1,3 -12,-7 -28,-5 -37,5 -1,2 -2,3 -3,5 -5,-8 -14,-13 -24,-13 -5,0 -9,1 -13,3 1,-2 1,-3 1,-5 0,-5 0,-10 0,-15 0,-5 0,-10 1,-14 0,-6 0,-10 1,-16 1,-17 0,-39 -19,-47 -8,-3 -17,-2 -24,2 -8,4 -13,11 -16,18 -4,9 -4,19 -4,28 1,10 2,19 2,29 1,17 -1,35 -1,52 0,9 1,17 1,25 1,8 2,15 3,22 -6,4 -11,9 -14,15 -9,17 -3,38 0,56 2,10 5,19 9,28 4,8 9,14 14,21 4,6 8,11 11,18 3,6 4,13 4,20 -1,4 2,7 6,7 4,0 6,-3 6,-7 2,-20 -8,-36 -20,-51 -5,-7 -9,-14 -12,-22 -3,-9 -5,-19 -7,-28 -2,-9 -4,-19 -3,-28 0,-8 5,-14 11,-19 16,-11 34,-15 52,-23 5,-2 9,-4 14,-6 2,-1 4,-2 6,-3 1,2 3,4 4,7 2,2 0,6 0,9 0,6 -2,10 -6,14 -5,3 -10,5 -15,7 -5,1 -11,1 -15,4 -6,4 -7,12 -3,18 3,5 9,8 14,11 6,4 10,10 14,15 3,3 5,5 7,8 1,2 2,3 3,5 1,1 2,2 2,3 1,2 5,2 5,-1 0,-1 1,-2 1,-4 -1,-1 -1,-3 -2,-4 -1,-4 -3,-7 -5,-10 -4,-6 -8,-12 -13,-17 -4,-4 -10,-7 -14,-11 -1,-1 -2,-2 -2,-2 1,-1 3,-2 5,-2 12,-2 24,-7 31,-16 2,-3 3,-5 4,-7 2,5 6,10 12,13 7,5 17,4 25,0 17,-9 19,-30 19,-47 0,-14 0,-30 -8,-41 0,-1 0,-1 0,-1 0,-3 0,-5 0,-8 0,-4 0,-9 -1,-14 0,-8 -1,-15 1,-23 4,-11 21,-16 29,-5 4,6 4,13 4,20 -1,3 -1,7 -1,10 -1,5 -1,10 -1,15 0,10 1,20 1,31 -1,10 -1,20 -2,30 0,16 1,33 2,50 0,8 1,16 1,24 1,8 3,16 4,25 3,12 -1,25 -9,35 -10,12 -26,13 -41,15 -3,0 -4,5 -1,6 5,1 9,2 14,2 5,1 10,0 15,-1 1,-1 1,-1 2,-1 0,1 0,1 0,1 -1,4 -1,8 -1,12 0,3 -1,7 0,11 1,6 12,6 13,0 1,-7 -1,-14 0,-21 0,-3 0,-5 0,-8 0,0 0,0 0,-1 4,-2 6,-4 9,-7 6,-6 10,-14 12,-23 2,-8 2,-17 1,-26zm-157 -243c0,1 -1,1 -1,2 -1,0 -1,1 -1,1 -1,2 -2,3 -2,4 1,0 1,1 2,0 0,0 1,-2 2,-2 0,-1 0,-1 1,-2 0,0 0,-1 0,-1 0,0 0,-1 0,-1 1,-1 0,-2 -1,-1zm5 4c-1,0 -1,1 -2,1 -1,1 -1,1 -2,2 -1,1 -2,2 -2,4 0,0 1,1 1,0 1,-1 2,-2 3,-3 1,0 1,-1 1,-1 1,-1 1,-2 2,-2 1,-1 -1,-2 -1,-1zm0 5c-2,1 -4,3 -6,6 -1,1 -2,3 -3,4 0,1 0,1 1,1 2,1 3,-2 4,-3 2,-2 4,-5 6,-7 1,-1 -1,-2 -2,-1zm0 7c-1,1 -2,3 -4,5 -1,1 -3,2 -3,4 0,1 0,1 1,1 2,0 4,-2 5,-4 1,-2 2,-3 3,-5 1,-2 -2,-3 -2,-1zm1 5c-2,2 -3,3 -5,5 -1,2 -4,3 -4,6 0,0 0,1 1,1 2,-1 3,-3 5,-4 1,-2 3,-4 5,-6 1,-1 -1,-3 -2,-2zm1 6c-3,4 -6,6 -9,9 -2,2 -6,5 -5,8 0,1 1,1 1,1 2,-1 2,-2 3,-3 2,-2 3,-3 5,-4 2,-3 5,-6 7,-10 1,-1 -1,-3 -2,-1zm1 9c-3,3 -6,6 -9,9 -4,3 -8,6 -10,10 0,1 0,1 1,1 3,-2 6,-5 9,-8 3,-4 7,-7 11,-10 1,-1 0,-3 -2,-2zm-1 8c-3,3 -6,6 -10,9 -2,2 -6,5 -8,8 0,1 1,2 2,1 3,-1 6,-5 9,-7 3,-3 6,-6 9,-9 1,-1 -1,-3 -2,-2zm-7 12c-3,2 -5,4 -7,7 -2,2 -6,4 -6,7 0,1 0,2 1,1 3,0 4,-3 6,-5 2,-3 5,-5 8,-7 1,-2 0,-4 -2,-3zm2 6c-1,2 -2,3 -4,4 -1,1 -3,3 -4,4 -1,2 -6,4 -5,7 0,1 0,1 1,1 1,-1 2,-2 3,-3 1,-1 3,-2 4,-3 1,-2 3,-3 4,-5 2,-1 3,-2 4,-3 1,-2 -2,-4 -3,-2zm2 5c-2,2 -4,4 -6,5 -2,2 -3,4 -5,5 0,1 0,2 0,2 2,2 4,-1 5,-2 2,-2 5,-5 7,-7 2,-1 0,-4 -1,-3zm0 9l-5 4c-1,1 -2,2 -3,4 0,1 2,2 3,1 0,-1 0,-1 1,-1 0,-1 1,-1 2,-2 1,-1 2,-3 4,-4 1,-1 -1,-4 -2,-2zm1 7c-2,2 -5,4 -6,6 -1,1 0,3 2,2 2,-2 4,-4 6,-6 1,-1 -1,-3 -2,-2zm2 5c-2,2 -4,4 -6,6 -1,1 -2,3 -1,5 0,0 1,0 1,0 1,0 1,-1 2,-1 0,-1 1,-2 2,-2 1,-2 2,-4 4,-5 2,-2 -1,-4 -2,-3zm123 -50c0,0 0,0 0,0 0,-2 -2,-2 -3,-1 0,2 -1,2 -1,3 -1,1 -2,2 -2,4 0,1 2,1 2,0 1,0 1,-1 1,-1 1,-1 1,-2 2,-2 0,-1 1,-2 1,-3zm2 4c-2,2 -4,4 -6,7 -1,1 0,2 1,2 1,0 1,0 2,0 2,-2 3,-5 5,-7 1,-2 -1,-4 -2,-2zm2 4c-1,2 -2,3 -3,4 0,1 -1,2 -2,3 0,1 1,2 2,2 1,0 2,-2 3,-3 1,-1 2,-2 3,-4 1,-2 -2,-3 -3,-2zm5 7c-1,1 -3,3 -4,4 -2,1 -3,3 -4,5 -2,1 1,3 2,2 2,-2 3,-4 5,-5 1,-1 3,-3 4,-5 1,-2 -2,-3 -3,-1zm-2 9c-3,2 -5,4 -7,6 -1,1 -2,2 -3,3 0,1 -1,1 -2,2 0,1 0,1 1,2 1,0 1,0 2,-1 -2,2 -3,4 -5,5 -2,2 -4,3 -4,5 0,1 0,1 1,1 2,1 4,-2 5,-3 2,-2 4,-4 6,-6 1,-1 0,-3 -2,-2 1,-1 2,-2 2,-2 2,-3 5,-5 7,-7 2,-1 0,-4 -1,-3zm-8 17c-3,2 -6,5 -8,7 -2,2 1,4 2,2 3,-2 5,-4 8,-7 1,-1 -1,-4 -2,-2zm5 1c-3,3 -6,6 -8,9 -2,2 1,4 3,2 0,0 0,0 0,0 0,0 0,0 0,0 3,-3 5,-6 8,-8 1,-2 -1,-5 -3,-3zm4 5c-3,2 -6,5 -8,8 -2,1 -6,5 -4,7 1,1 1,1 2,1 1,-1 1,-1 1,-2 1,-1 2,-3 3,-4 3,-2 5,-5 8,-7 1,-2 -1,-4 -2,-3zm1 8c-2,2 -4,4 -6,7 -2,1 -3,2 -3,5 0,0 0,1 1,1 2,1 3,-2 3,-3 3,-2 5,-5 8,-8 1,-1 -1,-4 -3,-2zm-2 9c-2,3 -3,5 -5,7 -1,2 -3,3 -2,6 0,1 2,2 3,1 0,0 0,-1 0,-1 0,0 0,0 1,0 0,0 0,0 0,0 0,-2 1,-3 2,-5 1,-2 3,-3 4,-6 2,-2 -2,-4 -3,-2zm-1 11c-2,2 -5,5 -6,9 0,1 3,2 3,0 1,-3 3,-5 5,-7 2,-2 0,-4 -2,-2zm-1 11c-3,5 -5,10 -6,16 0,1 1,1 1,1 2,-2 3,-5 4,-8 1,-3 2,-6 4,-8 0,-2 -3,-3 -3,-1zm-41 -29c-3,2 -6,5 -7,9 0,1 0,1 1,1 3,-3 5,-6 7,-9 1,-1 0,-2 -1,-1zm0 9c-1,2 -3,3 -4,5 -1,1 -3,3 -3,5 0,1 0,1 1,1 1,-1 2,-3 4,-4 1,-2 2,-3 4,-5 1,-1 -1,-3 -2,-2zm4 5c-3,3 -5,6 -8,9 -2,2 -5,4 -4,7 0,0 1,0 1,0 2,-1 4,-4 5,-5 3,-3 6,-6 8,-9 2,-2 0,-4 -2,-2zm1 9c-2,3 -4,5 -7,7 -2,2 -4,4 -5,7 0,1 1,1 2,1 2,-2 4,-5 6,-7 2,-2 5,-4 6,-7 1,-1 -1,-3 -2,-1zm2 11c-2,2 -4,3 -6,5 -2,2 -4,3 -5,6 0,1 1,2 2,1 2,-1 3,-3 5,-4 2,-2 4,-4 6,-6 2,-1 -1,-4 -2,-2zm0 8c-2,3 -4,5 -6,7 -2,2 -4,4 -5,7 0,1 1,2 2,1 2,-1 4,-3 6,-5 2,-2 4,-5 6,-7 2,-2 -1,-4 -3,-3zm-55 -43c-1,1 -2,1 -3,2 0,1 -1,2 -2,2 -1,1 -3,4 -3,6 -1,0 0,1 0,1 3,-1 2,-4 4,-5 1,0 2,-1 2,-1 1,-1 2,-2 3,-3 1,-1 0,-2 -1,-2zm1 6c-1,2 -3,4 -5,6 -1,1 -1,2 -2,3 -1,1 -2,1 -2,2 0,1 0,1 1,1 2,1 3,-3 5,-4 2,-3 4,-4 5,-7 1,-2 -1,-3 -2,-1zm3 6c-2,3 -4,4 -6,6 -2,2 -5,4 -5,7 0,0 1,0 1,0 3,0 4,-3 6,-5 2,-2 4,-4 6,-7 1,-1 -1,-2 -2,-1zm-3 10c-2,2 -3,3 -5,5 -1,1 -3,3 -3,5 0,0 1,0 1,0 1,0 1,-1 2,-1 1,-1 1,-2 2,-2 1,-2 3,-3 4,-5 1,-1 0,-2 -1,-2zm-1 8c-1,2 -3,3 -5,5 -1,1 -4,3 -5,4 0,1 0,2 1,1 2,0 4,-2 5,-3 2,-2 4,-4 6,-5 1,-1 -1,-3 -2,-2zm-20 60c-2,4 -7,10 -5,15 0,0 1,1 1,0 1,-2 2,-5 3,-8 1,-2 2,-4 3,-6 0,-2 -2,-2 -2,-1zm4 4c-1,2 -3,5 -5,8 -1,2 -2,5 -1,7 0,1 1,1 2,0 0,-1 0,-1 0,-3 1,-1 1,-3 2,-4 1,-3 3,-5 4,-7 1,-2 -1,-3 -2,-1zm9 -3c-2,1 -3,3 -4,5 -1,2 -3,4 -4,6 -2,3 -5,8 -4,12 0,1 1,1 2,0 2,-3 3,-7 5,-11 1,-1 2,-3 3,-5 2,-2 2,-4 3,-6 1,-1 -1,-2 -1,-1zm8 1c-3,5 -6,9 -8,13 -2,3 -5,8 -4,12 0,1 1,1 1,0 1,-1 2,-3 2,-5 1,-2 3,-4 4,-6 2,-4 4,-8 7,-13 0,-1 -2,-2 -2,-1zm5 2c-1,2 -3,4 -4,6 -1,3 -2,6 -4,9 -3,5 -7,9 -7,15 0,1 1,1 2,1 1,-1 1,-2 1,-3 1,-1 1,-2 2,-4 2,-3 3,-6 5,-8 1,-3 2,-6 3,-8 1,-3 4,-5 5,-8 0,-1 -2,-2 -3,0zm5 9c-3,5 -6,10 -8,15 -2,4 -5,10 -4,14 0,1 1,1 2,0 1,-2 1,-4 2,-6 0,-3 2,-5 3,-8 2,-5 5,-9 7,-14 1,-1 -1,-2 -2,-1zm7 5c-1,2 -3,5 -4,7 -2,3 -4,6 -6,9 -2,4 -6,11 -5,16 0,1 2,1 2,0 1,-2 2,-5 2,-7 2,-3 3,-7 5,-10 3,-5 7,-9 9,-15 0,-1 -2,-2 -3,0zm5 8c-4,6 -7,12 -10,18 -1,3 -3,6 -4,9 -1,3 -2,6 -2,9 0,0 1,1 2,0 1,-2 2,-5 3,-8 1,-3 2,-5 3,-8 3,-7 6,-13 10,-19 1,-1 -1,-2 -2,-1zm-7 26c-3,5 -5,10 -6,15 0,1 1,1 1,1 3,-5 4,-10 7,-15 0,-2 -2,-3 -2,-1zm19 -42c-2,3 -4,7 -5,11 0,1 1,1 1,0 2,-3 4,-7 6,-11 0,-1 -2,-2 -2,0zm11 -5c-3,4 -6,10 -8,15 -1,4 -5,10 -4,14 1,1 1,1 2,0 1,-2 1,-4 1,-5 1,-3 2,-5 3,-8 2,-5 4,-10 7,-15 1,-1 -1,-2 -1,-1zm4 4c-1,4 -3,8 -5,11 -1,2 -3,6 -1,9 0,0 1,0 1,0 1,-1 1,-2 1,-3 1,-2 1,-4 2,-6 2,-3 4,-6 5,-10 0,-1 -2,-2 -3,-1zm5 7c-2,2 -2,4 -3,6 -1,2 -2,3 -2,5 0,1 1,1 2,1 0,0 1,0 1,0 0,-1 0,-1 0,-2 0,-1 1,-2 2,-4 0,-1 1,-3 2,-5 1,-1 -1,-2 -2,-1zm8 0c-1,2 -9,12 -4,13 1,0 2,-3 2,-5 2,-2 3,-4 5,-6 0,-2 -2,-4 -3,-2zm6 3c-1,2 -2,3 -3,5 -1,2 -2,5 0,5 1,0 2,0 2,-1 0,-1 0,-2 1,-3 1,-2 2,-3 3,-5 1,-2 -2,-3 -3,-1zm7 2c-2,3 -4,6 -6,9 -1,2 2,3 3,1 2,-2 4,-5 6,-8 1,-2 -2,-4 -3,-2zm7 2c-3,2 -4,4 -5,7 -1,2 -4,5 -2,8 0,0 1,0 1,0 2,-1 3,-4 3,-6 1,-2 3,-5 5,-7 1,-2 -1,-4 -2,-2zm2 7c-2,2 -5,5 -6,9 0,2 -1,4 1,5 1,1 3,0 2,-1 0,-2 1,-4 2,-5 1,-2 2,-4 4,-6 1,-2 -2,-4 -3,-2zm6 2c-2,2 -3,5 -5,8 -1,2 -3,5 -1,8 0,0 1,0 1,0 2,-2 2,-5 4,-7 1,-3 3,-5 4,-8 1,-2 -2,-3 -3,-1zm2 10c-3,6 -6,11 -8,17 0,2 3,3 3,1 2,-5 5,-11 7,-16 1,-2 -2,-3 -2,-2zm-63 68c0,4 -3,7 -3,12 0,0 1,1 1,0 2,-1 2,-4 2,-6 1,-2 2,-4 2,-6 1,-2 -2,-2 -2,0zm6 4c-1,3 -3,6 -4,9 -1,2 -2,5 -1,8 1,0 1,0 2,0 1,-2 1,-5 2,-7 1,-3 2,-6 3,-9 1,-2 -2,-2 -2,-1zm7 3c-2,2 -2,6 -4,9 -1,2 -3,6 -2,9 1,0 1,0 2,0 2,-2 2,-5 3,-8 0,-1 1,-2 1,-3 1,-1 1,-4 2,-5 1,-2 -1,-4 -2,-2zm4 11c-1,3 -5,8 -2,11 0,0 0,1 1,0 1,-1 1,-3 1,-5 1,-1 2,-3 3,-5 1,-2 -2,-3 -3,-1zm8 0c-1,2 -2,5 -3,7 -1,2 -2,4 -1,6 0,1 1,1 1,0 2,-1 2,-3 3,-5 1,-2 2,-4 3,-7 1,-1 -2,-3 -3,-1zm10 -5c-2,3 -4,7 -6,10 -2,4 -2,7 -4,11 -1,2 2,4 3,2 2,-3 3,-7 4,-11 2,-3 4,-7 6,-10 1,-2 -2,-4 -3,-2zm8 -3c-3,5 -5,10 -8,15 -1,3 -6,9 -3,12 0,1 1,1 2,0 1,0 1,-2 2,-3 1,-3 2,-6 3,-8 2,-5 4,-10 7,-14 0,-2 -2,-4 -3,-2zm5 5c0,2 -2,4 -3,6 -1,3 -2,5 -4,7 -1,1 -1,3 -2,5 -1,2 -3,4 -2,6 0,1 1,1 2,1 4,-2 4,-8 6,-11 2,-3 3,-5 4,-8 1,-2 2,-4 2,-6 0,-2 -3,-2 -3,0z"/>
  <polygon class="fil1" points="387,89 426,89 477,239 527,89 567,89 603,305 563,305 540,168 495,305 458,305 413,168 390,305 350,305 "/>
  <polygon id="1" class="fil1" points="621,89 664,89 704,166 744,89 788,89 725,211 725,305 684,305 684,211 "/>
  <polygon id="2" class="fil1" points="890,89 932,89 986,242 1041,89 1083,89 1005,305 966,305 "/>
  <path id="3" class="fil1" d="M1182 89l41 0 83 216 -42 0 -17 -45 -89 0 -17 45 -42 0 83 -216zm21 57l-29 75 58 0 -29 -75z"/>
  <path id="4" class="fil1" d="M1451 118l-30 27c-11,-15 -22,-22 -33,-22 -5,0 -10,1 -13,4 -3,3 -5,6 -5,10 0,4 1,7 4,10 3,5 13,14 30,28 15,13 25,21 28,25 9,8 14,16 18,24 3,8 5,16 5,25 0,18 -6,32 -18,44 -12,11 -28,17 -48,17 -15,0 -29,-4 -40,-11 -12,-8 -21,-20 -30,-36l35 -21c10,19 22,29 36,29 7,0 13,-2 18,-6 5,-4 7,-9 7,-14 0,-5 -2,-10 -6,-15 -3,-5 -11,-12 -24,-22 -23,-20 -38,-34 -45,-45 -7,-10 -10,-20 -10,-31 0,-15 5,-28 17,-38 11,-11 25,-16 42,-16 11,0 21,2 31,7 9,5 20,14 31,27z"/>
  <polygon id="5" class="fil1" points="1515,89 1555,89 1605,239 1655,89 1695,89 1731,305 1691,305 1668,168 1623,305 1586,305 1541,168 1518,305 1478,305 "/>
  <path id="6" class="fil1" d="M1830 89l41 0 83 216 -42 0 -17 -45 -89 0 -17 45 -42 0 83 -216zm21 57l-30 75 59 0 -29 -75z"/>
 </g>
</svg>
