<?xml version="1.0" encoding="UTF-8"?>
<!DOCTYPE svg PUBLIC "-//W3C//DTD SVG 1.1//EN" "http://www.w3.org/Graphics/SVG/1.1/DTD/svg11.dtd">
<!-- Creator: CorelDRAW X7 -->
<svg xmlns="http://www.w3.org/2000/svg" xml:space="preserve" width="2.12598in" height="0.866142in" version="1.1" style="shape-rendering:geometricPrecision; text-rendering:geometricPrecision; image-rendering:optimizeQuality; fill-rule:evenodd; clip-rule:evenodd"
viewBox="0 0 2126 866"
 xmlns:xlink="http://www.w3.org/1999/xlink">
 <defs>
  <style type="text/css">
   <![CDATA[
    .fil0 {fill:none}
    .fil2 {fill:white}
    .fil1 {fill:white;fill-rule:nonzero}
   ]]>
  </style>
 </defs>
 <g id="Layer_x0020_1">
  <metadata id="CorelCorpID_0Corel-Layer"/>
  <rect class="fil0" width="2126" height="866"/>
  <path class="fil1" d="M1094 311c0,0 0,0 0,0 -1,-8 -4,-15 -9,-22 -8,-9 -19,-11 -29,-5 -10,5 -17,16 -20,26 0,3 -1,7 -1,11 -1,-4 -2,-7 -3,-11 -2,-12 -3,-25 -3,-38 0,-11 5,-24 0,-33 0,-3 1,-5 1,-7 3,-14 12,-22 26,-25 11,-2 23,4 29,13 7,11 9,27 10,40 1,17 0,34 -1,51zm-17 34c-9,7 -21,9 -30,1 -1,-2 -3,-3 -4,-5 1,0 1,-1 1,-2 0,-11 0,-22 5,-32 5,-8 16,-19 24,-9 8,11 4,25 6,37 0,3 1,5 2,6 -1,2 -2,3 -4,4zm-73 -81c0,5 0,10 -1,15 -3,-1 -6,0 -8,2 -5,0 -9,1 -13,3 -9,3 -17,5 -25,8 -6,2 -12,4 -18,6 0,-8 1,-16 1,-24 0,-10 -1,-20 0,-31 3,-16 16,-32 34,-33 16,-1 25,13 28,27 3,8 3,17 2,27zm-85 8c1,10 1,21 6,31 -7,2 -13,4 -20,7 -14,5 -28,11 -41,18 1,-11 0,-23 0,-35 -1,-19 -1,-37 0,-56 0,-18 2,-37 2,-56 0,-18 -1,-36 -2,-54 -1,-17 -4,-34 -1,-51 2,-13 7,-28 19,-36 9,-7 23,-7 33,-1 11,7 14,22 15,35 1,22 -3,44 -3,65 0,12 1,23 1,35 0,6 0,12 0,17 0,6 2,11 4,16 -6,7 -11,15 -13,24 -3,14 -2,27 0,41zm274 164c0,-2 0,-5 0,-8 -2,-19 -3,-37 -4,-56 -1,-19 -2,-38 -2,-57 1,-18 2,-36 2,-55 0,-18 -1,-37 -2,-56 0,-16 1,-32 3,-48 1,-14 1,-29 -4,-43 -6,-14 -17,-25 -31,-30 -13,-4 -28,-1 -40,4 -14,6 -23,18 -27,32 -5,14 -4,29 -2,44 1,8 3,15 4,23 1,2 1,4 1,7 -20,-14 -51,-10 -67,8 -2,3 -4,6 -6,9 -10,-15 -25,-25 -44,-24 -8,0 -16,2 -23,5 0,-3 1,-5 1,-8 0,-10 0,-19 1,-29 0,-8 0,-17 0,-26 0,-9 2,-18 2,-27 3,-33 1,-74 -35,-87 -14,-6 -31,-4 -44,3 -14,7 -23,20 -29,34 -6,16 -7,34 -6,51 1,18 3,35 3,53 2,32 -1,64 -2,96 0,15 1,31 2,46 1,14 3,27 5,40 -11,8 -20,17 -26,28 -16,32 -5,70 1,103l0 2c7,-7 14,-14 22,-21 -1,-3 -1,-5 -2,-7 -3,-17 -8,-35 -6,-52 1,-14 10,-25 21,-34 28,-21 62,-29 95,-42 8,-4 17,-8 26,-11 3,-2 7,-4 11,-6 2,4 5,8 8,12 2,5 0,12 -1,17 0,10 -3,19 -11,26 -9,6 -18,9 -28,12 -9,2 -19,3 -27,9 -10,6 -13,17 -9,27 8,-3 15,-5 22,-7 0,-1 0,-1 0,-2 2,-1 6,-2 9,-3 21,-4 44,-12 57,-29 3,-5 5,-9 7,-14 5,11 12,20 22,26 14,8 31,6 46,-1 32,-16 36,-55 36,-86 0,-26 -1,-55 -16,-76 1,-1 1,-1 1,-2 0,-5 0,-9 0,-13 0,-9 0,-18 -1,-27 -2,-14 -3,-28 1,-42 7,-21 39,-30 53,-10 7,11 7,24 7,37 -1,6 -2,13 -2,19 -1,9 -1,19 -1,28 0,18 1,37 1,56 0,18 -2,36 -2,55 -2,31 1,61 2,92 0,6 0,11 1,17 9,5 19,12 27,18zm-281 -402c-1,1 -1,2 -2,3 -1,0 -2,2 -2,3 -2,2 -3,4 -3,6 0,1 1,1 2,1 2,-1 3,-3 4,-5 1,-1 1,-2 2,-3 0,-1 0,-1 1,-2 0,-1 0,-1 0,-2 1,-1 -1,-2 -2,-1zm8 6c-1,1 -2,2 -3,3 -1,1 -1,2 -3,3 -2,2 -4,4 -5,7 0,1 2,2 3,1 2,-1 3,-4 6,-5 1,-1 1,-2 2,-3 0,-1 1,-2 2,-4 2,-1 0,-3 -2,-2zm1 9c-4,4 -7,7 -11,11 -2,3 -4,6 -5,9 0,1 0,1 1,1 3,1 6,-3 7,-5 3,-4 7,-9 11,-13 2,-2 -1,-4 -3,-3zm-1 13c-1,4 -4,7 -6,9 -2,3 -6,5 -6,9 0,1 1,1 2,1 3,0 6,-4 9,-7 2,-3 4,-6 6,-10 1,-3 -3,-5 -5,-2zm3 10c-3,3 -6,6 -9,9 -3,3 -7,7 -8,11 0,1 1,2 2,2 4,-1 6,-5 9,-8 3,-3 6,-7 10,-10 2,-3 -2,-6 -4,-4zm1 11c-4,7 -11,12 -17,18 -3,3 -10,8 -8,14 0,1 1,2 2,2 3,-2 4,-4 6,-6 2,-3 5,-6 8,-8 5,-5 10,-11 13,-17 2,-3 -2,-6 -4,-3zm3 17c-6,5 -12,10 -18,16 -6,5 -14,11 -18,19 0,1 1,2 2,2 6,-4 11,-10 16,-15 7,-7 13,-13 20,-18 3,-2 1,-6 -2,-4zm-3 15c-5,5 -11,11 -17,16 -5,4 -12,9 -15,15 -1,2 1,3 2,3 7,-3 12,-10 17,-14 6,-5 12,-11 17,-16 3,-3 -1,-7 -4,-4zm-12 21c-5,4 -10,8 -14,13 -4,4 -10,9 -11,14 0,1 1,2 2,2 5,-2 9,-7 12,-11 4,-4 9,-9 14,-12 3,-3 0,-8 -3,-6zm3 12c-1,3 -4,5 -6,7 -3,2 -6,5 -8,7 -3,3 -12,8 -10,13 0,1 1,2 2,2 2,-1 4,-4 6,-5 3,-2 5,-4 7,-7 3,-2 5,-5 8,-7 3,-2 5,-4 6,-7 2,-3 -3,-6 -5,-3zm4 9c-4,3 -7,6 -11,10 -3,3 -6,6 -8,9 -1,1 -1,2 0,3 2,4 6,-2 8,-4 4,-4 9,-9 14,-13 3,-2 0,-7 -3,-5zm-1 16l-8 8c-2,2 -5,4 -5,6 -1,3 3,6 5,2 0,0 1,0 1,-1 1,-1 3,-2 4,-4 2,-2 5,-4 7,-7 3,-3 -1,-7 -4,-4zm3 13c-4,4 -9,7 -12,12 -1,2 2,4 4,3 4,-3 8,-8 11,-11 2,-3 -1,-6 -3,-4zm3 10c-4,4 -7,7 -10,11 -2,2 -5,6 -2,9 1,0 1,0 2,0 1,-1 2,-2 3,-3 1,-1 2,-2 3,-3 3,-3 5,-7 8,-10 3,-2 -1,-7 -4,-4zm226 -93c0,0 0,0 0,0 1,-3 -3,-3 -4,-1 -1,2 -2,4 -3,6 -2,2 -3,3 -3,6 0,2 3,3 4,1 1,-1 1,-2 2,-3 1,-1 1,-2 2,-3 2,-2 2,-4 2,-6zm4 7c-3,5 -7,9 -10,13 -2,2 -1,5 2,5 1,0 2,0 2,-1 4,-4 7,-9 11,-13 1,-3 -3,-6 -5,-4zm4 9c-1,2 -3,5 -5,7 -1,2 -3,3 -4,5 0,2 1,4 3,4 3,0 4,-3 5,-5 3,-2 4,-5 6,-8 2,-3 -3,-6 -5,-3zm9 11c-2,4 -5,6 -8,8 -3,3 -5,6 -7,9 -2,3 2,6 5,4 3,-3 5,-6 8,-9 3,-2 6,-5 8,-8 2,-4 -4,-7 -6,-4zm-4 18c-4,3 -8,6 -11,10 -2,2 -4,4 -6,6 -1,1 -3,2 -4,4 -1,1 0,3 1,3 1,1 3,0 4,0 -3,3 -6,6 -9,9 -3,2 -8,5 -8,9 0,1 1,2 2,2 4,0 7,-5 10,-7 3,-4 7,-7 10,-10 3,-3 0,-6 -2,-5 1,-1 2,-3 3,-4 4,-4 8,-9 13,-12 3,-2 0,-7 -3,-5zm-15 31c-4,4 -10,8 -14,13 -3,3 1,7 4,4 5,-4 10,-8 15,-13 2,-3 -2,-7 -5,-4zm11 2c-6,5 -12,10 -16,17 -3,3 2,6 5,4 0,0 0,0 0,0 0,0 1,-1 1,-1 5,-5 9,-10 14,-16 3,-3 -1,-7 -4,-4zm6 9c-5,4 -10,9 -15,14 -3,3 -10,9 -6,14 0,1 1,1 2,1 2,-1 3,-1 4,-3 1,-3 3,-5 5,-7 5,-5 9,-10 14,-14 3,-3 -1,-7 -4,-5zm3 14c-4,4 -9,8 -12,13 -3,3 -6,5 -5,9 0,2 1,3 2,3 4,1 4,-3 6,-5 5,-5 9,-10 13,-15 4,-3 -1,-8 -4,-5zm-4 18c-3,4 -6,8 -9,11 -3,4 -5,7 -5,12 1,2 5,3 6,1 0,0 0,0 0,0 1,-1 1,-1 1,-1 0,0 0,0 0,0 1,-4 3,-6 4,-8 3,-4 6,-7 9,-11 2,-4 -4,-8 -6,-4zm-2 19c-4,4 -9,10 -11,16 -1,4 5,5 6,2 2,-6 5,-10 9,-15 3,-2 -1,-6 -4,-3zm-2 20c-5,10 -10,19 -11,30 0,2 2,2 2,1 4,-3 6,-9 7,-14 1,-5 5,-10 7,-15 1,-3 -4,-5 -5,-2zm-76 -54c-5,5 -11,11 -13,18 0,1 1,2 2,1 5,-5 9,-11 14,-16 1,-2 -1,-4 -3,-3zm1 19c-3,2 -6,5 -8,8 -2,2 -5,6 -6,9 0,1 1,3 2,2 3,-2 5,-5 7,-8 3,-3 5,-5 8,-8 2,-2 -1,-5 -3,-3zm8 8c-6,5 -11,11 -16,16 -3,3 -9,8 -7,13 0,1 1,1 2,1 4,-2 7,-7 10,-10 5,-5 9,-11 14,-17 3,-2 -1,-6 -3,-3zm1 16c-4,5 -8,9 -12,13 -4,4 -9,7 -10,13 -1,2 2,3 3,2 4,-4 8,-8 12,-12 4,-4 8,-8 11,-13 2,-3 -3,-5 -4,-3zm3 21c-4,3 -8,6 -11,10 -3,3 -8,5 -9,10 0,2 2,3 4,2 3,-2 6,-5 9,-8 4,-3 8,-7 11,-10 3,-3 -1,-7 -4,-4zm1 15c-4,5 -8,9 -12,13 -3,4 -7,8 -9,13 0,1 2,3 4,2 4,-2 7,-6 10,-10 4,-4 8,-9 12,-13 3,-3 -2,-8 -5,-5zm-102 -79c-2,1 -3,2 -4,3 -2,2 -3,4 -5,5 -3,2 -6,6 -6,10 0,1 0,1 1,1 4,-1 4,-6 7,-8 2,0 3,-1 4,-3 1,-2 2,-3 5,-5 2,-1 0,-4 -2,-3zm3 10c-3,5 -7,8 -10,12 -2,1 -3,3 -4,5 -1,1 -3,3 -3,5 -1,0 0,1 1,1 5,1 6,-5 9,-8 4,-4 8,-8 10,-13 1,-2 -2,-5 -3,-2zm4 12c-3,4 -7,8 -11,11 -3,3 -8,7 -8,12 0,1 0,1 1,1 5,0 8,-6 11,-9 4,-4 8,-8 11,-13 1,-3 -2,-5 -4,-2zm-5 19c-3,2 -6,5 -9,8 -2,3 -6,5 -5,9 0,1 1,1 2,1 1,-1 2,-2 3,-3 1,-1 2,-3 3,-4 3,-3 5,-6 8,-8 2,-1 0,-5 -2,-3zm-1 14c-3,3 -6,6 -10,9 -3,2 -7,5 -9,8 0,1 1,2 2,2 4,-1 7,-4 9,-6 4,-3 7,-7 10,-10 2,-2 0,-5 -2,-3zm-38 110c-1,5 -7,12 -8,19 1,-1 3,-1 5,-2 1,-1 1,-2 1,-3 2,-4 4,-9 6,-13 0,-2 -3,-3 -4,-1zm8 7c-2,3 -4,6 -6,9 2,0 4,-1 6,-1 1,-2 3,-4 4,-6 1,-3 -2,-4 -4,-2zm16 -6c-3,3 -4,7 -7,10 0,1 -1,2 -1,2 2,0 4,-1 7,-1 1,-3 2,-6 4,-8 1,-2 -2,-4 -3,-3zm14 3c-1,2 -2,4 -4,6 2,0 4,0 6,0l2 -4c2,-2 -2,-4 -4,-2zm10 3c0,1 0,1 -1,2 2,0 4,0 6,0l0 -1c1,-3 -4,-4 -5,-1zm73 2c-1,1 -1,3 -2,4l4 1c0,-1 1,-2 1,-3 2,-2 -1,-4 -3,-2z"/>
  <path class="fil2" d="M447 444l-155 365 -121 0 -154 -365 132 0 88 213 89 -213 121 0zm221 302l-112 0 -24 63 -126 0 160 -365 121 0 160 365 -125 0 -96 -244 0 0 0 0 -7 18 -7 17 0 0 -22 57 44 0 34 89zm335 72c-30,0 -60,-4 -88,-11 -29,-6 -53,-15 -71,-27l40 -90c17,10 37,18 58,25 22,6 42,9 62,9 17,0 29,-2 37,-5 7,-4 11,-9 11,-15 0,-8 -5,-14 -15,-17 -9,-4 -25,-8 -47,-13 -28,-6 -52,-12 -70,-19 -19,-7 -36,-18 -49,-33 -14,-16 -21,-37 -21,-63 0,-23 6,-44 19,-63 13,-19 32,-34 58,-44 25,-11 56,-17 93,-17 25,0 50,3 74,8 24,6 45,14 64,24l-37 90c-36,-19 -70,-28 -102,-28 -32,0 -48,8 -48,23 0,8 5,13 14,17 10,3 25,7 47,12 28,5 51,11 70,18 20,6 36,17 50,33 14,15 21,36 21,62 0,23 -6,44 -19,63 -13,18 -32,33 -58,44 -25,11 -56,17 -93,17zm533 -9l-1 -166 -79 133 -54 0 -80 -128 0 161 -112 0 0 -365 101 0 119 195 116 -195 102 0 1 365 -113 0zm394 -63l-112 0 -24 63 -125 0 159 -365 121 0 160 365 -125 0 -96 -243 0 -1 0 0 0 0 -14 35 0 0 -22 57 44 0 34 89z"/>
 </g>
</svg>
