<?xml version="1.0" encoding="UTF-8"?>
<!DOCTYPE svg PUBLIC "-//W3C//DTD SVG 1.1//EN" "http://www.w3.org/Graphics/SVG/1.1/DTD/svg11.dtd">
<!-- Creator: CorelDRAW X7 -->
<svg xmlns="http://www.w3.org/2000/svg" xml:space="preserve" width="1.9685in" height="0.393701in" version="1.1" style="shape-rendering:geometricPrecision; text-rendering:geometricPrecision; image-rendering:optimizeQuality; fill-rule:evenodd; clip-rule:evenodd"
viewBox="0 0 1969 394"
 xmlns:xlink="http://www.w3.org/1999/xlink">
 <defs>
  <style type="text/css">
   <![CDATA[
    .fil0 {fill:#FFD671;fill-rule:nonzero}
   ]]>
  </style>
 </defs>
 <g id="Layer_x0020_1">
  <metadata id="CorelCorpID_0Corel-Layer"/>
  <path class="fil0" d="M208 187c0,0 0,0 0,0 -1,-4 -2,-8 -5,-12 -4,-5 -10,-6 -16,-3 -5,3 -9,9 -10,14 -1,2 -1,4 -1,6 -1,-2 -1,-4 -1,-6 -2,-6 -2,-13 -2,-20 0,-6 3,-13 0,-19 0,-1 0,-2 0,-3 2,-8 7,-12 14,-14 6,-1 13,2 16,7 4,7 5,15 5,22 1,9 1,19 0,28zm-9 18c-5,4 -12,5 -16,1 -1,-1 -2,-2 -3,-3 1,0 1,0 1,-1 0,-6 0,-12 3,-17 2,-5 8,-11 13,-5 4,6 2,14 3,20 0,1 1,2 1,3 0,1 -1,2 -2,2zm-40 -44c0,3 0,6 0,8 -2,0 -4,0 -5,1 -2,0 -5,1 -7,2 -4,2 -9,3 -14,4 -3,1 -6,3 -9,4 0,-5 0,-9 0,-13 1,-6 0,-11 1,-17 1,-9 8,-17 18,-18 9,0 13,7 15,14 2,5 2,10 1,15zm-46 5c1,5 1,11 3,16 -3,2 -7,3 -11,4 -7,3 -15,6 -22,10 1,-6 0,-13 0,-19 0,-10 0,-20 0,-30 0,-10 1,-21 1,-31 0,-10 0,-19 -1,-29 0,-9 -2,-19 -1,-28 1,-7 4,-15 11,-20 5,-3 12,-4 18,0 6,4 7,12 8,19 1,12 -1,24 -2,35 0,7 1,13 1,19 0,4 0,7 0,10 0,3 1,5 2,8 -3,4 -6,9 -7,14 -2,7 -1,14 0,22zm153 113c-1,-4 -2,-9 -3,-14 -1,-4 -1,-10 -1,-15 -1,-10 -2,-20 -2,-30 -1,-10 -1,-21 -1,-31 0,-10 1,-20 1,-30 0,-10 -1,-20 -1,-30 0,-9 0,-18 1,-27 1,-7 1,-15 -2,-23 -3,-7 -9,-13 -17,-16 -7,-2 -15,-1 -22,2 -7,3 -12,10 -14,17 -3,8 -2,16 -1,24 0,4 1,9 2,13 0,1 0,2 1,3 -12,-7 -28,-5 -37,5 -1,2 -2,3 -3,5 -5,-8 -14,-13 -24,-13 -5,0 -9,1 -13,3 1,-2 1,-3 1,-5 0,-5 0,-10 0,-15 0,-5 0,-10 1,-14 0,-6 0,-10 1,-16 1,-17 0,-39 -19,-47 -8,-3 -17,-2 -24,2 -8,4 -13,11 -16,18 -4,9 -4,19 -4,28 1,10 2,19 2,29 1,17 -1,35 -1,52 0,9 1,17 1,25 1,8 2,15 3,22 -6,4 -11,9 -14,15 -9,17 -3,38 0,56 2,10 5,19 9,28 4,8 9,14 14,21 4,6 8,11 11,18 3,6 4,13 4,20 -1,4 2,7 6,7 4,0 6,-3 6,-7 2,-20 -8,-36 -20,-51 -5,-7 -9,-14 -12,-22 -3,-9 -5,-19 -7,-28 -2,-9 -4,-19 -3,-28 0,-8 5,-14 11,-19 16,-11 34,-15 52,-23 5,-2 9,-4 14,-6 2,-1 4,-2 6,-3 1,2 3,4 4,7 2,2 0,6 0,9 0,6 -2,10 -6,14 -5,3 -10,5 -15,7 -5,1 -11,1 -15,4 -6,4 -7,12 -3,18 3,5 9,8 14,11 6,4 10,10 14,15 3,3 5,5 7,8 1,2 2,3 3,5 1,1 2,2 2,3 1,2 5,2 5,-1 0,-1 1,-2 1,-4 -1,-1 -1,-3 -2,-4 -1,-4 -3,-7 -5,-10 -4,-6 -8,-12 -13,-17 -4,-4 -10,-7 -14,-11 -1,-1 -2,-2 -2,-2 1,-1 3,-2 5,-2 12,-2 24,-7 31,-16 2,-3 3,-5 4,-7 2,5 6,10 12,13 7,5 17,4 25,0 17,-9 19,-30 19,-47 0,-14 0,-30 -8,-41 0,-1 0,-1 0,-1 0,-3 0,-5 0,-8 0,-4 0,-9 -1,-14 0,-8 -1,-15 1,-23 4,-11 21,-16 29,-5 4,6 4,13 4,20 -1,3 -1,7 -1,10 -1,5 -1,10 -1,15 0,10 1,20 1,31 -1,10 -1,20 -2,30 0,16 1,33 2,50 0,8 1,16 1,24 1,8 3,16 4,25 3,12 -1,25 -9,35 -10,12 -26,13 -41,15 -3,0 -4,5 -1,6 5,1 9,2 14,2 5,1 10,0 15,-1 1,-1 1,-1 2,-1 0,1 0,1 0,1 -1,4 -1,8 -1,12 0,3 -1,7 0,11 1,6 12,6 13,0 1,-7 -1,-14 0,-21 0,-3 0,-5 0,-8 0,0 0,0 0,-1 4,-2 6,-4 9,-7 6,-6 10,-14 12,-23 2,-8 2,-17 1,-26zm-157 -243c0,1 -1,1 -1,2 -1,0 -1,1 -1,1 -1,2 -2,3 -2,4 1,0 1,1 2,0 0,0 1,-2 2,-2 0,-1 0,-1 1,-2 0,0 0,-1 0,-1 0,0 0,-1 0,-1 1,-1 0,-2 -1,-1zm5 4c-1,0 -1,1 -2,1 -1,1 -1,1 -2,2 -1,1 -2,2 -2,4 0,0 1,1 1,0 1,-1 2,-2 3,-3 1,0 1,-1 1,-1 1,-1 1,-2 2,-2 1,-1 -1,-2 -1,-1zm0 5c-2,1 -4,3 -6,6 -1,1 -2,3 -3,4 0,1 0,1 1,1 2,1 3,-2 4,-3 2,-2 4,-5 6,-7 1,-1 -1,-2 -2,-1zm0 7c-1,1 -2,3 -4,5 -1,1 -3,2 -3,4 0,1 0,1 1,1 2,0 4,-2 5,-4 1,-2 2,-3 3,-5 1,-2 -2,-3 -2,-1zm1 5c-2,2 -3,3 -5,5 -1,2 -4,3 -4,6 0,0 0,1 1,1 2,-1 3,-3 5,-4 1,-2 3,-4 5,-6 1,-1 -1,-3 -2,-2zm1 6c-3,4 -6,6 -9,9 -2,2 -6,5 -5,8 0,1 1,1 1,1 2,-1 2,-2 3,-3 2,-2 3,-3 5,-4 2,-3 5,-6 7,-10 1,-1 -1,-3 -2,-1zm1 9c-3,3 -6,6 -9,9 -4,3 -8,6 -10,10 0,1 0,1 1,1 3,-2 6,-5 9,-8 3,-4 7,-7 11,-10 1,-1 0,-3 -2,-2zm-1 8c-3,3 -6,6 -10,9 -2,2 -6,5 -8,8 0,1 1,2 2,1 3,-1 6,-5 9,-7 3,-3 6,-6 9,-9 1,-1 -1,-3 -2,-2zm-7 12c-3,2 -5,4 -7,7 -2,2 -6,4 -6,7 0,1 0,2 1,1 3,0 4,-3 6,-5 2,-3 5,-5 8,-7 1,-2 0,-4 -2,-3zm2 6c-1,2 -2,3 -4,4 -1,1 -3,3 -4,4 -1,2 -6,4 -5,7 0,1 0,1 1,1 1,-1 2,-2 3,-3 1,-1 3,-2 4,-3 1,-2 3,-3 4,-5 2,-1 3,-2 4,-3 1,-2 -2,-4 -3,-2zm2 5c-2,2 -4,4 -6,5 -2,2 -3,4 -5,5 0,1 0,2 0,2 2,2 4,-1 5,-2 2,-2 5,-5 7,-7 2,-1 0,-4 -1,-3zm0 9l-5 4c-1,1 -2,2 -3,4 0,1 2,2 3,1 0,-1 0,-1 1,-1 0,-1 1,-1 2,-2 1,-1 2,-3 4,-4 1,-1 -1,-4 -2,-2zm1 7c-2,2 -5,4 -6,6 -1,1 0,3 2,2 2,-2 4,-4 6,-6 1,-1 -1,-3 -2,-2zm2 5c-2,2 -4,4 -6,6 -1,1 -2,3 -1,5 0,0 1,0 1,0 1,0 1,-1 2,-1 0,-1 1,-2 2,-2 1,-2 2,-4 4,-5 2,-2 -1,-4 -2,-3zm123 -50c0,0 0,0 0,0 0,-2 -2,-2 -3,-1 0,2 -1,2 -1,3 -1,1 -2,2 -2,4 0,1 2,1 2,0 1,0 1,-1 1,-1 1,-1 1,-2 2,-2 0,-1 1,-2 1,-3zm2 4c-2,2 -4,4 -6,7 -1,1 0,2 1,2 1,0 1,0 2,0 2,-2 3,-5 5,-7 1,-2 -1,-4 -2,-2zm2 4c-1,2 -2,3 -3,4 0,1 -1,2 -2,3 0,1 1,2 2,2 1,0 2,-2 3,-3 1,-1 2,-2 3,-4 1,-2 -2,-3 -3,-2zm5 7c-1,1 -3,3 -4,4 -2,1 -3,3 -4,5 -2,1 1,3 2,2 2,-2 3,-4 5,-5 1,-1 3,-3 4,-5 1,-2 -2,-3 -3,-1zm-2 9c-3,2 -5,4 -7,6 -1,1 -2,2 -3,3 0,1 -1,1 -2,2 0,1 0,1 1,2 1,0 1,0 2,-1 -2,2 -3,4 -5,5 -2,2 -4,3 -4,5 0,1 0,1 1,1 2,1 4,-2 5,-3 2,-2 4,-4 6,-6 1,-1 0,-3 -2,-2 1,-1 2,-2 2,-2 2,-3 5,-5 7,-7 2,-1 0,-4 -1,-3zm-8 17c-3,2 -6,5 -8,7 -2,2 1,4 2,2 3,-2 5,-4 8,-7 1,-1 -1,-4 -2,-2zm5 1c-3,3 -6,6 -8,9 -2,2 1,4 3,2 0,0 0,0 0,0 0,0 0,0 0,0 3,-3 5,-6 8,-8 1,-2 -1,-5 -3,-3zm4 5c-3,2 -6,5 -8,8 -2,1 -6,5 -4,7 1,1 1,1 2,1 1,-1 1,-1 1,-2 1,-1 2,-3 3,-4 3,-2 5,-5 8,-7 1,-2 -1,-4 -2,-3zm1 8c-2,2 -4,4 -6,7 -2,1 -3,2 -3,5 0,0 0,1 1,1 2,1 3,-2 3,-3 3,-2 5,-5 8,-8 1,-1 -1,-4 -3,-2zm-2 9c-2,3 -3,5 -5,7 -1,2 -3,3 -2,6 0,1 2,2 3,1 0,0 0,-1 0,-1 0,0 0,0 1,0 0,0 0,0 0,0 0,-2 1,-3 2,-5 1,-2 3,-3 4,-6 2,-2 -2,-4 -3,-2zm-1 11c-2,2 -5,5 -6,9 0,1 3,2 3,0 1,-3 3,-5 5,-7 2,-2 0,-4 -2,-2zm-1 11c-3,5 -5,10 -6,16 0,1 1,1 1,1 2,-2 3,-5 4,-8 1,-3 2,-6 4,-8 0,-2 -3,-3 -3,-1zm-41 -29c-3,2 -6,5 -7,9 0,1 0,1 1,1 3,-3 5,-6 7,-9 1,-1 0,-2 -1,-1zm0 9c-1,2 -3,3 -4,5 -1,1 -3,3 -3,5 0,1 0,1 1,1 1,-1 2,-3 4,-4 1,-2 2,-3 4,-5 1,-1 -1,-3 -2,-2zm4 5c-3,3 -5,6 -8,9 -2,2 -5,4 -4,7 0,0 1,0 1,0 2,-1 4,-4 5,-5 3,-3 6,-6 8,-9 2,-2 0,-4 -2,-2zm1 9c-2,3 -4,5 -7,7 -2,2 -4,4 -5,7 0,1 1,1 2,1 2,-2 4,-5 6,-7 2,-2 5,-4 6,-7 1,-1 -1,-3 -2,-1zm2 11c-2,2 -4,3 -6,5 -2,2 -4,3 -5,6 0,1 1,2 2,1 2,-1 3,-3 5,-4 2,-2 4,-4 6,-6 2,-1 -1,-4 -2,-2zm0 8c-2,3 -4,5 -6,7 -2,2 -4,4 -5,7 0,1 1,2 2,1 2,-1 4,-3 6,-5 2,-2 4,-5 6,-7 2,-2 -1,-4 -3,-3zm-55 -43c-1,1 -2,1 -3,2 0,1 -1,2 -2,2 -1,1 -3,4 -3,6 -1,0 0,1 0,1 3,-1 2,-4 4,-5 1,0 2,-1 2,-1 1,-1 2,-2 3,-3 1,-1 0,-2 -1,-2zm1 6c-1,2 -3,4 -5,6 -1,1 -1,2 -2,3 -1,1 -2,1 -2,2 0,1 0,1 1,1 2,1 3,-3 5,-4 2,-3 4,-4 5,-7 1,-2 -1,-3 -2,-1zm3 6c-2,3 -4,4 -6,6 -2,2 -5,4 -5,7 0,0 1,0 1,0 3,0 4,-3 6,-5 2,-2 4,-4 6,-7 1,-1 -1,-2 -2,-1zm-3 10c-2,2 -3,3 -5,5 -1,1 -3,3 -3,5 0,0 1,0 1,0 1,0 1,-1 2,-1 1,-1 1,-2 2,-2 1,-2 3,-3 4,-5 1,-1 0,-2 -1,-2zm-1 8c-1,2 -3,3 -5,5 -1,1 -4,3 -5,4 0,1 0,2 1,1 2,0 4,-2 5,-3 2,-2 4,-4 6,-5 1,-1 -1,-3 -2,-2zm-20 60c-2,4 -7,10 -5,15 0,0 1,1 1,0 1,-2 2,-5 3,-8 1,-2 2,-4 3,-6 0,-2 -2,-2 -2,-1zm4 4c-1,2 -3,5 -5,8 -1,2 -2,5 -1,7 0,1 1,1 2,0 0,-1 0,-1 0,-3 1,-1 1,-3 2,-4 1,-3 3,-5 4,-7 1,-2 -1,-3 -2,-1zm9 -3c-2,1 -3,3 -4,5 -1,2 -3,4 -4,6 -2,3 -5,8 -4,12 0,1 1,1 2,0 2,-3 3,-7 5,-11 1,-1 2,-3 3,-5 2,-2 2,-4 3,-6 1,-1 -1,-2 -1,-1zm8 1c-3,5 -6,9 -8,13 -2,3 -5,8 -4,12 0,1 1,1 1,0 1,-1 2,-3 2,-5 1,-2 3,-4 4,-6 2,-4 4,-8 7,-13 0,-1 -2,-2 -2,-1zm5 2c-1,2 -3,4 -4,6 -1,3 -2,6 -4,9 -3,5 -7,9 -7,15 0,1 1,1 2,1 1,-1 1,-2 1,-3 1,-1 1,-2 2,-4 2,-3 3,-6 5,-8 1,-3 2,-6 3,-8 1,-3 4,-5 5,-8 0,-1 -2,-2 -3,0zm5 9c-3,5 -6,10 -8,15 -2,4 -5,10 -4,14 0,1 1,1 2,0 1,-2 1,-4 2,-6 0,-3 2,-5 3,-8 2,-5 5,-9 7,-14 1,-1 -1,-2 -2,-1zm7 5c-1,2 -3,5 -4,7 -2,3 -4,6 -6,9 -2,4 -6,11 -5,16 0,1 2,1 2,0 1,-2 2,-5 2,-7 2,-3 3,-7 5,-10 3,-5 7,-9 9,-15 0,-1 -2,-2 -3,0zm5 8c-4,6 -7,12 -10,18 -1,3 -3,6 -4,9 -1,3 -2,6 -2,9 0,0 1,1 2,0 1,-2 2,-5 3,-8 1,-3 2,-5 3,-8 3,-7 6,-13 10,-19 1,-1 -1,-2 -2,-1zm-7 26c-3,5 -5,10 -6,15 0,1 1,1 1,1 3,-5 4,-10 7,-15 0,-2 -2,-3 -2,-1zm19 -42c-2,3 -4,7 -5,11 0,1 1,1 1,0 2,-3 4,-7 6,-11 0,-1 -2,-2 -2,0zm11 -5c-3,4 -6,10 -8,15 -1,4 -5,10 -4,14 1,1 1,1 2,0 1,-2 1,-4 1,-5 1,-3 2,-5 3,-8 2,-5 4,-10 7,-15 1,-1 -1,-2 -1,-1zm4 4c-1,4 -3,8 -5,11 -1,2 -3,6 -1,9 0,0 1,0 1,0 1,-1 1,-2 1,-3 1,-2 1,-4 2,-6 2,-3 4,-6 5,-10 0,-1 -2,-2 -3,-1zm5 7c-2,2 -2,4 -3,6 -1,2 -2,3 -2,5 0,1 1,1 2,1 0,0 1,0 1,0 0,-1 0,-1 0,-2 0,-1 1,-2 2,-4 0,-1 1,-3 2,-5 1,-1 -1,-2 -2,-1zm8 0c-1,2 -9,12 -4,13 1,0 2,-3 2,-5 2,-2 3,-4 5,-6 0,-2 -2,-4 -3,-2zm6 3c-1,2 -2,3 -3,5 -1,2 -2,5 0,5 1,0 2,0 2,-1 0,-1 0,-2 1,-3 1,-2 2,-3 3,-5 1,-2 -2,-3 -3,-1zm7 2c-2,3 -4,6 -6,9 -1,2 2,3 3,1 2,-2 4,-5 6,-8 1,-2 -2,-4 -3,-2zm7 2c-3,2 -4,4 -5,7 -1,2 -4,5 -2,8 0,0 1,0 1,0 2,-1 3,-4 3,-6 1,-2 3,-5 5,-7 1,-2 -1,-4 -2,-2zm2 7c-2,2 -5,5 -6,9 0,2 -1,4 1,5 1,1 3,0 2,-1 0,-2 1,-4 2,-5 1,-2 2,-4 4,-6 1,-2 -2,-4 -3,-2zm6 2c-2,2 -3,5 -5,8 -1,2 -3,5 -1,8 0,0 1,0 1,0 2,-2 2,-5 4,-7 1,-3 3,-5 4,-8 1,-2 -2,-3 -3,-1zm2 10c-3,6 -6,11 -8,17 0,2 3,3 3,1 2,-5 5,-11 7,-16 1,-2 -2,-3 -2,-2zm-63 68c0,4 -3,7 -3,12 0,0 1,1 1,0 2,-1 2,-4 2,-6 1,-2 2,-4 2,-6 1,-2 -2,-2 -2,0zm6 4c-1,3 -3,6 -4,9 -1,2 -2,5 -1,8 1,0 1,0 2,0 1,-2 1,-5 2,-7 1,-3 2,-6 3,-9 1,-2 -2,-2 -2,-1zm7 3c-2,2 -2,6 -4,9 -1,2 -3,6 -2,9 1,0 1,0 2,0 2,-2 2,-5 3,-8 0,-1 1,-2 1,-3 1,-1 1,-4 2,-5 1,-2 -1,-4 -2,-2zm4 11c-1,3 -5,8 -2,11 0,0 0,1 1,0 1,-1 1,-3 1,-5 1,-1 2,-3 3,-5 1,-2 -2,-3 -3,-1zm8 0c-1,2 -2,5 -3,7 -1,2 -2,4 -1,6 0,1 1,1 1,0 2,-1 2,-3 3,-5 1,-2 2,-4 3,-7 1,-1 -2,-3 -3,-1zm10 -5c-2,3 -4,7 -6,10 -2,4 -2,7 -4,11 -1,2 2,4 3,2 2,-3 3,-7 4,-11 2,-3 4,-7 6,-10 1,-2 -2,-4 -3,-2zm8 -3c-3,5 -5,10 -8,15 -1,3 -6,9 -3,12 0,1 1,1 2,0 1,0 1,-2 2,-3 1,-3 2,-6 3,-8 2,-5 4,-10 7,-14 0,-2 -2,-4 -3,-2zm5 5c0,2 -2,4 -3,6 -1,3 -2,5 -4,7 -1,1 -1,3 -2,5 -1,2 -3,4 -2,6 0,1 1,1 2,1 4,-2 4,-8 6,-11 2,-3 3,-5 4,-8 1,-2 2,-4 2,-6 0,-2 -3,-2 -3,0z"/>
  <path class="fil0" d="M614 308c-5,3 -9,4 -14,6 -4,2 -8,3 -11,4 -4,1 -7,2 -10,2 -3,0 -6,1 -9,1 -4,0 -8,-1 -11,-2 -3,-2 -5,-4 -7,-8 -2,-3 -4,-8 -5,-13 -1,-6 -1,-13 -1,-21l0 -9c0,-4 0,-9 0,-15 0,-5 0,-11 0,-18 0,-6 0,-12 0,-19 1,-7 1,-13 1,-19 0,-6 0,-12 0,-17 0,-6 1,-10 1,-14 0,-8 0,-16 1,-24 0,-8 1,-16 2,-24l-1 0c-1,3 -3,7 -4,10 -2,4 -4,9 -7,15 -6,13 -12,27 -18,42 -7,14 -13,29 -20,44 -6,15 -13,30 -19,45 -7,16 -13,31 -20,46l-5 0c-1,-5 -3,-10 -5,-17 -2,-6 -4,-13 -7,-20 -2,-8 -5,-16 -8,-24 -3,-8 -6,-16 -8,-25 -3,-8 -6,-17 -9,-25 -3,-9 -6,-17 -9,-25 -2,-8 -5,-15 -8,-22 -2,-7 -4,-13 -6,-18 -2,-7 -4,-12 -6,-17 -2,-5 -3,-9 -4,-13l-1 1c0,2 0,4 0,6 0,2 0,4 0,6l0 17c0,11 0,23 0,34 -1,12 -1,23 -2,34 0,11 -1,22 -2,32 0,11 -1,20 -2,29 -1,7 -1,13 -2,18 0,6 -1,10 -2,13 -1,4 -1,6 -2,8 -2,2 -3,4 -4,5 -2,1 -4,2 -6,2 -2,0 -5,0 -8,0l-3 0c-1,0 -2,0 -2,0 -1,0 -3,0 -4,0l-1 -1c3,-7 6,-14 8,-22 3,-9 5,-17 7,-27 2,-9 4,-19 5,-29 1,-9 3,-19 3,-29 1,-10 2,-20 3,-30 0,-9 1,-18 1,-27 0,-9 0,-17 1,-24 0,-7 0,-14 0,-19 0,-4 -1,-7 -1,-9 0,-2 -1,-4 -3,-5 -1,-2 -2,-3 -5,-3 -2,-1 -4,-1 -8,-1 -2,0 -5,0 -8,1 -3,0 -6,0 -9,1l-2 -9c13,-3 24,-5 32,-7 8,-1 14,-2 19,-2 3,0 5,0 7,1 1,0 3,1 4,2 2,1 3,3 4,4 1,2 2,4 3,7 4,10 7,21 12,33 4,11 8,23 12,35 4,12 9,24 13,36 4,12 8,24 12,35 2,5 3,9 4,13 2,3 3,7 4,10 1,3 2,6 3,9 1,3 2,6 3,9l0 0c1,-3 3,-6 4,-9 1,-3 2,-6 3,-9 2,-3 3,-7 5,-10 1,-4 3,-8 5,-12 5,-11 10,-23 15,-35 5,-11 11,-24 16,-36 6,-12 11,-25 17,-38 6,-13 11,-26 17,-38 1,-2 2,-3 3,-4 1,-1 2,-1 3,-2 1,0 3,-1 4,-1 2,0 3,0 4,0 2,0 4,0 7,0 2,1 4,2 6,3 -1,11 -2,22 -2,32 -1,11 -2,21 -2,31 -1,9 -1,19 -2,29 0,9 -1,19 -1,29 0,9 0,19 0,30 0,10 0,20 0,31 0,8 0,14 1,19 0,5 1,10 3,13 1,3 4,6 6,7 3,2 6,2 10,2 1,0 3,0 4,0 2,0 3,0 4,0 2,0 3,-1 5,-1 2,-1 4,-1 6,-2l3 8z"/>
  <path id="1" class="fil0" d="M654 87c1,3 2,6 4,10 2,3 4,8 6,13 2,5 4,10 6,16 3,5 5,11 7,17 3,6 5,12 7,18 3,6 5,12 7,18 2,5 3,9 4,13 2,5 3,9 4,13l0 0c4,-8 7,-16 10,-23 4,-8 7,-16 11,-23 3,-8 6,-15 9,-22 3,-8 7,-14 9,-20 3,-7 6,-12 9,-17 2,-5 4,-10 6,-13 1,-3 3,-4 4,-6 1,-1 3,-2 4,-3 2,0 3,-1 5,-1 2,0 3,0 5,0 1,0 2,0 4,0 1,0 2,0 4,1 1,0 2,1 4,1 1,1 2,1 3,2 -10,14 -19,27 -27,39 -8,12 -14,23 -20,34 -6,10 -11,19 -15,27 -4,8 -7,15 -9,21 -2,3 -3,7 -5,10 -1,3 -2,7 -3,11 0,4 -1,8 -2,13 0,5 0,11 -1,18 0,4 0,8 0,13 0,5 -1,9 -1,14 0,5 0,11 0,17 -1,5 -1,11 -1,18l-25 3 -1 0c0,-9 0,-18 1,-27 0,-9 1,-17 1,-25 0,-7 0,-14 0,-19 0,-6 0,-10 0,-12 0,-5 0,-9 -1,-14 0,-5 -1,-9 -3,-15 -2,-6 -3,-12 -6,-18 -2,-6 -4,-13 -7,-19 -2,-7 -5,-13 -8,-20 -2,-6 -5,-12 -8,-18 -2,-5 -4,-10 -7,-15 -2,-4 -4,-8 -5,-11 -1,-2 -2,-5 -4,-6 -1,-2 -3,-3 -5,-4 -1,-1 -3,-2 -5,-3 -2,0 -5,0 -8,0 -2,0 -5,0 -7,0 -3,0 -6,1 -9,1l-1 -9c10,-3 19,-5 26,-6 7,-2 12,-2 17,-2 4,0 7,1 10,2 3,2 5,5 7,8z"/>
  <path id="2" class="fil0" d="M909 103c3,8 6,18 9,29 3,11 6,25 10,40 3,16 7,33 11,53 4,20 8,43 12,68l1 0c6,-12 12,-25 18,-37 6,-12 12,-24 18,-36 5,-12 10,-23 15,-34 4,-10 8,-21 11,-30 3,-9 6,-18 8,-26 2,-8 2,-14 2,-20 0,-15 -4,-26 -14,-34l1 -2c1,0 2,-1 4,-1 1,0 3,0 4,0 4,0 7,0 11,1 3,1 6,3 9,5 2,2 5,4 6,8 2,3 3,7 3,12 0,5 -1,11 -3,19 -2,8 -6,17 -10,28 -4,10 -8,22 -14,35 -6,13 -13,27 -20,42 -7,15 -15,30 -23,46 -9,16 -18,33 -28,50l-17 1 -2 0c-10,-55 -20,-99 -27,-134 -8,-34 -14,-58 -20,-73 -1,-3 -2,-6 -4,-9 -1,-3 -3,-5 -5,-7 -2,-1 -4,-2 -6,-3 -3,-1 -6,-1 -10,-1 -2,0 -4,0 -7,0 -3,0 -6,1 -10,1l-1 -9c11,-3 20,-5 27,-6 7,-2 13,-2 18,-2 4,0 7,0 9,1 2,1 4,3 6,5 1,2 3,5 4,8 1,3 3,7 4,12z"/>
  <path id="3" class="fil0" d="M1072 260c-3,7 -5,13 -7,18 -1,5 -3,10 -4,14 -2,4 -3,7 -4,10 -1,3 -2,5 -3,7 -1,3 -2,5 -4,6 -1,2 -3,3 -4,4 -2,0 -3,1 -5,1 -2,0 -4,0 -6,0 -1,0 -3,0 -5,0 -1,0 -3,0 -4,0l-2 -1c8,-18 16,-35 24,-52 7,-16 14,-32 21,-47 -1,-2 -2,-4 -2,-6 0,-2 2,-4 7,-4 12,-28 24,-52 34,-74 9,-21 18,-38 26,-53 0,-1 1,-2 2,-3 2,-1 3,-1 4,-2 1,0 3,-1 4,-1 2,0 3,0 4,0 2,0 4,0 6,0 2,1 4,1 7,2 4,24 8,46 12,65 3,19 7,36 10,51 3,15 6,28 9,40 2,11 5,20 8,28 2,8 5,15 7,20 3,5 5,9 8,12 3,3 6,5 9,7 3,1 6,1 10,1 2,0 5,0 7,-1 2,0 5,-1 8,-2l3 9c-8,4 -16,7 -23,9 -7,2 -14,3 -19,3 -3,0 -6,-1 -9,-2 -3,-1 -6,-3 -8,-6 -3,-3 -6,-7 -8,-12 -2,-4 -5,-11 -7,-18 -3,-7 -5,-16 -8,-26 -3,-10 -5,-22 -8,-35 -13,0 -26,0 -38,0 -13,1 -26,1 -39,2 -3,7 -5,14 -7,20 -3,6 -4,11 -6,16zm87 -51c-1,-7 -3,-15 -5,-23 -1,-8 -3,-17 -5,-26 -2,-10 -3,-19 -5,-30 -2,-10 -4,-20 -5,-30l-1 0c-10,20 -19,40 -27,59 -8,18 -14,35 -21,51 12,0 24,-1 35,-1 11,0 22,0 34,0z"/>
  <path id="4" class="fil0" d="M1263 255c-1,2 -1,3 -1,5 0,1 0,3 0,4 0,8 1,15 3,20 2,6 5,10 9,14 4,3 9,6 14,7 6,2 12,3 19,3 7,0 13,-1 19,-3 7,-2 12,-5 17,-9 4,-3 8,-8 11,-14 3,-5 4,-12 4,-19 0,-5 -1,-9 -2,-13 -1,-4 -3,-8 -5,-11 -2,-3 -5,-6 -8,-9 -3,-3 -7,-6 -10,-8 -4,-2 -8,-5 -12,-7 -4,-2 -8,-5 -12,-7 -4,-2 -9,-5 -13,-7 -4,-3 -8,-5 -12,-8 -4,-3 -8,-6 -11,-9 -4,-4 -7,-7 -9,-11 -3,-4 -5,-9 -6,-13 -1,-5 -2,-11 -2,-17 0,-7 1,-14 3,-20 2,-6 4,-12 7,-18 4,-5 8,-10 13,-14 4,-4 9,-7 15,-10 6,-3 11,-5 18,-7 6,-1 13,-2 19,-2 3,0 6,0 10,1 3,0 7,0 10,1 4,1 7,2 10,3 3,1 6,2 9,4 2,1 4,3 5,4 2,2 3,4 3,6 0,2 0,4 0,7 -1,3 -1,7 -1,10 0,4 0,8 0,13 0,4 -1,9 -1,14l-10 0c0,-3 0,-5 0,-7 0,-7 -1,-13 -3,-19 -2,-5 -5,-9 -9,-13 -3,-3 -8,-6 -13,-7 -5,-2 -11,-3 -18,-3 -6,0 -12,1 -17,3 -6,2 -11,5 -15,9 -4,4 -7,8 -9,13 -2,6 -4,11 -4,17 0,6 1,10 2,14 2,4 4,8 6,12 2,3 5,6 8,9 3,3 7,6 11,8 3,3 7,5 11,7 5,3 9,5 13,7 4,2 9,5 13,7 4,3 8,5 12,8 4,3 8,6 11,9 4,3 7,7 9,11 2,3 4,8 6,12 1,5 2,10 2,16 0,10 -1,18 -4,25 -3,8 -6,14 -10,20 -5,5 -10,9 -15,13 -6,4 -12,7 -18,9 -6,3 -12,4 -18,5 -6,1 -12,2 -17,2 -7,0 -13,-1 -19,-2 -6,-1 -12,-2 -16,-3 -5,-2 -8,-4 -11,-6 -3,-2 -4,-4 -4,-6 0,-4 0,-11 1,-20 0,-8 0,-19 1,-30l11 0z"/>
  <path id="5" class="fil0" d="M1671 308c-5,3 -10,4 -14,6 -4,2 -8,3 -12,4 -3,1 -7,2 -10,2 -3,0 -6,1 -9,1 -4,0 -7,-1 -10,-2 -3,-2 -6,-4 -8,-8 -2,-3 -3,-8 -4,-13 -1,-6 -2,-13 -2,-21l0 -9c0,-4 1,-9 1,-15 0,-5 0,-11 0,-18 0,-6 0,-12 0,-19 0,-7 0,-13 0,-19 0,-6 1,-12 1,-17 0,-6 0,-10 0,-14 1,-8 1,-16 1,-24 1,-8 1,-16 2,-24l-1 0c-1,3 -2,7 -4,10 -2,4 -4,9 -6,15 -6,13 -13,27 -19,42 -6,14 -13,29 -19,44 -7,15 -13,30 -20,45 -6,16 -13,31 -19,46l-5 0c-2,-5 -4,-10 -6,-17 -2,-6 -4,-13 -6,-20 -3,-8 -6,-16 -8,-24 -3,-8 -6,-16 -9,-25 -3,-8 -6,-17 -9,-25 -3,-9 -6,-17 -8,-25 -3,-8 -6,-15 -8,-22 -2,-7 -5,-13 -7,-18 -2,-7 -4,-12 -5,-17 -2,-5 -3,-9 -5,-13l0 1c0,2 0,4 0,6 0,2 0,4 0,6l0 17c0,11 0,23 -1,34 0,12 -1,23 -1,34 -1,11 -1,22 -2,32 -1,11 -2,20 -2,29 -1,7 -2,13 -2,18 -1,6 -2,10 -2,13 -1,4 -2,6 -3,8 -1,2 -2,4 -4,5 -1,1 -3,2 -6,2 -2,0 -4,0 -8,0l-3 0c0,0 -1,0 -2,0 -1,0 -2,0 -3,0l-2 -1c3,-7 6,-14 9,-22 2,-9 5,-17 6,-27 2,-9 4,-19 5,-29 2,-9 3,-19 4,-29 1,-10 2,-20 2,-30 1,-9 1,-18 1,-27 1,-9 1,-17 1,-24 0,-7 0,-14 0,-19 0,-4 0,-7 -1,-9 0,-2 -1,-4 -2,-5 -1,-2 -3,-3 -5,-3 -2,-1 -5,-1 -8,-1 -2,0 -5,0 -8,1 -3,0 -6,0 -10,1l-1 -9c13,-3 23,-5 31,-7 8,-1 15,-2 20,-2 2,0 4,0 6,1 2,0 3,1 5,2 1,1 2,3 3,4 1,2 2,4 3,7 4,10 8,21 12,33 4,11 8,23 13,35 4,12 8,24 12,36 5,12 9,24 13,35 1,5 3,9 4,13 1,3 2,7 3,10 1,3 2,6 3,9 1,3 2,6 3,9l1 0c1,-3 2,-6 3,-9 1,-3 3,-6 4,-9 1,-3 3,-7 4,-10 2,-4 3,-8 5,-12 5,-11 10,-23 16,-35 5,-11 10,-24 16,-36 5,-12 11,-25 16,-38 6,-13 12,-26 18,-38 0,-2 1,-3 2,-4 1,-1 2,-1 4,-2 1,0 2,-1 4,-1 1,0 2,0 3,0 2,0 5,0 7,0 2,1 5,2 7,3 -1,11 -2,22 -3,32 -1,11 -1,21 -2,31 0,9 -1,19 -1,29 -1,9 -1,19 -1,29 0,9 -1,19 -1,30 0,10 0,20 0,31 0,8 0,14 1,19 1,5 2,10 3,13 2,3 4,6 7,7 2,2 6,2 9,2 2,0 3,0 5,0 1,0 2,0 4,0 1,0 3,-1 5,-1 1,-1 3,-1 6,-2l3 8z"/>
  <path id="6" class="fil0" d="M1706 260c-3,7 -5,13 -7,18 -2,5 -3,10 -5,14 -1,4 -2,7 -3,10 -1,3 -2,5 -3,7 -1,3 -3,5 -4,6 -1,2 -3,3 -4,4 -2,0 -4,1 -6,1 -1,0 -3,0 -5,0 -2,0 -3,0 -5,0 -2,0 -3,0 -5,0l-1 -1c8,-18 16,-35 23,-52 8,-16 15,-32 22,-47 -1,-2 -2,-4 -2,-6 0,-2 2,-4 6,-4 13,-28 24,-52 34,-74 10,-21 19,-38 26,-53 1,-1 2,-2 3,-3 1,-1 2,-1 4,-2 1,0 2,-1 4,-1 1,0 3,0 4,0 2,0 4,0 6,0 2,1 4,1 6,2 5,24 9,46 12,65 4,19 7,36 10,51 3,15 6,28 9,40 3,11 6,20 8,28 3,8 5,15 8,20 2,5 5,9 8,12 3,3 6,5 9,7 3,1 6,1 9,1 3,0 5,0 8,-1 2,0 5,-1 8,-2l3 9c-8,4 -16,7 -23,9 -8,2 -14,3 -20,3 -3,0 -6,-1 -9,-2 -2,-1 -5,-3 -8,-6 -2,-3 -5,-7 -7,-12 -3,-4 -5,-11 -8,-18 -2,-7 -5,-16 -7,-26 -3,-10 -6,-22 -9,-35 -12,0 -25,0 -38,0 -12,1 -25,1 -38,2 -3,7 -5,14 -8,20 -2,6 -4,11 -5,16zm87 -51c-2,-7 -3,-15 -5,-23 -2,-8 -3,-17 -5,-26 -2,-10 -4,-19 -5,-30 -2,-10 -4,-20 -6,-30l0 0c-10,20 -19,40 -27,59 -8,18 -15,35 -21,51 12,0 24,-1 35,-1 11,0 22,0 34,0z"/>
 </g>
</svg>
