<?xml version="1.0" encoding="UTF-8"?>
<!DOCTYPE svg PUBLIC "-//W3C//DTD SVG 1.1//EN" "http://www.w3.org/Graphics/SVG/1.1/DTD/svg11.dtd">
<!-- Creator: CorelDRAW X7 -->
<svg xmlns="http://www.w3.org/2000/svg" xml:space="preserve" width="2.16535in" height="0.984252in" version="1.1" style="shape-rendering:geometricPrecision; text-rendering:geometricPrecision; image-rendering:optimizeQuality; fill-rule:evenodd; clip-rule:evenodd"
viewBox="0 0 2165 984"
 xmlns:xlink="http://www.w3.org/1999/xlink">
 <defs>
  <style type="text/css">
   <![CDATA[
    .fil0 {fill:white}
    .fil1 {fill:white;fill-rule:nonzero}
   ]]>
  </style>
 </defs>
 <g id="Layer_x0020_1">
  <metadata id="CorelCorpID_0Corel-Layer"/>
  <rect class="fil0" width="2165" height="984"/>
  <g id="_2358707358160">
   <path class="fil1" d="M1113 319c0,0 0,0 0,0 -1,-8 -3,-15 -9,-22 -7,-9 -18,-11 -29,-5 -10,5 -16,16 -19,26 -1,3 -1,7 -2,10 0,-3 -1,-6 -2,-10 -3,-12 -4,-25 -3,-38 0,-11 5,-24 0,-34 0,-2 0,-4 1,-6 3,-14 12,-22 26,-25 11,-2 22,4 28,13 8,11 9,27 10,40 2,17 1,34 -1,51zm-16 34c-9,6 -22,9 -30,1 -2,-2 -3,-3 -5,-5 1,-1 2,-1 2,-2 -1,-11 0,-22 5,-32 4,-8 16,-19 24,-9 8,11 4,25 6,37 0,3 1,5 2,6 -1,1 -3,3 -4,4zm-73 -81c0,5 -1,10 -1,15 -3,-1 -6,0 -9,2 -4,0 -8,1 -13,3 -8,3 -16,5 -25,8 -6,2 -11,4 -17,6 0,-8 0,-16 1,-24 0,-10 -1,-20 0,-31 2,-17 15,-32 33,-33 17,-1 26,13 29,27 2,8 2,17 2,27zm-85 8c1,10 1,21 6,30 -7,3 -14,5 -20,8 -14,5 -28,11 -41,18 1,-11 0,-23 0,-35 -1,-19 -1,-37 -1,-56 1,-18 2,-37 2,-56 1,-18 0,-36 -1,-54 -1,-17 -4,-34 -2,-51 2,-13 8,-28 19,-36 10,-7 23,-7 33,-1 12,7 15,22 15,35 2,22 -2,43 -2,65 0,12 0,23 0,35 1,6 1,12 0,17 0,6 2,11 4,16 -6,7 -10,15 -12,24 -4,14 -2,27 0,41zm274 164c0,-3 -1,-5 -1,-8 -2,-19 -2,-37 -3,-56 -1,-19 -2,-38 -2,-57 0,-18 2,-37 2,-55 0,-19 -2,-37 -2,-56 0,-16 1,-32 2,-48 2,-14 2,-29 -4,-43 -5,-14 -16,-25 -31,-30 -13,-4 -27,-1 -39,4 -14,6 -23,18 -28,32 -5,14 -3,29 -1,44 1,8 2,15 4,23 0,2 1,4 1,7 -21,-14 -51,-10 -67,8 -3,3 -5,6 -6,9 -10,-15 -26,-25 -45,-24 -8,0 -15,2 -22,5 0,-3 0,-5 0,-8 1,-10 1,-19 1,-29 0,-9 0,-17 1,-26 0,-9 1,-18 2,-27 2,-33 1,-74 -35,-87 -14,-6 -31,-4 -44,3 -14,7 -23,20 -29,34 -7,16 -8,33 -6,51 1,17 2,35 3,53 2,32 -2,64 -2,96 0,15 1,31 2,46 1,14 3,27 4,40 -10,8 -19,17 -25,28 -16,32 -5,70 1,103l0 2c7,-7 14,-15 21,-21 0,-3 -1,-5 -1,-7 -4,-17 -8,-35 -7,-52 2,-14 10,-25 21,-34 29,-21 63,-29 95,-42 9,-4 18,-8 27,-12 3,-1 7,-4 11,-5 2,4 5,8 7,12 3,5 0,12 0,17 -1,10 -3,19 -12,25 -8,7 -18,10 -27,13 -9,2 -20,3 -27,8 -10,7 -13,18 -9,28 7,-3 15,-5 22,-8 0,0 0,0 -1,-1 2,-1 6,-2 10,-3 21,-4 44,-12 57,-30 3,-4 5,-8 7,-13 4,11 11,20 21,26 15,8 32,6 47,-1 32,-16 35,-55 35,-87 0,-25 0,-54 -15,-75 0,-1 0,-1 0,-2 1,-5 1,-9 1,-14 0,-8 -1,-17 -2,-26 -1,-14 -2,-28 2,-42 7,-21 39,-30 52,-10 8,11 8,24 7,37 0,6 -1,13 -2,19 -1,9 -1,18 -1,28 0,18 2,37 2,56 -1,18 -2,36 -3,55 -1,30 1,61 2,92 1,6 1,11 1,17 10,5 19,11 28,18zm-281 -403c-1,1 -2,2 -3,3 -1,1 -1,3 -2,4 -1,2 -3,4 -2,6 0,1 1,1 2,1 1,-1 3,-4 4,-5 0,-1 1,-2 1,-3 0,-1 1,-1 1,-2 0,-1 0,-1 1,-2 1,-1 -1,-2 -2,-2zm8 7c-1,1 -2,2 -3,3 -1,1 -2,2 -3,3 -2,1 -5,4 -5,7 0,1 1,2 2,1 3,-1 4,-4 6,-5 1,-1 2,-2 2,-3 1,-1 2,-3 3,-4 1,-1 -1,-3 -2,-2zm1 9c-4,4 -8,7 -11,11 -2,3 -5,6 -5,9 0,1 0,1 1,1 3,1 5,-3 7,-5 3,-5 7,-9 11,-13 1,-2 -1,-5 -3,-3zm-1 13c-2,4 -4,6 -6,9 -2,3 -6,5 -6,9 0,0 1,1 1,1 4,0 7,-4 9,-7 3,-3 5,-6 7,-10 1,-3 -4,-5 -5,-2zm3 10c-3,3 -6,6 -10,9 -2,3 -7,7 -7,11 -1,1 0,2 2,2 3,-1 6,-5 8,-8 4,-3 7,-7 10,-10 3,-3 -1,-6 -3,-4zm0 11c-4,7 -10,12 -16,18 -4,3 -10,8 -9,14 0,1 2,2 3,1 3,-1 4,-3 6,-5 2,-3 5,-6 7,-8 6,-5 11,-11 14,-17 1,-3 -3,-6 -5,-3zm4 17c-6,5 -12,10 -18,15 -6,6 -14,12 -18,20 -1,1 0,2 2,2 6,-4 11,-10 16,-15 6,-7 13,-13 20,-18 2,-2 0,-6 -2,-4zm-3 15c-6,5 -12,10 -17,16 -5,4 -12,9 -15,15 -1,2 0,3 2,2 6,-2 12,-9 17,-13 5,-6 11,-11 17,-16 2,-3 -2,-7 -4,-4zm-13 21c-4,4 -9,8 -13,13 -4,4 -10,8 -11,14 0,1 1,2 2,2 5,-2 8,-7 12,-11 4,-4 8,-9 13,-13 3,-2 0,-7 -3,-5zm4 12c-1,3 -4,5 -7,7 -2,2 -5,5 -7,7 -3,3 -13,8 -10,13 0,1 1,2 1,1 3,0 5,-3 7,-4 2,-2 4,-4 7,-7 2,-2 5,-5 8,-7 2,-2 5,-4 6,-7 2,-3 -3,-6 -5,-3zm3 9c-3,3 -7,6 -10,10 -3,3 -6,5 -9,9 0,1 0,2 0,3 3,4 7,-2 8,-4 5,-4 9,-9 14,-13 3,-2 0,-7 -3,-5zm0 16l-8 8c-2,2 -5,4 -5,6 -1,3 3,5 5,2 0,0 0,-1 1,-1 1,-1 2,-2 3,-4 3,-2 5,-5 8,-7 2,-3 -2,-7 -4,-4zm3 13c-4,4 -9,7 -12,12 -1,2 1,4 3,3 5,-3 8,-8 12,-12 2,-2 -1,-5 -3,-3zm3 10c-4,3 -7,7 -10,11 -2,2 -5,6 -2,9 0,0 1,0 2,0 1,-1 1,-2 2,-3 1,-1 3,-2 4,-3 3,-3 5,-7 8,-10 3,-2 -2,-7 -4,-4zm226 -93c0,0 0,0 0,0 0,-3 -4,-3 -4,-1 -1,2 -3,4 -4,5 -1,3 -2,4 -2,7 0,2 3,3 4,1 0,-1 1,-2 2,-3 1,-1 1,-2 2,-3 2,-2 2,-4 2,-6zm4 7c-3,5 -7,9 -11,13 -1,2 0,5 2,5 2,0 2,-1 3,-1 4,-4 7,-9 10,-13 2,-3 -2,-6 -4,-4zm4 9c-2,2 -3,5 -5,7 -1,2 -3,3 -4,5 -1,2 1,4 3,4 2,0 4,-3 5,-5 2,-3 4,-5 6,-8 2,-3 -3,-6 -5,-3zm9 11c-2,4 -5,6 -8,8 -3,2 -5,6 -7,9 -3,3 2,6 5,4 3,-3 5,-6 8,-9 3,-2 6,-5 8,-8 2,-4 -4,-7 -6,-4zm-4 18c-5,3 -8,6 -12,10 -2,2 -3,4 -5,5 -2,2 -4,3 -4,5 -1,1 -1,2 1,3 1,0 3,0 4,0 -3,3 -6,6 -10,9 -2,2 -7,5 -7,9 0,1 0,2 1,2 4,0 8,-5 10,-7 4,-4 8,-7 11,-11 2,-2 0,-5 -3,-4 2,-1 3,-3 4,-4 3,-4 8,-9 12,-12 4,-2 1,-7 -2,-5zm-15 31c-5,4 -10,8 -15,13 -2,3 2,7 5,4 5,-4 10,-8 14,-13 3,-3 -1,-7 -4,-4zm10 2c-5,5 -11,10 -16,17 -2,3 3,6 6,4 0,0 0,0 0,0 0,0 0,-1 0,-1 5,-5 10,-11 15,-16 3,-3 -2,-7 -5,-4zm7 9c-6,4 -10,9 -15,14 -3,3 -10,9 -6,14 0,1 1,1 2,1 2,-1 3,-2 4,-3 1,-3 3,-5 5,-7 4,-5 8,-10 14,-14 2,-3 -1,-7 -4,-5zm2 14c-4,4 -8,8 -12,13 -2,3 -5,5 -5,9 0,2 1,3 3,3 3,1 4,-4 6,-5 4,-5 8,-11 13,-15 3,-3 -1,-8 -5,-5zm-4 18c-2,4 -6,8 -9,11 -2,4 -5,7 -4,11 0,3 4,4 6,2 0,0 0,0 0,0 1,-1 1,-1 1,-2 0,0 0,0 0,0 1,-3 2,-5 4,-7 3,-4 6,-8 8,-11 3,-4 -3,-8 -6,-4zm-1 18c-4,5 -10,11 -11,17 -1,4 4,5 5,2 3,-6 6,-11 10,-15 2,-2 -1,-6 -4,-4zm-3 21c-4,10 -9,19 -11,30 0,2 2,2 3,1 4,-3 5,-9 7,-14 1,-5 4,-10 6,-15 1,-3 -3,-5 -5,-2zm-75 -54c-6,5 -11,11 -13,18 0,1 1,2 2,1 5,-5 9,-11 13,-16 2,-2 -1,-4 -2,-3zm0 19c-2,2 -5,5 -7,8 -3,2 -6,6 -6,9 0,1 1,3 2,2 3,-2 5,-5 7,-8 2,-3 5,-5 8,-8 2,-2 -1,-6 -4,-3zm8 8c-5,5 -10,11 -16,16 -3,3 -9,8 -6,13 0,1 1,1 1,1 4,-2 7,-7 10,-10 5,-6 10,-11 15,-17 2,-2 -1,-6 -4,-3zm1 16c-3,5 -7,9 -12,13 -3,4 -8,7 -10,12 0,3 2,4 4,3 4,-4 7,-9 11,-12 4,-4 8,-8 12,-13 1,-3 -3,-5 -5,-3zm4 20c-4,4 -8,7 -12,11 -3,3 -7,5 -8,10 -1,1 2,3 3,2 4,-2 7,-5 10,-8 3,-3 7,-7 11,-10 3,-3 -1,-7 -4,-5zm1 16c-4,4 -8,9 -12,13 -3,4 -7,8 -9,13 -1,1 2,3 3,2 5,-3 8,-6 11,-10 4,-4 8,-9 12,-13 3,-3 -2,-8 -5,-5zm-102 -79c-2,1 -3,2 -5,3 -1,2 -2,3 -4,5 -3,1 -6,6 -7,10 0,0 1,1 2,1 4,-1 4,-6 7,-8 1,-1 3,-2 3,-3 2,-2 3,-3 6,-5 2,-1 0,-4 -2,-3zm2 10c-2,5 -6,8 -10,11 -1,2 -2,4 -3,6 -1,1 -3,3 -4,5 0,0 1,1 2,1 4,1 6,-5 9,-8 3,-4 8,-8 10,-13 1,-3 -3,-5 -4,-2zm5 11c-3,5 -8,8 -11,12 -3,3 -8,7 -9,12 0,1 1,1 2,1 5,0 7,-6 10,-9 4,-4 9,-8 12,-13 1,-3 -3,-5 -4,-3zm-5 20c-3,2 -6,5 -9,8 -2,3 -6,5 -5,9 0,1 1,1 2,1 1,-1 2,-2 3,-3 1,-1 2,-3 3,-4 3,-3 5,-6 8,-8 2,-1 0,-5 -2,-3zm-2 14c-3,3 -6,6 -9,9 -3,2 -7,4 -9,8 0,1 0,2 2,2 3,-1 6,-4 9,-6 4,-4 7,-7 10,-10 2,-2 -1,-5 -3,-3zm-37 110c-2,5 -7,12 -9,19 2,-1 4,-1 6,-2 0,-1 1,-2 1,-3 2,-5 4,-9 5,-13 1,-2 -2,-3 -3,-1zm8 7c-2,3 -4,6 -6,9 2,0 4,-1 6,-1 1,-2 2,-4 3,-7 2,-2 -2,-4 -3,-1zm15 -6c-2,3 -4,7 -6,10 -1,1 -1,1 -2,2 3,0 5,-1 7,-1 2,-3 3,-6 5,-8 1,-2 -2,-4 -4,-3zm15 3c-1,2 -3,4 -4,6 2,0 4,0 6,0l2 -4c1,-2 -2,-4 -4,-2zm10 3c0,1 -1,1 -1,2 2,0 4,0 6,0l0 -1c1,-3 -4,-4 -5,-1zm73 2c-1,1 -2,3 -3,4l4 1c1,-1 1,-2 2,-3 1,-2 -2,-4 -3,-2z"/>
   <path class="fil0" d="M467 452l-155 365 -121 0 -155 -365 133 0 87 213 90 -213 121 0zm220 301l-111 0 -25 64 -125 0 160 -365 121 0 160 365 -126 0 -96 -244 0 0 0 0 -7 19 -6 16 0 0 -22 57 43 0 34 88zm336 73c-30,0 -60,-4 -89,-11 -28,-6 -52,-16 -70,-27l39 -90c18,10 37,18 59,24 21,7 42,10 62,10 17,0 29,-2 36,-5 8,-4 11,-9 11,-15 0,-8 -4,-14 -14,-18 -9,-3 -25,-8 -47,-12 -28,-6 -52,-12 -71,-19 -18,-7 -35,-18 -49,-34 -14,-15 -21,-36 -21,-62 0,-23 7,-44 20,-63 13,-19 32,-34 57,-45 26,-10 57,-16 94,-16 25,0 49,3 73,8 25,6 46,14 64,24l-37 89c-35,-18 -69,-27 -101,-27 -32,0 -48,8 -48,23 0,8 5,13 14,17 10,3 25,7 47,11 27,6 51,12 70,18 19,7 36,18 50,34 14,15 21,36 21,62 0,23 -6,44 -19,63 -13,18 -32,33 -58,44 -25,11 -57,17 -93,17zm533 -9l-1 -166 -79 133 -55 0 -79 -128 0 161 -112 0 0 -365 101 0 119 194 116 -194 101 0 1 365 -112 0zm394 -64l-112 0 -24 64 -126 0 160 -365 121 0 160 365 -125 0 -96 -244 0 0 0 0 -36 92 44 0 34 88z"/>
   <g>
    <path class="fil0" d="M44 888l35 0 0 9c0,1 0,2 -1,3 0,1 -1,1 -2,1 -1,0 -2,0 -3,-1 -1,-1 -1,-2 -1,-3l0 -2 -7 0 0 44c0,1 0,2 -1,3 0,1 -1,1 -2,1 -1,0 -2,0 -3,-1 -1,-1 -1,-2 -1,-3l0 -44 -7 0 0 2c0,1 0,2 -1,3 0,1 -1,1 -2,1 -1,0 -2,0 -3,-1 0,-1 -1,-2 -1,-3l0 -9zm60 4l0 17 5 -4c0,0 0,0 0,0 2,-1 5,-2 7,-2l4 0c3,0 5,1 7,3 2,2 4,4 4,7l1 26 0 0c0,1 -1,2 -1,3 -1,1 -2,1 -3,1 -1,0 -2,0 -2,-1 -1,-1 -2,-2 -2,-3l0 -26c0,-1 -1,-1 -1,-2 -1,-1 -2,-1 -3,-1l-4 0c-1,0 -1,0 -2,0 0,0 0,1 -1,1l-9 6 0 22c0,1 -1,2 -1,3 -1,1 -2,1 -3,1 -1,0 -2,0 -2,-1 -1,-1 -1,-2 -1,-3l0 -47c0,-1 0,-2 1,-3 0,-1 1,-1 2,-1 1,0 2,0 3,1 0,1 1,2 1,3zm59 18c-1,0 -1,0 -2,0 0,0 0,1 -1,1l-3 2c0,1 0,1 -1,1 0,1 0,1 0,2l0 5 21 0 0 -5c0,-1 0,-1 -1,-2 0,0 0,0 0,-1l-3 -2c-1,0 -1,-1 -2,-1 0,0 0,0 -1,0l-7 0zm-1 -7l8 0c2,0 3,0 4,1 1,0 2,1 3,1l3 3c1,1 2,2 3,3 1,2 1,3 1,5l0 8c0,1 0,2 -1,3 -1,1 -2,1 -3,1l-24 0 0 2c0,0 0,1 0,1 1,1 1,1 1,1l3 3c1,0 1,0 1,1 1,0 1,0 2,0l17 0c1,0 2,0 3,1 1,0 1,1 1,2 0,1 0,2 -1,3 -1,1 -2,1 -3,1l-18 0c-1,0 -2,0 -3,-1 -1,0 -2,-1 -3,-2l-3 -2c-1,-1 -2,-2 -3,-4 -1,-1 -1,-3 -1,-4l0 -14c0,-2 0,-3 1,-5 1,-1 2,-2 3,-3l3 -3c1,0 2,-1 3,-1 1,-1 2,-1 3,-1zm73 -11l0 11 10 27 10 -27 0 -11c0,-1 1,-2 1,-3 1,-1 2,-1 3,-1 1,0 2,0 3,1 0,1 0,2 0,3l0 12 -13 36c-1,1 -1,2 -2,2 0,1 -1,1 -2,1 -1,0 -2,0 -2,-1 -1,0 -1,-1 -2,-2l-14 -36 0 -12c0,-1 1,-2 1,-3 1,-1 2,-1 3,-1 1,0 2,0 3,1 0,1 1,2 1,3zm58 18c0,0 0,0 -1,0 0,0 0,1 -1,1l-3 2c0,1 -1,1 -1,1 0,1 0,1 0,2l0 5 21 0 0 -5c0,-1 0,-1 -1,-2 0,0 0,0 -1,-1l-3 -2c0,0 0,-1 -1,-1 0,0 0,0 -1,0l-8 0zm0 -7l8 0c1,0 3,0 4,1 1,0 2,1 3,1l3 3c1,1 2,2 3,3 1,2 1,3 1,5l0 8c0,1 -1,2 -1,3 -1,1 -2,1 -3,1l-24 0 0 2c0,0 0,1 0,1 0,1 1,1 1,1l3 3c1,0 1,0 1,1 1,0 1,0 1,0l18 0c1,0 2,0 3,1 0,0 1,1 1,2 0,1 -1,2 -1,3 -1,1 -2,1 -3,1l-18 0c-1,0 -2,0 -3,-1 -1,0 -2,-1 -3,-2l-3 -2c-2,-1 -3,-2 -3,-4 -1,-1 -1,-3 -1,-4l0 -14c0,-2 0,-3 1,-5 0,-1 1,-2 3,-3l3 -3c1,0 2,-1 3,-1 1,-1 2,-1 3,-1zm46 4l0 2 4 -3 1 0c3,-2 6,-3 8,-3l3 0c4,0 7,1 9,3 1,2 2,6 2,10l1 23 0 0c0,1 0,2 -1,3 0,1 -1,1 -2,1 -1,0 -2,0 -3,-1 -1,-1 -1,-2 -1,-3l-1 -23c0,-2 0,-4 -1,-4 -1,-1 -2,-2 -3,-2l-3 0c-1,0 -2,1 -4,2l-1 0 -8 5 0 22c0,1 0,2 -1,3 0,1 -1,1 -2,1 -1,0 -2,0 -3,-1 -1,-1 -1,-2 -1,-3l0 -32c0,-1 0,-2 1,-3 1,-1 2,-1 3,-1 1,0 2,0 2,1 1,1 1,2 1,3zm53 0l0 23c1,2 1,3 2,4 0,1 2,2 3,2l2 0c1,0 3,-1 5,-2 0,0 0,0 0,0l8 -6 0 -21c0,-1 1,-2 1,-3 1,-1 2,-1 3,-1 1,0 2,0 3,1 0,1 1,2 1,3l0 32c0,1 -1,2 -1,3 -1,1 -2,1 -3,1 -1,0 -2,0 -3,-1 0,-1 -1,-2 -1,-3l0 -2 -4 3 0 0c-3,2 -6,3 -9,3l-3 0c-3,0 -6,-1 -8,-3 -2,-3 -3,-6 -3,-10l0 -23 0 0c0,-1 0,-2 1,-3 0,-1 1,-1 2,-1 1,0 2,0 3,1 0,1 1,2 1,3zm59 3c-1,0 -1,0 -2,0 0,0 0,1 -1,1l-3 2c0,1 0,1 -1,1 0,1 0,1 0,2l0 5 21 0 0 -5c0,-1 0,-1 -1,-2 0,0 0,0 0,-1l-4 -2c0,0 0,-1 -1,-1 0,0 0,0 -1,0l-7 0zm-1 -7l8 0c1,0 3,0 4,1 1,0 2,1 3,1l3 3c1,1 2,2 3,3 1,2 1,3 1,5l0 8c0,1 0,2 -1,3 -1,1 -2,1 -3,1l-24 0 0 2c0,0 0,1 0,1 1,1 1,1 1,1l3 3c1,0 1,0 1,1 1,0 1,0 2,0l17 0c1,0 2,0 3,1 1,0 1,1 1,2 0,1 0,2 -1,3 -1,1 -2,1 -3,1l-18 0c-1,0 -2,0 -3,-1 -1,0 -2,-1 -3,-2l-3 -2c-2,-1 -2,-2 -3,-4 -1,-1 -1,-3 -1,-4l0 -14c0,-2 0,-3 1,-5 1,-1 1,-2 3,-3l3 -3c1,0 2,-1 3,-1 1,-1 2,-1 3,-1zm50 15l14 0c1,0 2,0 2,1 1,1 1,2 1,3l0 17c0,1 0,2 -1,3 0,1 -1,1 -2,1 -1,0 -2,0 -3,-1 -1,-1 -1,-2 -1,-3l0 -14 -10 0c-1,0 -2,0 -3,-1 0,-1 -1,-1 -1,-3 0,-1 1,-1 1,-2 1,-1 2,-1 3,-1zm85 -14l-5 20 11 0 -6 -20zm4 -12l13 46c1,0 1,0 1,1 0,0 0,0 0,0 0,1 -1,2 -1,3 -1,1 -2,1 -3,1 -1,0 -1,0 -2,-1 -1,0 -1,-1 -1,-2l-3 -9 -15 0 -3 9c0,1 -1,2 -2,2 0,1 -1,1 -2,1 -1,0 -1,0 -2,-1 -1,-1 -1,-2 -1,-3 0,0 0,0 0,0 0,-1 0,-1 0,-1l13 -46c1,-2 1,-3 2,-3 1,-1 1,-1 2,-1 1,0 2,0 3,1 0,0 1,1 1,3zm38 15l0 4 6 -6c1,0 2,-1 3,-1 2,-1 3,-1 4,-1l5 0c2,0 5,1 7,3 2,2 3,5 3,7l0 2c0,1 0,2 -1,3 0,1 -1,1 -2,1 -1,0 -2,0 -3,-1 -1,-1 -1,-2 -1,-3l0 -2c0,-1 0,-1 -1,-2 -1,-1 -1,-1 -2,-1l-5 0c0,0 -1,0 -1,0 -1,0 -1,1 -2,1l-10 9 0 19c0,1 0,2 -1,3 0,1 -1,1 -2,1 -1,0 -2,0 -3,-1 -1,-1 -1,-2 -1,-3l0 -32c0,-1 0,-2 1,-3 1,-1 2,-1 3,-1 1,0 2,0 2,1 1,1 1,2 1,3zm60 -12l0 8 13 0c1,0 2,0 3,1 1,1 1,1 1,2 0,1 0,2 -1,3 -1,1 -2,1 -3,1l-13 0 0 22c0,1 0,2 1,3 0,0 1,1 2,1l7 0c1,0 1,0 2,-1 1,0 1,-1 1,-2 0,0 0,0 1,0 0,-2 1,-3 3,-3 1,0 2,0 2,1 1,0 1,1 1,2 0,3 -1,5 -3,7 -2,2 -4,3 -7,3l-7 0c-3,0 -5,-1 -7,-3 -3,-2 -4,-5 -4,-8l0 -22 -3 0c-1,0 -2,0 -2,-1 -1,-1 -2,-1 -2,-3 0,-1 1,-1 2,-2 0,-1 1,-1 2,-1l3 0 0 -8c0,-1 1,-2 1,-3 1,-1 2,-1 3,-1 1,0 2,0 3,1 0,1 1,2 1,3zm45 8l10 0c1,0 2,0 3,1 1,1 1,1 1,2l0 30 6 0c2,0 3,0 3,1 1,0 1,1 1,2 0,1 0,2 -1,3 0,1 -1,1 -3,1l-20 0c-1,0 -2,0 -3,-1 0,-1 -1,-2 -1,-3 0,-1 1,-2 1,-2 1,-1 2,-1 3,-1l7 0 0 -26 -7 0c-1,0 -2,0 -3,-1 0,-1 -1,-1 -1,-3 0,-1 1,-1 1,-2 1,-1 2,-1 3,-1zm7 -18l4 0c0,0 1,0 2,1 1,1 1,2 1,3l0 3c0,1 0,1 -1,2 -1,1 -2,1 -3,1l-3 0c-1,0 -2,0 -3,-1 0,-1 -1,-1 -1,-2l0 -3c0,-1 1,-2 1,-3 1,-1 2,-1 3,-1zm48 18l15 0c2,0 5,1 7,2 1,1 2,3 2,4 0,1 0,2 -1,3 0,1 -1,1 -2,1 -1,0 -2,-1 -3,-2 -1,0 -2,-1 -3,-1l-15 0c0,0 -1,0 -1,1 -1,0 -1,1 -1,1 0,1 0,1 0,1 1,1 1,1 1,1l20 8c2,1 3,2 4,4 2,2 2,4 2,6 0,3 -1,6 -3,8 -2,2 -5,3 -8,3l-14 0c-2,0 -4,-1 -7,-2 -2,-2 -3,-3 -3,-5 0,-1 1,-1 1,-2 1,-1 2,-1 3,-1 0,0 1,0 3,1 1,1 2,2 3,2l14 0c1,0 2,-1 3,-1 1,-1 1,-2 1,-3 0,-1 0,-1 -1,-2 0,-1 -1,-1 -1,-1l-19 -9c-2,0 -3,-1 -5,-3 -1,-1 -1,-3 -1,-5 0,-2 1,-5 3,-6 1,-2 4,-3 6,-3zm57 -8l0 8 13 0c1,0 2,0 3,1 1,1 1,1 1,2 0,1 0,2 -1,3 -1,1 -2,1 -3,1l-13 0 0 22c0,1 0,2 1,3 0,0 1,1 2,1l7 0c1,0 2,0 2,-1 1,0 1,-1 1,-2 0,0 1,0 1,0 0,-2 1,-3 3,-3 1,0 2,0 3,1 0,0 1,1 1,2 0,3 -2,5 -4,7 -2,2 -4,3 -7,3l-7 0c-3,0 -5,-1 -7,-3 -2,-2 -4,-5 -4,-8l0 -22 -2 0c-2,0 -3,0 -3,-1 -1,-1 -1,-1 -1,-3 0,-1 0,-1 1,-2 0,-1 1,-1 3,-1l2 0 0 -8c0,-1 1,-2 1,-3 1,-1 2,-1 3,-1 1,0 2,0 3,1 0,1 1,2 1,3zm75 30c-1,0 -2,0 -3,1 0,1 -1,1 -1,2l0 4c0,1 1,2 1,3 1,0 2,1 3,1l9 0 8 -5 0 -3c0,-1 -1,-1 -1,-2 -1,-1 -2,-1 -3,-1l-13 0zm0 -22l13 0c2,0 5,1 7,3 2,2 3,4 3,7l1 26 0 0c0,1 0,2 -1,3 -1,1 -1,1 -2,1 -1,0 -2,0 -3,-1 0,-1 -1,-2 -1,-3l-4 3c-1,0 -1,0 -2,1 0,0 -1,0 -1,0l-10 0c-3,0 -6,-1 -8,-3 -2,-2 -3,-5 -3,-8l0 -4c0,-3 1,-5 3,-7 2,-2 5,-3 8,-3l13 0c1,0 1,0 2,0 0,0 1,0 1,0l0 -5c0,-1 0,-1 -1,-2 -1,-1 -1,-1 -2,-1l-13 0c-1,0 -2,0 -3,-1 0,-1 -1,-1 -1,-3 0,-1 1,-1 1,-2 1,-1 2,-1 3,-1zm49 4l0 2 4 -3 0 0c3,-2 6,-3 9,-3l3 0c3,0 6,1 8,3 2,2 3,6 3,10l1 23 0 0c0,1 -1,2 -2,3 0,1 -1,1 -2,1 -1,0 -2,0 -3,-1 0,-1 -1,-2 -1,-3l0 -23c-1,-2 -1,-4 -2,-4 0,-1 -1,-2 -3,-2l-2 0c-2,0 -3,1 -5,2l0 0 -8 5 0 22c0,1 -1,2 -1,3 -1,1 -2,1 -3,1 -1,0 -2,0 -3,-1 0,-1 -1,-2 -1,-3l0 -32c0,-1 1,-2 1,-3 1,-1 2,-1 3,-1 1,0 2,0 3,1 0,1 1,2 1,3zm58 3c-1,0 -2,0 -3,1 0,0 0,0 0,0l-2 2c0,0 -1,0 -1,1 0,0 0,1 0,1l0 15c0,1 0,1 0,2 0,0 1,1 1,1l2 2c0,0 0,0 0,0 1,0 2,1 3,1l5 0c1,0 1,0 1,0 1,-1 1,-1 2,-1l6 -5c0,0 0,-1 0,-1 1,-1 1,-1 1,-2l0 -9c0,0 0,-1 -1,-1 0,-1 0,-1 0,-1l-6 -5c-1,0 -1,-1 -1,-1 -1,0 -1,0 -2,0l-5 0zm22 -18l0 47c0,1 0,2 -1,3 -1,1 -2,1 -3,1 -1,0 -2,0 -2,-1 -1,-1 -1,-2 -1,-3l0 -1 -3 2c-1,1 -2,2 -3,2 -1,1 -3,1 -4,1l-5 0c-1,0 -3,0 -4,-1 -1,0 -2,-1 -3,-2l-2 -1c-2,-1 -3,-3 -3,-4 -1,-1 -1,-3 -1,-5l0 -15c0,-1 0,-3 1,-4 1,-2 1,-3 3,-4l2 -2c1,0 2,-1 3,-1 1,-1 2,-1 4,-1l5 0c1,0 3,0 4,1 1,0 2,1 3,1l3 3 0 -16c0,-1 0,-2 1,-3 0,-1 1,-1 2,-1 1,0 2,0 3,1 1,1 1,2 1,3zm51 -4l18 0c2,0 5,1 7,3 1,2 2,4 2,6 0,1 0,2 -1,3 0,1 -1,1 -2,1 -1,0 -2,0 -3,-1 0,0 -1,-1 -1,-3 0,-1 0,-1 -1,-1 0,-1 -1,-1 -1,-1l-18 0c0,0 0,0 0,0 0,1 -1,1 -1,1 0,0 0,0 0,0 1,0 1,0 1,1l25 32c1,1 1,2 2,3 0,1 0,2 0,3 0,2 0,4 -2,6 -2,1 -3,2 -6,2l-17 0c-3,0 -5,-1 -7,-3 -2,-2 -3,-4 -3,-6 0,-1 1,-2 1,-3 1,-1 2,-1 3,-1 1,0 2,0 2,1 1,0 1,1 2,3 0,0 0,1 0,1 1,1 1,1 2,1l17 0c1,0 1,0 1,0 0,-1 0,-1 0,-1 0,0 0,0 0,0 0,0 0,-1 0,-1l-25 -32c-1,-1 -2,-2 -2,-3 0,-1 -1,-2 -1,-3 0,-2 1,-4 3,-6 1,-1 3,-2 5,-2zm59 7l0 8 13 0c1,0 2,0 3,1 1,1 1,1 1,2 0,1 0,2 -1,3 -1,1 -2,1 -3,1l-13 0 0 22c0,1 0,2 1,3 0,0 1,1 2,1l7 0c1,0 2,0 2,-1 1,0 1,-1 2,-2 0,0 0,0 0,0 0,-2 2,-3 3,-3 1,0 2,0 3,1 0,0 1,1 1,2 0,3 -1,5 -3,7 -3,2 -5,3 -8,3l-7 0c-3,0 -5,-1 -7,-3 -2,-2 -3,-5 -3,-8l0 -22 -3 0c-2,0 -3,0 -3,-1 -1,-1 -1,-1 -1,-3 0,-1 0,-1 1,-2 1,-1 1,-1 3,-1l3 0 0 -8c0,-1 0,-2 1,-3 0,-1 1,-1 2,-1 1,0 2,0 3,1 0,1 1,2 1,3zm45 12l1 23c0,2 1,3 1,4 1,1 2,2 4,2l2 0c1,0 3,-1 4,-2 1,0 1,0 1,0l8 -6 0 -21c0,-1 0,-2 1,-3 1,-1 1,-1 3,-1 1,0 1,0 2,1 1,1 1,2 1,3l0 32c0,1 0,2 -1,3 -1,1 -1,1 -2,1 -1,0 -2,0 -3,-1 -1,-1 -1,-2 -1,-3l0 -2 -4 3 0 0c-3,2 -6,3 -9,3l-3 0c-4,0 -6,-1 -8,-3 -2,-3 -3,-6 -3,-10l-1 -23 0 0c0,-1 0,-2 1,-3 1,-1 2,-1 3,-1 1,0 1,0 2,1 1,1 1,2 1,3z"/>
    <path class="fil0" d="M1261 910c0,0 -1,0 -2,1 0,0 0,0 0,0l-2 2c-1,0 -1,0 -1,1 0,0 0,1 0,1l0 15c0,1 0,1 0,2 0,0 0,1 1,1l2 2c0,0 0,0 0,0 1,0 2,1 2,1l6 0c0,0 1,0 1,0 0,-1 1,-1 1,-1l6 -5c1,0 1,-1 1,-1 0,-1 0,-1 0,-2l0 -9c0,0 0,-1 0,-1 0,-1 0,-1 -1,-1l-6 -5c0,0 0,-1 -1,-1 0,0 -1,0 -1,0l-6 0zm22 -18l0 47c0,1 0,2 -1,3 0,1 -1,1 -2,1 -1,0 -2,0 -3,-1 0,-1 -1,-2 -1,-3l0 -1 -2 2c-1,1 -2,2 -4,2 -1,1 -2,1 -3,1l-6 0c-1,0 -2,0 -3,-1 -1,0 -2,-1 -3,-2l-3 -1c-1,-1 -2,-3 -3,-4 0,-1 -1,-3 -1,-5l0 -15c0,-1 1,-3 1,-4 1,-2 2,-3 3,-4l3 -2c1,0 2,-1 3,-1 1,-1 2,-1 3,-1l6 0c1,0 2,0 3,1 2,0 3,1 4,1l2 3 0 -16c0,-1 1,-2 1,-3 1,-1 2,-1 3,-1 1,0 2,0 2,1 1,1 1,2 1,3zm25 11l10 0c1,0 2,0 3,1 0,1 1,1 1,2l0 30 6 0c2,0 2,0 3,1 1,0 1,1 1,2 0,1 0,2 -1,3 -1,1 -1,1 -3,1l-20 0c-1,0 -2,0 -3,-1 0,-1 -1,-2 -1,-3 0,-1 1,-2 1,-2 1,-1 2,-1 3,-1l7 0 0 -26 -7 0c-1,0 -2,0 -3,-1 0,-1 -1,-1 -1,-3 0,-1 1,-1 1,-2 1,-1 2,-1 3,-1zm7 -18l4 0c0,0 1,0 2,1 1,1 1,2 1,3l0 3c0,1 -1,1 -1,2 -1,1 -2,1 -3,1l-3 0c-1,0 -2,0 -3,-1 0,-1 -1,-1 -1,-2l0 -3c0,-1 1,-2 1,-3 1,-1 2,-1 3,-1zm52 25c-1,0 -1,0 -1,0 -1,0 -1,1 -1,1l-3 2c-1,1 -1,1 -1,1 -1,1 -1,1 -1,2l0 14c0,0 0,1 1,1 0,1 0,1 1,1l3 3c0,0 0,0 1,1 0,0 0,0 1,0l8 0c0,0 0,0 1,0 0,-1 0,-1 1,-1l3 -3c0,0 0,0 1,-1 0,0 0,-1 0,-1l0 -14c0,-1 0,-1 0,-2 -1,0 -1,0 -1,-1l-3 -2c-1,0 -1,-1 -1,-1 -1,0 -1,0 -1,0l-8 0zm0 -7l8 0c1,0 2,0 3,1 1,0 2,1 3,1l3 3c2,1 2,2 3,3 1,2 1,3 1,5l0 14c0,1 0,3 -1,4 -1,2 -1,3 -3,4l-3 2c-1,1 -2,2 -3,2 -1,1 -2,1 -3,1l-8 0c-2,0 -3,0 -4,-1 -1,0 -2,-1 -3,-2l-3 -2c-1,-1 -2,-2 -3,-4 -1,-1 -1,-3 -1,-4l0 -14c0,-2 0,-3 1,-5 1,-1 2,-2 3,-3l3 -3c1,0 2,-1 3,-1 1,-1 2,-1 4,-1zm65 -15l8 0 9 12 9 -12 9 0 0 51c0,1 -1,2 -1,3 -1,1 -2,1 -3,1 -1,0 -2,0 -2,-1 -1,-1 -1,-2 -1,-3l0 -41 -7 10 0 1c0,1 -1,2 -1,3 -1,1 -2,1 -3,1 -1,0 -2,0 -2,-1 -1,-1 -1,-2 -1,-3l0 -1 -7 -10 0 41c0,1 -1,2 -1,3 -1,1 -2,1 -3,1 -1,0 -2,0 -2,-1 -1,-1 -1,-2 -1,-3l0 -51zm63 37c-1,0 -2,0 -3,1 -1,1 -1,1 -1,2l0 4c0,1 0,2 1,3 1,0 2,1 3,1l9 0 8 -5 0 -3c0,-1 -1,-1 -1,-2 -1,-1 -2,-1 -3,-1l-13 0zm0 -22l13 0c2,0 5,1 7,3 2,2 3,4 3,7l1 26 0 0c0,1 0,2 -1,3 -1,1 -1,1 -2,1 -1,0 -2,0 -3,-1 0,-1 -1,-2 -1,-3l-4 3c-1,0 -1,0 -2,1 0,0 -1,0 -1,0l-10 0c-3,0 -6,-1 -8,-3 -2,-2 -3,-5 -3,-8l0 -4c0,-3 1,-5 3,-7 2,-2 5,-3 8,-3l13 0c1,0 1,0 2,0 0,0 1,0 1,0l0 -5c0,-1 0,-1 -1,-2 -1,-1 -1,-1 -2,-1l-13 0c-1,0 -2,0 -3,-1 -1,-1 -1,-1 -1,-3 0,-1 0,-1 1,-2 1,-1 2,-1 3,-1zm48 4l0 2 5 -3 0 0c3,-2 6,-3 8,-3l4 0c3,0 6,1 8,3 2,2 3,6 3,10l0 23 0 0c0,1 0,2 -1,3 0,1 -1,1 -2,1 -1,0 -2,0 -3,-1 0,-1 -1,-2 -1,-3l-1 -23c0,-2 0,-4 -1,-4 0,-1 -2,-2 -3,-2l-2 0c-2,0 -3,1 -5,2l0 0 -9 5 0 22c0,1 0,2 -1,3 0,1 -1,1 -2,1 -1,0 -2,0 -3,-1 0,-1 -1,-2 -1,-3l0 -32c0,-1 1,-2 1,-3 1,-1 2,-1 3,-1 1,0 2,0 2,1 1,1 1,2 1,3zm56 18c-1,0 -1,0 -2,1 -1,1 -1,1 -1,2l0 4c0,1 0,2 1,3 1,0 1,1 2,1l10 0 7 -5 0 -3c0,-1 0,-1 -1,-2 0,-1 -1,-1 -2,-1l-14 0zm1 -22l12 0c3,0 6,1 8,3 2,2 3,4 3,7l1 26 0 0c0,1 -1,2 -1,3 -1,1 -2,1 -3,1 -1,0 -1,0 -2,-1 -1,-1 -1,-2 -1,-3l-4 3c-1,0 -1,0 -2,1 -1,0 -1,0 -2,0l-10 0c-3,0 -5,-1 -7,-3 -2,-2 -3,-5 -3,-8l0 -4c0,-3 1,-5 3,-7 2,-2 4,-3 7,-3l14 0c0,0 1,0 2,0 0,0 1,0 1,0l0 -5c0,-1 -1,-1 -1,-2 -1,-1 -2,-1 -3,-1l-12 0c-2,0 -2,0 -3,-1 -1,-1 -1,-1 -1,-3 0,-1 0,-1 1,-2 1,-1 2,-1 3,-1zm69 4c0,-1 0,-2 1,-3 1,-1 1,-1 3,-1 1,0 1,0 2,1 1,1 1,2 1,3l0 38c0,1 0,3 -1,4 -1,2 -1,3 -3,4l-3 2c-1,1 -2,2 -3,2 -1,1 -2,1 -4,1l-13 0c-2,0 -2,-1 -3,-1 -1,-1 -1,-2 -1,-3 0,-1 0,-2 1,-2 0,-1 1,-1 3,-1l13 0c1,0 1,0 2,-1 0,0 0,0 1,0l3 -3c0,0 0,0 1,-1 0,0 0,-1 0,-1l0 -7 -3 2c-1,1 -2,2 -3,2 -1,1 -2,1 -3,1l-6 0c-1,0 -2,0 -4,-1 -1,0 -2,-1 -3,-2l-2 -1c-1,-1 -2,-2 -3,-4 -1,-1 -1,-3 -1,-4l0 -16c0,-1 0,-3 1,-4 1,-2 2,-3 3,-4l2 -2c1,0 2,-1 3,-1 2,-1 3,-1 4,-1l6 0c1,0 2,0 3,1 1,0 2,1 3,1l3 3 0 -1zm0 20l0 -9c0,0 0,-1 0,-1 0,0 -1,-1 -1,-1l-6 -5c0,0 -1,-1 -1,-1 -1,0 -1,0 -1,0l-6 0c0,0 -1,0 -1,0 -1,0 -1,1 -1,1l-3 2c0,0 0,0 -1,1 0,0 0,1 0,1l0 16c0,0 0,0 0,1 1,0 1,1 1,1l3 2 0 0c0,0 1,1 2,1l6 0c0,0 0,0 1,0 0,-1 1,-1 1,-1l6 -5c0,0 1,-1 1,-1 0,-1 0,-1 0,-2zm38 -17c0,0 -1,0 -1,0 0,0 -1,1 -1,1l-3 2c-1,1 -1,1 -1,1 0,1 0,1 0,2l0 5 20 0 0 -5c0,-1 0,-1 0,-2 0,0 0,0 -1,-1l-3 -2c0,0 -1,-1 -1,-1 0,0 -1,0 -1,0l-8 0zm0 -7l8 0c1,0 2,0 3,1 2,0 3,1 4,1l3 3c1,1 2,2 2,3 1,2 2,3 2,5l0 8c0,1 -1,2 -2,3 0,1 -1,1 -2,1l-24 0 0 2c0,0 0,1 0,1 0,1 0,1 1,1l3 3c0,0 1,0 1,1 0,0 1,0 1,0l18 0c1,0 2,0 2,1 1,0 2,1 2,2 0,1 -1,2 -2,3 0,1 -1,1 -2,1l-18 0c-1,0 -2,0 -3,-1 -2,0 -3,-1 -4,-2l-3 -2c-1,-1 -2,-2 -3,-4 0,-1 -1,-3 -1,-4l0 -14c0,-2 1,-3 1,-5 1,-1 2,-2 3,-3l3 -3c1,0 2,-1 4,-1 1,-1 2,-1 3,-1zm74 8l1 28 0 0c0,1 -1,2 -1,3 -1,1 -2,1 -3,1 -1,0 -2,0 -2,-1 -1,-1 -1,-2 -1,-3l-1 -28c0,0 -1,0 -1,-1 0,0 0,0 -1,0 0,0 0,0 0,0 0,0 -1,0 -1,0l-4 4 0 25c0,1 0,2 -1,3 -1,1 -2,1 -3,1 -1,0 -2,0 -2,-1 -1,-1 -1,-2 -1,-3l0 -27c0,-1 0,-1 -1,-2 0,0 0,0 -1,0 0,0 0,0 0,0 -1,0 -1,0 -1,0l-5 4 0 25c0,1 0,2 -1,3 0,1 -1,1 -2,1 -1,0 -2,0 -3,-1 -1,-1 -1,-2 -1,-3l0 -32c0,-1 0,-2 1,-3 1,-1 2,-1 3,-1 0,0 1,0 2,1 0,0 1,1 1,2l1 -1c1,-1 2,-1 3,-2 0,0 1,0 2,0 2,0 3,0 4,1 1,0 2,1 3,2l1 0c1,-1 2,-2 3,-3 1,0 2,0 3,0 2,0 4,1 6,2 2,2 3,4 3,6zm31 -1c-1,0 -1,0 -1,0 -1,0 -1,1 -1,1l-3 2c-1,1 -1,1 -1,1 -1,1 -1,1 -1,2l0 5 21 0 0 -5c0,-1 0,-1 0,-2 0,0 -1,0 -1,-1l-3 -2c-1,0 -1,-1 -1,-1 -1,0 -1,0 -1,0l-8 0zm0 -7l8 0c1,0 2,0 3,1 1,0 2,1 3,1l3 3c2,1 2,2 3,3 1,2 1,3 1,5l0 8c0,1 0,2 -1,3 -1,1 -2,1 -3,1l-24 0 0 2c0,0 0,1 1,1 0,1 0,1 1,1l3 3c0,0 0,0 1,1 0,0 0,0 1,0l17 0c1,0 2,0 3,1 1,0 1,1 1,2 0,1 0,2 -1,3 -1,1 -2,1 -3,1l-17 0c-1,0 -3,0 -4,-1 -1,0 -2,-1 -3,-2l-3 -2c-1,-1 -2,-2 -3,-4 -1,-1 -1,-3 -1,-4l0 -14c0,-2 0,-3 1,-5 1,-1 2,-2 3,-3l3 -3c1,0 2,-1 3,-1 1,-1 3,-1 4,-1zm46 4l0 2 4 -3 0 0c3,-2 6,-3 9,-3l3 0c3,0 6,1 8,3 2,2 3,6 3,10l1 23 0 0c0,1 -1,2 -1,3 -1,1 -2,1 -3,1 -1,0 -2,0 -3,-1 0,-1 0,-2 -1,-3l0 -23c0,-2 -1,-4 -2,-4 0,-1 -1,-2 -3,-2l-2 0c-1,0 -3,1 -5,2l0 0 -8 5 0 22c0,1 -1,2 -1,3 -1,1 -2,1 -3,1 -1,0 -2,0 -2,-1 -1,-1 -1,-2 -1,-3l0 -32c0,-1 0,-2 0,-3 1,-1 2,-1 3,-1 1,0 2,0 3,1 0,1 1,2 1,3zm59 -12l0 8 13 0c2,0 3,0 3,1 1,1 1,1 1,2 0,1 0,2 -1,3 0,1 -1,1 -3,1l-13 0 0 22c0,1 0,2 1,3 1,0 1,1 2,1l7 0c1,0 2,0 2,-1 1,0 1,-1 2,-2 0,0 0,0 0,0 1,-2 2,-3 3,-3 1,0 2,0 3,1 1,0 1,1 1,2 0,3 -1,5 -3,7 -2,2 -5,3 -8,3l-7 0c-3,0 -5,-1 -7,-3 -2,-2 -3,-5 -3,-8l0 -22 -3 0c-1,0 -2,0 -3,-1 -1,-1 -1,-1 -1,-3 0,-1 0,-1 1,-2 1,-1 2,-1 3,-1l3 0 0 -8c0,-1 0,-2 1,-3 0,-1 1,-1 2,-1 1,0 2,0 3,1 1,1 1,2 1,3zm82 9l-6 20 12 0 -6 -20zm4 -12l13 46c0,0 0,0 0,1 0,0 0,0 0,0 0,1 0,2 -1,3 0,1 -1,1 -2,1 -1,0 -2,0 -2,-1 -1,0 -1,-1 -2,-2l-2 -9 -16 0 -2 9c-1,1 -1,2 -2,2 0,1 -1,1 -2,1 -1,0 -2,0 -2,-1 -1,-1 -2,-2 -2,-3 0,0 1,0 1,0 0,-1 0,-1 0,-1l13 -46c0,-2 1,-3 2,-3 0,-1 1,-1 2,-1 1,0 2,0 2,1 1,0 1,1 2,3zm48 17c-1,0 -1,0 -2,0 0,0 -1,0 -1,1l-6 6c-1,0 -1,1 -1,1 0,0 0,1 0,1l0 9c0,1 0,1 0,2 0,0 0,1 1,1l6 6c0,0 1,1 1,1 1,0 1,0 2,0l1 0c1,0 1,0 1,0 1,0 1,-1 2,-1l6 -5c0,0 0,0 0,-1 1,0 1,-1 1,-1l0 -12c0,-1 0,-1 -1,-2 0,0 0,0 0,-1l-6 -5c-1,0 -1,0 -1,0 -1,0 -1,0 -2,0l-1 0zm-10 -4l0 2 2 -2c1,-1 2,-2 3,-3 2,0 3,-1 5,-1l1 0c1,0 3,1 4,1 1,1 2,1 3,2l6 5c1,1 2,2 3,4 0,1 1,2 1,4l0 12c0,1 -1,3 -1,4 -1,2 -2,3 -3,4l-6 5c-1,1 -2,1 -3,2 -1,0 -3,0 -4,0l-1 0c-2,0 -3,0 -5,-1 -1,0 -2,-1 -3,-2l-2 -2 0 15c0,1 0,2 -1,3 -1,0 -2,1 -3,1 -1,0 -2,-1 -2,-1 -1,-1 -1,-2 -1,-3l0 -49c0,-1 0,-2 1,-3 0,0 1,-1 2,-1 1,0 2,1 3,1 1,1 1,2 1,3zm62 4c-1,0 -1,0 -1,0 -1,0 -1,0 -1,1l-7 6c0,0 0,1 -1,1 0,0 0,1 0,1l0 9c0,1 0,1 0,2 1,0 1,1 1,1l7 6c0,0 0,1 1,1 0,0 0,0 1,0l1 0c1,0 1,0 2,0 0,0 1,-1 1,-1l6 -5c0,0 0,0 1,-1 0,0 0,-1 0,-1l0 -12c0,-1 0,-1 0,-2 -1,0 -1,0 -1,-1l-6 -5c0,0 -1,0 -1,0 -1,0 -1,0 -2,0l-1 0zm-10 -4l0 2 2 -2c1,-1 2,-2 4,-3 1,0 2,-1 4,-1l2 0c1,0 2,1 3,1 1,1 3,1 4,2l5 5c2,1 2,2 3,4 1,1 1,2 1,4l0 12c0,1 0,3 -1,4 -1,2 -1,3 -3,4l-6 5c-1,1 -2,1 -3,2 -1,0 -2,0 -3,0l-2 0c-1,0 -3,0 -4,-1 -2,0 -3,-1 -4,-2l-2 -2 0 15c0,1 0,2 -1,3 0,0 -1,1 -2,1 -1,0 -2,-1 -3,-1 -1,-1 -1,-2 -1,-3l0 -49c0,-1 0,-2 1,-3 1,0 2,-1 3,-1 1,0 2,1 2,1 1,1 1,2 1,3z"/>
   </g>
  </g>
 </g>
</svg>
