<?xml version="1.0" encoding="UTF-8"?>
<!DOCTYPE svg PUBLIC "-//W3C//DTD SVG 1.1//EN" "http://www.w3.org/Graphics/SVG/1.1/DTD/svg11.dtd">
<!-- Creator: CorelDRAW X7 -->
<svg xmlns="http://www.w3.org/2000/svg" xml:space="preserve" width="0.590551in" height="0.590551in" version="1.1" style="shape-rendering:geometricPrecision; text-rendering:geometricPrecision; image-rendering:optimizeQuality; fill-rule:evenodd; clip-rule:evenodd"
viewBox="0 0 591 591"
 xmlns:xlink="http://www.w3.org/1999/xlink">
 <defs>
  <style type="text/css">
   <![CDATA[
    .fil0 {fill:#FE0130;fill-rule:nonzero}
   ]]>
  </style>
 </defs>
 <g id="Layer_x0020_1">
  <metadata id="CorelCorpID_0Corel-Layer"/>
  <path class="fil0" d="M371 279c0,0 0,0 0,0 -1,-7 -4,-13 -8,-19 -7,-8 -17,-10 -26,-5 -9,5 -14,14 -17,23 -1,3 -1,6 -1,9 -1,-3 -2,-6 -2,-9 -3,-11 -4,-22 -4,-33 1,-10 5,-21 1,-30 0,-2 0,-3 1,-5 2,-12 10,-20 22,-22 10,-2 20,3 26,11 6,10 8,24 8,35 1,15 1,30 0,45zm-15 30c-8,6 -19,8 -26,1 -2,-2 -3,-3 -4,-5 0,0 1,0 1,-1 -1,-10 0,-20 5,-29 3,-7 13,-16 20,-7 7,9 4,22 5,33 1,2 1,3 3,5 -1,1 -3,2 -4,3zm-64 -71c0,4 -1,8 -1,13 -3,-1 -5,0 -8,2 -3,0 -7,1 -11,2 -7,3 -15,5 -22,7 -5,2 -10,4 -16,5 1,-7 1,-14 1,-21 1,-9 -1,-17 1,-26 2,-15 13,-29 29,-30 14,0 22,12 25,24 2,7 2,15 2,24zm-75 7c1,9 1,18 5,27 -6,2 -12,4 -17,6 -13,4 -25,10 -37,16 1,-10 1,-20 0,-31 0,-16 0,-32 0,-49 1,-16 2,-33 2,-49 0,-16 0,-32 -1,-48 -1,-15 -4,-30 -2,-44 2,-12 7,-26 17,-32 9,-6 20,-7 29,-1 10,6 13,19 13,31 2,19 -2,38 -2,57 0,10 0,20 1,31 0,5 0,10 0,15 -1,5 1,9 3,13 -5,7 -9,14 -11,22 -3,12 -2,24 0,36zm247 184c-1,-8 -2,-15 -4,-23 -1,-8 -2,-16 -3,-24 -1,-16 -2,-33 -2,-49 -1,-17 -2,-34 -2,-50 0,-16 1,-32 1,-49 1,-16 -1,-32 -1,-49 -1,-14 1,-28 2,-43 1,-12 1,-25 -4,-37 -4,-12 -14,-22 -27,-26 -11,-4 -24,-2 -35,3 -12,5 -20,16 -24,28 -4,12 -3,26 -1,39 1,7 2,13 3,20 1,2 1,4 1,6 -18,-12 -44,-8 -59,8 -2,2 -4,5 -5,8 -8,-14 -22,-22 -39,-22 -7,0 -14,2 -20,5 0,-3 1,-5 1,-8 0,-8 0,-17 0,-25 1,-7 1,-15 1,-23 0,-8 1,-16 2,-24 2,-29 0,-64 -31,-76 -13,-5 -27,-3 -39,3 -12,6 -20,17 -25,29 -6,14 -7,30 -6,45 1,16 3,31 3,47 1,28 -1,56 -2,84 0,14 1,27 2,41 1,12 3,24 4,35 -9,7 -17,14 -23,25 -14,27 -4,61 1,90 3,16 7,31 14,45 6,12 15,23 23,34 7,10 13,18 18,29 5,10 6,21 5,33 0,6 5,10 11,10 6,0 9,-4 10,-10 4,-32 -13,-59 -32,-83 -9,-10 -16,-22 -20,-35 -6,-15 -8,-30 -11,-46 -3,-15 -7,-30 -6,-45 1,-13 9,-23 19,-30 25,-18 55,-26 83,-38 8,-3 16,-6 23,-9 4,-2 7,-4 10,-6 2,4 5,8 7,11 2,5 0,11 0,15 -1,9 -3,17 -11,23 -7,5 -15,8 -24,11 -8,2 -17,2 -24,7 -9,7 -12,19 -5,28 6,9 15,13 23,19 9,6 16,15 23,24 4,4 7,9 11,13 2,3 3,5 5,7 1,2 4,4 4,5 1,5 7,4 7,-1 1,-2 1,-3 1,-6 0,-2 -1,-5 -2,-7 -2,-6 -5,-11 -9,-16 -6,-9 -13,-19 -21,-27 -6,-8 -15,-12 -23,-19 -1,-1 -2,-2 -3,-3 2,-2 6,-2 9,-3 18,-4 38,-11 50,-26 3,-4 5,-8 6,-12 4,9 10,17 19,23 13,7 28,5 41,-1 28,-14 31,-49 31,-76 0,-23 -1,-48 -13,-66 0,-1 0,-2 0,-3 0,-3 0,-7 0,-11 1,-8 0,-16 -1,-23 -1,-13 -2,-25 1,-37 7,-19 34,-27 47,-9 6,9 6,21 6,32 -1,6 -1,12 -2,17 -1,8 -1,16 -1,24 0,17 1,33 1,50 0,16 -1,32 -2,48 -1,27 1,54 2,81 0,14 2,27 3,40 1,13 4,26 6,39 4,20 -1,42 -14,58 -17,19 -44,21 -67,24 -5,0 -7,7 -1,9 7,2 14,3 22,4 8,1 17,-1 25,-3 1,0 2,0 2,0 0,0 0,1 0,2 -2,5 -1,12 -2,18 0,6 0,12 1,18 1,11 19,11 21,0 1,-11 -1,-22 0,-34 0,-4 0,-8 0,-12 0,-1 0,-1 1,-2 5,-3 9,-7 13,-11 9,-11 16,-24 20,-37 3,-14 3,-28 1,-42zm-253 -394c-1,1 -2,2 -2,3 -1,0 -2,2 -2,3 -1,1 -3,3 -2,5 0,1 1,1 1,1 2,-1 3,-3 4,-5 0,0 1,-1 1,-2 0,-1 1,-1 1,-2 0,0 0,-1 1,-2 0,-1 -1,-2 -2,-1zm7 6c-1,1 -2,2 -3,3 -1,0 -1,1 -2,2 -2,1 -4,4 -5,6 0,1 2,2 2,1 2,-1 4,-3 6,-4 1,-1 1,-2 1,-3 1,-1 2,-2 3,-3 1,-1 -1,-3 -2,-2zm1 8c-4,3 -7,6 -10,10 -1,2 -4,5 -4,7 -1,1 0,1 0,1 3,1 5,-2 7,-4 3,-4 6,-8 9,-12 2,-1 -1,-4 -2,-2zm-1 11c-1,3 -3,6 -6,8 -1,2 -5,5 -5,8 0,0 1,1 2,1 3,0 6,-4 8,-6 2,-3 4,-6 5,-9 1,-2 -3,-4 -4,-2zm2 9c-2,3 -5,5 -8,8 -2,3 -6,6 -7,9 0,1 1,3 2,2 3,-1 6,-4 8,-7 3,-3 6,-6 9,-9 2,-2 -1,-5 -4,-3zm1 10c-4,6 -9,10 -14,15 -4,3 -9,8 -8,13 0,1 1,1 2,1 3,-1 4,-3 5,-5 2,-2 5,-5 7,-7 5,-5 9,-9 12,-15 1,-3 -2,-5 -4,-2zm3 14c-6,5 -11,9 -16,14 -5,5 -12,11 -16,17 0,1 1,2 2,2 6,-3 10,-9 14,-13 6,-6 12,-12 18,-16 2,-2 0,-5 -2,-4zm-3 14c-5,4 -10,9 -15,13 -4,4 -10,9 -13,14 0,2 1,3 2,2 6,-2 10,-8 15,-12 5,-5 10,-9 15,-14 2,-2 -1,-6 -4,-3zm-10 19c-5,3 -9,6 -13,10 -3,4 -8,8 -9,13 0,1 1,2 2,2 4,-2 7,-7 10,-10 4,-4 8,-8 12,-11 3,-2 0,-6 -2,-4zm3 10c-1,2 -4,4 -6,6 -3,2 -5,4 -7,6 -3,3 -11,7 -9,12 0,0 1,1 2,1 2,-1 3,-3 5,-4 3,-2 4,-4 6,-6 3,-2 5,-5 8,-7 2,-2 4,-3 5,-6 1,-3 -3,-5 -4,-2zm3 8c-4,2 -7,5 -10,8 -2,3 -5,5 -7,8 -1,1 -1,2 0,3 2,4 5,-2 7,-3 4,-4 8,-8 12,-12 3,-2 0,-6 -2,-4zm-1 14l-7 7c-2,1 -4,3 -5,5 0,3 4,5 5,2 0,-1 0,-1 1,-1 1,-1 2,-2 3,-3 2,-2 4,-5 7,-7 2,-2 -2,-6 -4,-3zm2 11c-3,3 -7,7 -10,10 -1,2 2,5 3,3 4,-2 7,-6 11,-10 1,-2 -2,-5 -4,-3zm3 9c-3,3 -6,6 -8,9 -2,3 -5,6 -2,8 0,1 1,1 2,0 1,0 1,-1 2,-2 1,-1 2,-2 3,-3 2,-3 4,-6 7,-8 2,-3 -1,-7 -4,-4zm199 -82c0,0 0,0 0,0 0,-2 -3,-2 -4,0 0,1 -1,3 -2,4 -2,2 -3,3 -3,6 0,2 3,2 4,1 0,-1 1,-2 2,-3 0,-1 1,-2 2,-3 1,-1 1,-3 1,-5zm4 7c-3,3 -7,7 -10,11 -1,1 0,4 2,4 1,0 2,0 2,-1 4,-3 7,-8 10,-12 1,-2 -3,-5 -4,-2zm3 7c-1,2 -2,4 -4,6 -1,2 -3,3 -3,5 -1,1 0,3 2,3 2,0 3,-2 5,-4 1,-2 3,-5 5,-7 1,-3 -3,-5 -5,-3zm8 10c-1,3 -4,5 -7,7 -2,2 -5,5 -6,8 -2,3 2,5 4,3 3,-2 5,-5 7,-7 3,-3 5,-5 7,-8 2,-3 -3,-6 -5,-3zm-4 16c-3,2 -6,5 -9,8 -2,2 -4,4 -5,5 -2,2 -3,3 -4,5 -1,1 0,1 1,2 1,0 2,0 4,0 -3,2 -6,5 -9,7 -2,3 -7,5 -7,9 1,1 1,1 2,1 3,0 6,-4 9,-6 3,-3 6,-6 9,-9 2,-2 0,-5 -2,-4 1,-1 2,-2 3,-3 3,-4 7,-8 11,-11 3,-2 0,-6 -3,-4zm-13 27c-4,4 -8,7 -12,11 -3,3 1,7 4,4 4,-4 8,-8 12,-12 3,-2 -1,-6 -4,-3zm10 2c-5,4 -11,9 -14,14 -2,3 2,6 4,4 0,0 1,0 1,0 0,0 0,0 0,-1 4,-4 8,-9 13,-13 2,-3 -2,-7 -4,-4zm5 7c-5,4 -8,9 -13,13 -3,3 -8,8 -5,12 0,1 1,1 2,1 1,-1 2,-1 3,-3 1,-2 3,-4 5,-6 4,-4 7,-9 12,-12 2,-2 -1,-7 -4,-5zm3 13c-4,4 -8,7 -11,11 -2,3 -5,5 -4,8 0,2 0,3 2,3 3,1 3,-3 5,-5 4,-4 8,-9 12,-13 2,-3 -2,-7 -4,-4zm-4 16c-2,3 -5,6 -8,10 -2,3 -4,6 -4,10 1,2 4,3 6,1 0,0 0,0 0,0 0,-1 0,-1 0,-1 0,0 0,0 0,0 1,-3 2,-5 4,-7 2,-4 5,-7 7,-10 2,-3 -3,-6 -5,-3zm-1 16c-4,4 -9,9 -10,15 -1,3 4,4 5,1 2,-5 5,-9 8,-13 2,-2 -1,-5 -3,-3zm-3 18c-3,9 -8,17 -9,27 0,1 2,1 2,1 3,-4 5,-9 6,-13 1,-4 4,-9 6,-13 1,-3 -3,-5 -5,-2zm-66 -47c-5,4 -10,9 -11,15 0,1 1,2 2,1 4,-4 7,-9 11,-14 2,-1 0,-3 -2,-2zm1 16c-3,2 -5,5 -7,7 -2,2 -5,5 -5,8 -1,1 0,3 2,2 2,-2 4,-5 6,-7 2,-2 4,-5 7,-7 1,-2 -1,-5 -3,-3zm7 7c-5,5 -10,10 -14,15 -3,2 -8,7 -6,11 0,0 1,1 1,1 4,-2 6,-7 9,-9 4,-5 8,-10 13,-15 2,-2 -1,-5 -3,-3zm0 15c-2,4 -6,7 -10,11 -3,3 -8,6 -9,11 -1,2 2,3 3,2 4,-3 7,-7 10,-11 4,-3 7,-7 10,-11 2,-2 -2,-5 -4,-2zm3 17c-3,4 -6,6 -10,10 -2,2 -6,4 -7,8 0,2 1,3 3,2 3,-1 6,-4 8,-7 3,-3 7,-6 10,-9 3,-2 -1,-6 -4,-4zm1 14c-3,4 -7,8 -10,11 -3,4 -6,7 -8,12 -1,1 2,3 3,2 4,-2 6,-6 9,-9 4,-4 7,-8 11,-11 2,-3 -2,-7 -5,-5zm-89 -69c-2,0 -3,1 -4,2 -2,2 -2,3 -4,4 -3,2 -5,6 -6,9 0,1 1,2 1,1 4,0 4,-5 7,-7 1,0 2,-1 3,-2 1,-2 2,-3 4,-4 2,-2 0,-4 -1,-3zm2 8c-2,4 -6,7 -9,10 -1,2 -2,3 -3,5 -1,2 -2,3 -3,4 0,1 0,2 1,2 4,0 6,-5 8,-8 3,-3 7,-6 9,-11 1,-2 -2,-4 -3,-2zm4 10c-3,5 -7,8 -10,11 -3,2 -7,6 -7,10 0,1 0,1 1,1 4,0 7,-5 9,-8 4,-4 8,-7 10,-12 1,-2 -2,-4 -3,-2zm-4 17c-3,2 -6,5 -8,8 -2,2 -6,4 -5,7 0,1 1,2 2,1 1,0 2,-1 2,-2 1,-1 2,-2 3,-4 3,-2 5,-5 7,-7 2,-1 0,-4 -1,-3zm-2 13c-2,3 -5,5 -8,8 -3,2 -6,4 -8,7 0,1 0,2 1,2 4,-1 6,-4 9,-6 3,-3 6,-6 9,-9 1,-1 -1,-4 -3,-2zm-33 97c-2,7 -10,17 -7,24 0,1 1,1 1,0 2,-4 3,-8 5,-12 1,-4 3,-8 4,-11 1,-2 -2,-3 -3,-1zm7 6c-2,4 -5,8 -8,13 -1,3 -4,8 -1,12 0,0 1,0 2,0 1,-2 1,-3 1,-5 1,-3 2,-5 3,-8 2,-4 4,-7 6,-11 1,-2 -1,-3 -3,-1zm14 -5c-2,2 -4,6 -6,8 -2,3 -4,7 -6,10 -4,4 -9,14 -7,20 0,1 2,1 3,0 4,-5 5,-12 8,-17 2,-3 4,-7 6,-10 2,-3 3,-6 5,-9 1,-1 -2,-3 -3,-2zm13 2c-4,7 -9,14 -13,21 -3,5 -8,13 -6,20 0,1 2,1 2,0 2,-2 3,-5 4,-8 1,-4 3,-7 5,-11 4,-7 7,-13 11,-20 1,-2 -2,-4 -3,-2zm9 3c-2,4 -5,6 -7,10 -2,5 -4,10 -7,15 -4,7 -11,14 -10,23 0,2 1,3 2,2 1,-2 2,-2 2,-4 1,-2 2,-4 3,-7 3,-4 6,-9 8,-14 3,-4 4,-8 6,-12 2,-4 5,-8 7,-12 0,-3 -4,-4 -4,-1zm8 15c-5,7 -10,15 -14,24 -3,6 -8,16 -6,23 0,1 2,2 3,0 2,-3 2,-7 3,-10 1,-5 3,-9 5,-12 4,-8 8,-16 13,-23 1,-3 -2,-5 -4,-2zm11 7c-1,5 -4,9 -7,12 -3,5 -6,10 -8,15 -4,7 -11,17 -9,25 0,2 2,2 3,1 2,-4 3,-8 4,-12 2,-5 5,-10 7,-15 4,-9 11,-16 14,-25 1,-2 -3,-3 -4,-1zm7 14c-6,9 -11,19 -15,29 -2,5 -4,10 -6,15 -2,4 -5,9 -4,14 1,1 2,1 3,0 2,-4 3,-8 5,-12 2,-5 4,-10 6,-14 3,-11 9,-21 15,-30 1,-2 -2,-4 -4,-2zm-11 41c-4,8 -7,17 -9,25 0,1 1,2 2,1 4,-8 7,-16 11,-24 1,-2 -3,-4 -4,-2zm31 -68c-2,6 -6,12 -8,19 0,1 2,2 2,0 3,-6 7,-12 9,-18 1,-2 -2,-3 -3,-1zm18 -7c-5,7 -9,15 -12,23 -3,7 -9,16 -6,24 0,1 1,1 2,0 1,-3 1,-6 2,-9 2,-4 4,-8 5,-12 3,-8 7,-17 11,-25 1,-2 -1,-3 -2,-1zm7 7c-2,6 -5,11 -8,17 -2,4 -5,10 -2,14 0,1 1,1 2,0 2,-2 1,-2 2,-5 0,-3 2,-6 3,-9 2,-5 5,-10 7,-16 1,-2 -3,-3 -4,-1zm7 11c-2,3 -3,6 -5,10 -1,2 -2,5 -2,7 0,2 2,3 3,2 1,0 1,0 1,-1 1,0 1,-1 0,-2 1,-2 2,-4 3,-6 1,-3 3,-6 4,-8 2,-3 -2,-5 -4,-2zm13 0c-1,3 -13,19 -6,21 2,0 3,-6 4,-8 2,-4 5,-7 7,-11 1,-3 -3,-5 -5,-2zm10 4c-1,3 -3,6 -5,9 -1,2 -3,8 1,8 2,0 2,-1 2,-2 1,-2 1,-3 2,-4 2,-3 4,-6 5,-9 2,-4 -4,-5 -5,-2zm12 4c-3,4 -7,9 -9,14 -2,3 2,5 4,3 3,-5 6,-10 9,-15 2,-3 -2,-5 -4,-2zm10 2c-3,4 -5,8 -8,12 -1,4 -5,9 -3,13 1,1 2,1 3,0 3,-1 4,-6 5,-9 2,-5 4,-9 7,-12 3,-3 -1,-6 -4,-4zm4 12c-3,4 -8,9 -9,14 0,3 -2,7 1,9 2,2 5,0 4,-2 0,-2 1,-6 2,-8 2,-3 4,-7 7,-10 2,-3 -3,-6 -5,-3zm10 3c-2,5 -6,9 -8,13 -2,4 -4,9 -2,13 1,1 2,1 3,0 2,-3 3,-7 5,-11 2,-4 5,-8 7,-12 2,-3 -3,-6 -5,-3zm3 17c-5,10 -10,18 -12,28 -1,3 4,4 5,1 3,-9 7,-17 11,-26 1,-3 -3,-6 -4,-3zm-101 109c-1,7 -6,13 -6,20 0,1 1,1 2,0 3,-2 3,-6 4,-10 1,-3 3,-6 3,-10 0,-2 -3,-2 -3,0zm9 8c-2,4 -4,9 -6,14 -2,3 -4,9 -1,12 0,1 1,1 1,0 3,-3 3,-7 4,-11 2,-5 4,-9 6,-14 1,-3 -3,-4 -4,-1zm11 4c-3,4 -4,9 -6,14 -2,4 -4,10 -3,14 1,1 2,2 3,1 3,-3 3,-8 5,-12 0,-2 1,-3 2,-5 1,-3 1,-6 3,-9 2,-2 -2,-6 -4,-3zm7 18c-2,5 -8,13 -4,18 0,0 1,1 2,0 2,-2 2,-5 3,-8 1,-3 2,-6 3,-9 2,-2 -3,-4 -4,-1zm13 -1c-2,4 -4,8 -6,12 -1,3 -3,7 -1,10 0,1 2,1 2,0 3,-2 3,-6 4,-8 2,-4 4,-7 6,-11 1,-3 -3,-5 -5,-3zm15 -7c-3,5 -5,11 -8,16 -3,6 -5,12 -7,18 -2,3 3,6 5,3 4,-6 4,-12 7,-18 3,-5 5,-11 8,-16 2,-3 -3,-6 -5,-3zm14 -5c-4,8 -9,16 -13,24 -2,4 -9,14 -5,19 0,2 2,2 3,1 3,-1 3,-3 3,-6 2,-4 4,-9 5,-13 4,-7 8,-15 11,-22 2,-3 -3,-6 -4,-3zm8 8c-1,4 -3,7 -5,10 -2,4 -4,7 -6,10 -1,3 -3,6 -4,9 -2,3 -4,6 -3,9 0,2 1,3 3,2 6,-3 8,-12 11,-18 2,-4 3,-8 6,-12 1,-3 3,-7 3,-10 0,-4 -5,-4 -5,0z"/>
 </g>
</svg>
